ScienceGothic-ExpS.ufo
<glyph name="exclam" format="2">
  <advance width="926"/>
  <unicode hex="0021"/>
  <outline>
    <contour>
      <point x="207.286" y="111" type="line"/>
      <point x="221.286" y="190" type="line" smooth="yes"/>
      <point x="229.286" y="233"/>
      <point x="241.286" y="280"/>
      <point x="268.286" y="303"/>
      <point x="317.286" y="307"/>
      <point x="361.286" y="307" type="qcurve" smooth="yes"/>
      <point x="437.286" y="307" type="line" smooth="yes"/>
      <point x="481.286" y="307"/>
      <point x="528.286" y="303"/>
      <point x="547.286" y="280"/>
      <point x="544.286" y="233"/>
      <point x="536.286" y="190" type="qcurve" smooth="yes"/>
      <point x="522.286" y="111" type="line" smooth="yes"/>
      <point x="515.286" y="67"/>
      <point x="502.286" y="19"/>
      <point x="475.286" y="-4"/>
      <point x="426.286" y="-8"/>
      <point x="382.286" y="-8" type="qcurve" smooth="yes"/>
      <point x="306.286" y="-8" type="line" smooth="yes"/>
      <point x="262.286" y="-8"/>
      <point x="215.286" y="-4"/>
      <point x="196.286" y="19"/>
      <point x="200.286" y="67"/>
      <point x="207.286" y="111" type="qcurve"/>
    </contour>
    <contour>
      <point x="336.286" y="462" type="line"/>
      <point x="403.286" y="1400" type="line"/>
      <point x="776.286" y="1400" type="line"/>
      <point x="517.286" y="462" type="line"/>
    </contour>
  </outline>
</glyph>
<glyph name="numbersign" format="2">
  <advance width="1848"/>
  <unicode hex="0023"/>
  <outline>
    <contour>
      <point x="86" y="318" type="line"/>
      <point x="157" y="542" type="line"/>
      <point x="1599" y="542" type="line"/>
      <point x="1528" y="318" type="line"/>
    </contour>
    <contour>
      <point x="256" y="859" type="line"/>
      <point x="327" y="1083" type="line"/>
      <point x="1769" y="1083" type="line"/>
      <point x="1698" y="859" type="line"/>
    </contour>
    <contour>
      <point x="254" y="0" type="line"/>
      <point x="696" y="1400" type="line"/>
      <point x="896" y="1400" type="line"/>
      <point x="454" y="0" type="line"/>
    </contour>
    <contour>
      <point x="958" y="0" type="line"/>
      <point x="1400" y="1400" type="line"/>
      <point x="1600" y="1400" type="line"/>
      <point x="1158" y="0" type="line"/>
    </contour>
  </outline>
</glyph>
<glyph name="dollar" format="2">
  <advance width="2683"/>
  <unicode hex="0024"/>
  <outline>
    <contour>
      <point x="1082" y="-150" type="line"/>
      <point x="1106" y="-14" type="line"/>
      <point x="462" y="-14" type="line" smooth="yes"/>
      <point x="383" y="-14"/>
      <point x="260" y="9"/>
      <point x="182" y="72"/>
      <point x="154" y="184"/>
      <point x="169" y="272" type="qcurve"/>
      <point x="186" y="364" type="line"/>
      <point x="447" y="416" type="line"/>
      <point x="414" y="230" type="line"/>
      <point x="414" y="230"/>
      <point x="414" y="230"/>
      <point x="414" y="230"/>
      <point x="414" y="230"/>
      <point x="414" y="230" type="qcurve"/>
      <point x="1148" y="230" type="line"/>
      <point x="1210" y="586" type="line"/>
      <point x="596" y="586" type="line" smooth="yes"/>
      <point x="517" y="586"/>
      <point x="394" y="610"/>
      <point x="317" y="673"/>
      <point x="289" y="786"/>
      <point x="305" y="874" type="qcurve"/>
      <point x="347" y="1120" type="line" smooth="yes"/>
      <point x="362" y="1206"/>
      <point x="431" y="1313"/>
      <point x="532" y="1373"/>
      <point x="661" y="1394"/>
      <point x="737" y="1394" type="qcurve" smooth="yes"/>
      <point x="1351" y="1394" type="line"/>
      <point x="1381" y="1564" type="line"/>
      <point x="1595" y="1564" type="line"/>
      <point x="1565" y="1394" type="line"/>
      <point x="2189" y="1394" type="line" smooth="yes"/>
      <point x="2266" y="1394"/>
      <point x="2388" y="1373"/>
      <point x="2469" y="1313"/>
      <point x="2500" y="1206"/>
      <point x="2485" y="1120" type="qcurve" smooth="yes"/>
      <point x="2472" y="1040" type="line"/>
      <point x="2211" y="990" type="line"/>
      <point x="2239" y="1150" type="line"/>
      <point x="2239" y="1150"/>
      <point x="2239" y="1150"/>
      <point x="2239" y="1150"/>
      <point x="2239" y="1150"/>
      <point x="2239" y="1150" type="qcurve"/>
      <point x="1523" y="1150" type="line"/>
      <point x="1467" y="830" type="line"/>
      <point x="2111" y="830" type="line" smooth="yes"/>
      <point x="2188" y="830"/>
      <point x="2310" y="809"/>
      <point x="2391" y="749"/>
      <point x="2422" y="642"/>
      <point x="2407" y="556" type="qcurve" smooth="yes"/>
      <point x="2357" y="272" type="line" smooth="yes"/>
      <point x="2342" y="184"/>
      <point x="2275" y="72"/>
      <point x="2176" y="9"/>
      <point x="2044" y="-14"/>
      <point x="1964" y="-14" type="qcurve" smooth="yes"/>
      <point x="1320" y="-14" type="line"/>
      <point x="1296" y="-150" type="line"/>
    </contour>
    <contour>
      <point x="1253" y="830" type="line"/>
      <point x="1309" y="1150" type="line"/>
      <point x="605" y="1150" type="line"/>
      <point x="605" y="1150"/>
      <point x="605" y="1150"/>
      <point x="605" y="1150"/>
      <point x="605" y="1150"/>
      <point x="605" y="1150" type="qcurve"/>
      <point x="549" y="830" type="line"/>
      <point x="549" y="830"/>
      <point x="549" y="830"/>
      <point x="549" y="830"/>
      <point x="549" y="830"/>
      <point x="549" y="830" type="qcurve"/>
    </contour>
    <contour>
      <point x="1362" y="230" type="line"/>
      <point x="2098" y="230" type="line"/>
      <point x="2098" y="230"/>
      <point x="2098" y="230"/>
      <point x="2098" y="230"/>
      <point x="2098" y="230"/>
      <point x="2098" y="230" type="qcurve"/>
      <point x="2160" y="586" type="line"/>
      <point x="2160" y="586"/>
      <point x="2160" y="586"/>
      <point x="2160" y="586"/>
      <point x="2160" y="586"/>
      <point x="2160" y="586" type="qcurve"/>
      <point x="1424" y="586" type="line"/>
    </contour>
  </outline>
</glyph>
<glyph name="ampersand" format="2">
  <advance width="2220"/>
  <unicode hex="0026"/>
  <outline>
    <contour>
      <point x="210" y="0" type="line"/>
      <point x="1124" y="0" type="line" smooth="yes"/>
      <point x="1160" y="0"/>
      <point x="1223" y="10"/>
      <point x="1286" y="35"/>
      <point x="1357" y="77"/>
      <point x="1401" y="108" type="qcurve" smooth="yes"/>
      <point x="1472" y="158" type="line"/>
      <point x="1670" y="0" type="line"/>
      <point x="2100" y="0" type="line"/>
      <point x="1702" y="318" type="line"/>
      <point x="2126" y="618" type="line"/>
      <point x="1998" y="780" type="line"/>
      <point x="1534" y="453" type="line"/>
      <point x="786" y="1052" type="line"/>
      <point x="786" y="1052"/>
      <point x="786" y="1052"/>
      <point x="786" y="1052"/>
      <point x="786" y="1052"/>
      <point x="786" y="1052" type="qcurve"/>
      <point x="806" y="1168" type="line"/>
      <point x="806" y="1168"/>
      <point x="806" y="1168"/>
      <point x="806" y="1168"/>
      <point x="806" y="1168"/>
      <point x="806" y="1168" type="qcurve"/>
      <point x="1470" y="1168" type="line"/>
      <point x="1470" y="1168"/>
      <point x="1470" y="1168"/>
      <point x="1470" y="1168"/>
      <point x="1470" y="1168"/>
      <point x="1470" y="1168" type="qcurve"/>
      <point x="1432" y="952" type="line"/>
      <point x="1665" y="1002" type="line"/>
      <point x="1696" y="1178" type="line" smooth="yes"/>
      <point x="1704" y="1222"/>
      <point x="1678" y="1302"/>
      <point x="1622" y="1364"/>
      <point x="1542" y="1400"/>
      <point x="1494" y="1400" type="qcurve" smooth="yes"/>
      <point x="862" y="1400" type="line" smooth="yes"/>
      <point x="800" y="1400"/>
      <point x="693" y="1361"/>
      <point x="611" y="1289"/>
      <point x="555" y="1186"/>
      <point x="544" y="1122" type="qcurve"/>
      <point x="543" y="1120" type="line"/>
      <point x="535" y="1075"/>
      <point x="532" y="998"/>
      <point x="545" y="933"/>
      <point x="575" y="876"/>
      <point x="600" y="850" type="qcurve"/>
      <point x="173" y="650" type="line" smooth="yes"/>
      <point x="145" y="637"/>
      <point x="100" y="601"/>
      <point x="67" y="554"/>
      <point x="45" y="497"/>
      <point x="39" y="462" type="qcurve" smooth="yes"/>
      <point x="-5" y="214" type="line" smooth="yes"/>
      <point x="-12" y="174"/>
      <point x="18" y="97"/>
      <point x="79" y="37"/>
      <point x="163" y="0"/>
      <point x="210" y="0" type="qcurve"/>
    </contour>
    <contour>
      <point x="256" y="232" type="line"/>
      <point x="256" y="232"/>
      <point x="256" y="232"/>
      <point x="256" y="232"/>
      <point x="256" y="232"/>
      <point x="256" y="232" type="qcurve"/>
      <point x="298" y="468" type="line"/>
      <point x="298" y="468"/>
      <point x="298" y="468"/>
      <point x="298" y="468"/>
      <point x="298" y="468"/>
      <point x="298" y="468" type="qcurve"/>
      <point x="789" y="702" type="line"/>
      <point x="1303" y="291" type="line"/>
      <point x="1218" y="232" type="line"/>
      <point x="1218" y="232"/>
      <point x="1218" y="232"/>
      <point x="1218" y="232"/>
      <point x="1218" y="232"/>
      <point x="1218" y="232" type="qcurve"/>
    </contour>
  </outline>
</glyph>
<glyph name="quotesingle" format="2">
  <advance width="830"/>
  <unicode hex="0027"/>
  <outline>
    <contour>
      <point x="377" y="1236" type="line"/>
      <point x="394" y="1335" type="line" smooth="yes"/>
      <point x="402" y="1378"/>
      <point x="413" y="1425"/>
      <point x="436" y="1448"/>
      <point x="477" y="1452"/>
      <point x="513" y="1452" type="qcurve" smooth="yes"/>
      <point x="587" y="1452" type="line" smooth="yes"/>
      <point x="623" y="1452"/>
      <point x="663" y="1448"/>
      <point x="678" y="1425"/>
      <point x="674" y="1378"/>
      <point x="666" y="1335" type="qcurve" smooth="yes"/>
      <point x="649" y="1236" type="line"/>
      <point x="499" y="835" type="line"/>
      <point x="387" y="835" type="line"/>
    </contour>
  </outline>
</glyph>
<glyph name="parenleft" format="2">
  <advance width="928"/>
  <unicode hex="0028"/>
  <outline>
    <contour>
      <point x="669.624" y="-256" type="line"/>
      <point x="451.624" y="-256" type="line"/>
      <point x="367.624" y="-184"/>
      <point x="251.624" y="-2"/>
      <point x="188.624" y="213"/>
      <point x="179.624" y="460"/>
      <point x="203.624" y="597" type="qcurve" smooth="yes"/>
      <point x="227.624" y="734"/>
      <point x="321.624" y="977"/>
      <point x="459.624" y="1190"/>
      <point x="639.624" y="1372"/>
      <point x="749.624" y="1448" type="qcurve"/>
      <point x="967.624" y="1448" type="line"/>
      <point x="900.624" y="1399"/>
      <point x="782.624" y="1283"/>
      <point x="682.624" y="1152"/>
      <point x="599.624" y="1007"/>
      <point x="534.624" y="851"/>
      <point x="486.624" y="684"/>
      <point x="471.624" y="597" type="qcurve" smooth="yes"/>
      <point x="456.624" y="510"/>
      <point x="445.624" y="343"/>
      <point x="456.624" y="186"/>
      <point x="488.624" y="41"/>
      <point x="542.624" y="-90"/>
      <point x="619.624" y="-206"/>
      <point x="669.624" y="-256" type="qcurve"/>
    </contour>
  </outline>
</glyph>
<glyph name="asterisk" format="2">
  <advance width="1015"/>
  <unicode hex="002A"/>
  <outline>
    <contour>
      <point x="457" y="778" type="line"/>
      <point x="507" y="1064" type="line"/>
      <point x="523" y="1160" type="line"/>
      <point x="574" y="1448" type="line"/>
      <point x="712" y="1448" type="line"/>
      <point x="661" y="1158" type="line"/>
      <point x="645" y="1063" type="line"/>
      <point x="595" y="778" type="line"/>
    </contour>
    <contour>
      <point x="141" y="956" type="line"/>
      <point x="570" y="1178" type="line"/>
      <point x="637" y="1197" type="line"/>
      <point x="982" y="1378" type="line"/>
      <point x="1027" y="1265" type="line"/>
      <point x="600" y="1045" type="line"/>
      <point x="533" y="1026" type="line"/>
      <point x="186" y="843" type="line"/>
    </contour>
    <contour>
      <point x="195" y="1261" type="line"/>
      <point x="284" y="1380" type="line"/>
      <point x="563" y="1200" type="line"/>
      <point x="627" y="1184" type="line"/>
      <point x="973" y="965" type="line"/>
      <point x="885" y="846" type="line"/>
      <point x="605" y="1026" type="line"/>
      <point x="542" y="1042" type="line"/>
    </contour>
  </outline>
  <guideline x="-14"/>
  <guideline x="794"/>
</glyph>
<glyph name="plus" format="2">
  <advance width="1879.47"/>
  <unicode hex="002B"/>
  <outline>
    <contour>
      <point x="1680" y="691" type="line"/>
      <point x="1643" y="483" type="line"/>
      <point x="1016" y="483" type="line"/>
      <point x="932" y="0" type="line"/>
      <point x="708" y="0" type="line"/>
      <point x="792" y="483" type="line"/>
      <point x="165" y="483" type="line"/>
      <point x="202" y="691" type="line"/>
      <point x="829" y="691" type="line"/>
      <point x="912" y="1168" type="line"/>
      <point x="1136" y="1168" type="line"/>
      <point x="1053" y="691" type="line"/>
    </contour>
  </outline>
</glyph>
<glyph name="comma" format="2">
  <advance width="870.961"/>
  <unicode hex="002C"/>
  <outline>
    <contour>
      <point x="213.944" y="-302" type="line"/>
      <point x="126.944" y="-270" type="line"/>
      <point x="303.944" y="0" type="line"/>
      <point x="275.944" y="0" type="line" smooth="yes"/>
      <point x="231.944" y="0"/>
      <point x="184.944" y="4"/>
      <point x="165.944" y="27"/>
      <point x="170.944" y="75"/>
      <point x="177.944" y="119" type="qcurve" smooth="yes"/>
      <point x="189.944" y="190" type="line" smooth="yes"/>
      <point x="197.944" y="233"/>
      <point x="209.944" y="280"/>
      <point x="236.944" y="303"/>
      <point x="285.944" y="307"/>
      <point x="329.944" y="307" type="qcurve" smooth="yes"/>
      <point x="406.944" y="307" type="line" smooth="yes"/>
      <point x="450.944" y="307"/>
      <point x="497.944" y="303"/>
      <point x="516.944" y="280"/>
      <point x="512.944" y="233"/>
      <point x="504.944" y="190" type="qcurve" smooth="yes"/>
      <point x="492.944" y="119" type="line" smooth="yes"/>
      <point x="487.944" y="92"/>
      <point x="479.944" y="57"/>
      <point x="470.944" y="33"/>
      <point x="458.944" y="14"/>
      <point x="449.944" y="2" type="qcurve" smooth="yes"/>
    </contour>
  </outline>
</glyph>
<glyph name="period" format="2">
  <advance width="868"/>
  <unicode hex="002E"/>
  <outline>
    <contour>
      <point x="176" y="111" type="line"/>
      <point x="190" y="190" type="line" smooth="yes"/>
      <point x="198" y="233"/>
      <point x="210" y="280"/>
      <point x="237" y="303"/>
      <point x="286" y="307"/>
      <point x="330" y="307" type="qcurve" smooth="yes"/>
      <point x="406" y="307" type="line" smooth="yes"/>
      <point x="450" y="307"/>
      <point x="497" y="303"/>
      <point x="516" y="280"/>
      <point x="513" y="233"/>
      <point x="505" y="190" type="qcurve" smooth="yes"/>
      <point x="491" y="111" type="line" smooth="yes"/>
      <point x="484" y="67"/>
      <point x="471" y="19"/>
      <point x="444" y="-4"/>
      <point x="395" y="-8"/>
      <point x="351" y="-8" type="qcurve" smooth="yes"/>
      <point x="275" y="-8" type="line" smooth="yes"/>
      <point x="231" y="-8"/>
      <point x="184" y="-4"/>
      <point x="165" y="19"/>
      <point x="169" y="67"/>
      <point x="176" y="111" type="qcurve"/>
    </contour>
  </outline>
</glyph>
<glyph name="slash" format="2">
  <advance width="1509"/>
  <unicode hex="002F"/>
  <outline>
    <contour>
      <point x="1224.58" y="1430" type="line"/>
      <point x="1501.58" y="1430" type="line"/>
      <point x="277.581" y="-100" type="line"/>
      <point x="0.581304" y="-100" type="line"/>
    </contour>
  </outline>
</glyph>
<glyph name="zero" format="2">
  <advance width="2594.2" height="1448"/>
  <unicode hex="0030"/>
  <outline>
    <contour>
      <point x="529" y="-14" type="line"/>
      <point x="1819" y="-14" type="line" smooth="yes"/>
      <point x="1899" y="-14"/>
      <point x="2031" y="9"/>
      <point x="2130" y="72"/>
      <point x="2197" y="184"/>
      <point x="2212" y="272" type="qcurve" smooth="yes"/>
      <point x="2364" y="1140" type="line" smooth="yes"/>
      <point x="2379" y="1226"/>
      <point x="2347" y="1333"/>
      <point x="2267" y="1393"/>
      <point x="2144" y="1414"/>
      <point x="2068" y="1414" type="qcurve" smooth="yes"/>
      <point x="778" y="1414" type="line" smooth="yes"/>
      <point x="702" y="1414"/>
      <point x="573" y="1393"/>
      <point x="472" y="1333"/>
      <point x="403" y="1226"/>
      <point x="388" y="1140" type="qcurve" smooth="yes"/>
      <point x="236" y="272" type="line" smooth="yes"/>
      <point x="221" y="184"/>
      <point x="249" y="73"/>
      <point x="326" y="10"/>
      <point x="449" y="-14"/>
      <point x="529" y="-14" type="qcurve"/>
    </contour>
    <contour>
      <point x="493" y="230" type="line"/>
      <point x="493" y="230"/>
      <point x="493" y="230"/>
      <point x="493" y="230" type="qcurve"/>
      <point x="657" y="1170" type="line"/>
      <point x="657" y="1170"/>
      <point x="657" y="1170"/>
      <point x="657" y="1170"/>
      <point x="657" y="1170"/>
      <point x="657" y="1170" type="qcurve"/>
      <point x="2105" y="1170" type="line"/>
      <point x="2105" y="1170"/>
      <point x="2105" y="1170"/>
      <point x="2105" y="1170"/>
      <point x="2105" y="1170"/>
      <point x="2105" y="1170" type="qcurve"/>
      <point x="1941" y="230" type="line"/>
      <point x="1941" y="230"/>
      <point x="1941" y="230"/>
      <point x="1941" y="230"/>
      <point x="1941" y="230"/>
      <point x="1941" y="230" type="qcurve"/>
    </contour>
  </outline>
</glyph>
<glyph name="two" format="2">
  <advance width="2604"/>
  <unicode hex="0032"/>
  <outline>
    <contour>
      <point x="187" y="0" type="line"/>
      <point x="243" y="319" type="line" smooth="yes"/>
      <point x="251" y="366"/>
      <point x="303" y="465"/>
      <point x="385" y="552"/>
      <point x="494" y="619"/>
      <point x="559" y="632" type="qcurve" smooth="yes"/>
      <point x="1943" y="919" type="line" smooth="yes"/>
      <point x="1978" y="926"/>
      <point x="2024" y="947"/>
      <point x="2052" y="976"/>
      <point x="2066" y="1013"/>
      <point x="2070" y="1035" type="qcurve" smooth="yes"/>
      <point x="2093" y="1170" type="line"/>
      <point x="2093" y="1170"/>
      <point x="2093" y="1170"/>
      <point x="2093" y="1170" type="qcurve"/>
      <point x="691" y="1170" type="line"/>
      <point x="691" y="1170"/>
      <point x="691" y="1170"/>
      <point x="691" y="1170" type="qcurve"/>
      <point x="643" y="892" type="line"/>
      <point x="386" y="936" type="line"/>
      <point x="424" y="1152" type="line" smooth="yes"/>
      <point x="435" y="1214"/>
      <point x="492" y="1311"/>
      <point x="583" y="1378"/>
      <point x="709" y="1414"/>
      <point x="788" y="1414" type="qcurve" smooth="yes"/>
      <point x="2082" y="1414" type="line" smooth="yes"/>
      <point x="2162" y="1414"/>
      <point x="2275" y="1383"/>
      <point x="2344" y="1320"/>
      <point x="2368" y="1228"/>
      <point x="2357" y="1166" type="qcurve" smooth="yes"/>
      <point x="2332" y="1026" type="line" smooth="yes"/>
      <point x="2322" y="968"/>
      <point x="2269" y="862"/>
      <point x="2190" y="777"/>
      <point x="2091" y="718"/>
      <point x="2034" y="706" type="qcurve" smooth="yes"/>
      <point x="639" y="416" type="line" smooth="yes"/>
      <point x="604" y="409"/>
      <point x="555" y="384"/>
      <point x="523" y="351"/>
      <point x="506" y="311"/>
      <point x="502" y="290" type="qcurve" smooth="yes"/>
      <point x="494" y="244" type="line"/>
      <point x="1956" y="244" type="line"/>
      <point x="1956" y="244"/>
      <point x="1956" y="244"/>
      <point x="1956" y="244" type="qcurve"/>
      <point x="1987" y="426" type="line"/>
      <point x="2244" y="382" type="line"/>
      <point x="2222" y="260" type="line" smooth="yes"/>
      <point x="2208" y="181"/>
      <point x="2145" y="79"/>
      <point x="2051" y="22"/>
      <point x="1930" y="0"/>
      <point x="1859" y="0" type="qcurve" smooth="yes"/>
    </contour>
  </outline>
</glyph>
<glyph name="three" format="2">
  <advance width="2639" height="1448"/>
  <unicode hex="0033"/>
  <outline>
    <contour>
      <point x="257" y="394" type="line"/>
      <point x="529" y="442" type="line"/>
      <point x="495" y="244" type="line"/>
      <point x="495" y="244"/>
      <point x="495" y="244"/>
      <point x="495" y="244"/>
      <point x="495" y="244"/>
      <point x="495" y="244" type="qcurve"/>
      <point x="1875" y="244" type="line" smooth="yes"/>
      <point x="1900" y="244"/>
      <point x="1944" y="262"/>
      <point x="1980" y="293"/>
      <point x="2005" y="335"/>
      <point x="2009" y="360" type="qcurve" smooth="yes"/>
      <point x="2033" y="496" type="line" smooth="yes"/>
      <point x="2037" y="519"/>
      <point x="2028" y="556"/>
      <point x="2006" y="583"/>
      <point x="1971" y="598"/>
      <point x="1948" y="598" type="qcurve" smooth="yes"/>
      <point x="1078" y="598" type="line"/>
      <point x="1117" y="822" type="line"/>
      <point x="1959" y="822" type="line" smooth="yes"/>
      <point x="1982" y="822"/>
      <point x="2022" y="837"/>
      <point x="2054" y="864"/>
      <point x="2075" y="902"/>
      <point x="2079" y="924" type="qcurve" smooth="yes"/>
      <point x="2101" y="1046" type="line" smooth="yes"/>
      <point x="2105" y="1071"/>
      <point x="2096" y="1111"/>
      <point x="2072" y="1140"/>
      <point x="2035" y="1156"/>
      <point x="2012" y="1156" type="qcurve" smooth="yes"/>
      <point x="666" y="1156" type="line"/>
      <point x="666" y="1156"/>
      <point x="666" y="1156"/>
      <point x="666" y="1156" type="qcurve"/>
      <point x="628" y="940" type="line"/>
      <point x="372" y="988" type="line"/>
      <point x="401" y="1152" type="line" smooth="yes"/>
      <point x="412" y="1214"/>
      <point x="468" y="1306"/>
      <point x="558" y="1369"/>
      <point x="683" y="1400"/>
      <point x="762" y="1400" type="qcurve" smooth="yes"/>
      <point x="2088" y="1400" type="line" smooth="yes"/>
      <point x="2255" y="1400"/>
      <point x="2401" y="1253"/>
      <point x="2373" y="1092" type="qcurve" smooth="yes"/>
      <point x="2356" y="995" type="line" smooth="yes"/>
      <point x="2345" y="931"/>
      <point x="2300" y="836"/>
      <point x="2231" y="770"/>
      <point x="2140" y="730"/>
      <point x="2082" y="720" type="qcurve"/>
      <point x="2135" y="716"/>
      <point x="2221" y="680"/>
      <point x="2278" y="612"/>
      <point x="2299" y="509"/>
      <point x="2286" y="438" type="qcurve" smooth="yes"/>
      <point x="2264" y="310" type="line" smooth="yes"/>
      <point x="2249" y="226"/>
      <point x="2178" y="108"/>
      <point x="2074" y="34"/>
      <point x="1945" y="0"/>
      <point x="1872" y="0" type="qcurve" smooth="yes"/>
      <point x="506" y="0" type="line" smooth="yes"/>
      <point x="434" y="0"/>
      <point x="320" y="21"/>
      <point x="247" y="78"/>
      <point x="219" y="180"/>
      <point x="233" y="260" type="qcurve" smooth="yes"/>
    </contour>
  </outline>
</glyph>
<glyph name="five" format="2">
  <advance width="2420"/>
  <unicode hex="0035"/>
  <outline>
    <contour>
      <point x="1172" y="-12" type="line"/>
      <point x="1032" y="-12"/>
      <point x="754" y="-3"/>
      <point x="511" y="13"/>
      <point x="318" y="34"/>
      <point x="262" y="46" type="qcurve"/>
      <point x="245" y="290" type="line"/>
      <point x="290" y="279"/>
      <point x="403" y="259"/>
      <point x="539" y="244"/>
      <point x="701" y="233"/>
      <point x="890" y="226"/>
      <point x="1106" y="222"/>
      <point x="1229" y="222" type="qcurve" smooth="yes"/>
      <point x="1410" y="222"/>
      <point x="1666" y="245"/>
      <point x="1832" y="297"/>
      <point x="1918" y="379"/>
      <point x="1928" y="438" type="qcurve" smooth="yes"/>
      <point x="1939" y="499"/>
      <point x="1884" y="581"/>
      <point x="1729" y="631"/>
      <point x="1461" y="652"/>
      <point x="1258" y="652" type="qcurve" smooth="yes"/>
      <point x="1102" y="652"/>
      <point x="837" y="645"/>
      <point x="604" y="630"/>
      <point x="393" y="607"/>
      <point x="291" y="590" type="qcurve"/>
      <point x="498" y="1400" type="line"/>
      <point x="2182" y="1400" type="line"/>
      <point x="2088" y="1156" type="line"/>
      <point x="648" y="1156" type="line"/>
      <point x="569" y="844" type="line"/>
      <point x="618" y="853"/>
      <point x="763" y="868"/>
      <point x="955" y="880"/>
      <point x="1190" y="886"/>
      <point x="1329" y="886" type="qcurve" smooth="yes"/>
      <point x="1501" y="886"/>
      <point x="1770" y="865"/>
      <point x="1971" y="821"/>
      <point x="2108" y="751"/>
      <point x="2186" y="653"/>
      <point x="2208" y="526"/>
      <point x="2194" y="446" type="qcurve" smooth="yes"/>
      <point x="2180" y="364"/>
      <point x="2111" y="231"/>
      <point x="1997" y="130"/>
      <point x="1834" y="57"/>
      <point x="1617" y="10"/>
      <point x="1342" y="-12"/>
      <point x="1172" y="-12" type="qcurve"/>
    </contour>
  </outline>
</glyph>
<glyph name="six" format="2">
  <advance width="2428"/>
  <unicode hex="0036"/>
  <outline>
    <contour>
      <point x="1108" y="-8" type="line"/>
      <point x="1329" y="-8"/>
      <point x="1645" y="-3"/>
      <point x="1864" y="20"/>
      <point x="2000" y="66"/>
      <point x="2082" y="147"/>
      <point x="2124" y="269"/>
      <point x="2139" y="356" type="qcurve" smooth="yes"/>
      <point x="2159" y="471"/>
      <point x="2157" y="633"/>
      <point x="2099" y="743"/>
      <point x="1977" y="808"/>
      <point x="1775" y="842"/>
      <point x="1487" y="852"/>
      <point x="1292" y="852" type="qcurve" smooth="yes"/>
      <point x="1100" y="852"/>
      <point x="800" y="836"/>
      <point x="579" y="810"/>
      <point x="436" y="778"/>
      <point x="400" y="762" type="qcurve"/>
      <point x="362" y="546" type="line"/>
      <point x="422" y="564"/>
      <point x="592" y="591"/>
      <point x="810" y="609"/>
      <point x="1074" y="618"/>
      <point x="1227" y="618" type="qcurve" smooth="yes"/>
      <point x="1381" y="618"/>
      <point x="1602" y="615"/>
      <point x="1753" y="602"/>
      <point x="1843" y="577"/>
      <point x="1887" y="534"/>
      <point x="1893" y="471"/>
      <point x="1885" y="426" type="qcurve" smooth="yes"/>
      <point x="1878" y="383"/>
      <point x="1850" y="321"/>
      <point x="1789" y="278"/>
      <point x="1685" y="251"/>
      <point x="1517" y="237"/>
      <point x="1274" y="232"/>
      <point x="1105" y="232" type="qcurve" smooth="yes"/>
      <point x="949" y="232"/>
      <point x="726" y="236"/>
      <point x="576" y="250"/>
      <point x="488" y="278"/>
      <point x="448" y="327"/>
      <point x="445" y="400"/>
      <point x="454" y="452" type="qcurve" smooth="yes"/>
      <point x="477" y="581"/>
      <point x="564" y="789"/>
      <point x="701" y="951"/>
      <point x="889" y="1068"/>
      <point x="1133" y="1144"/>
      <point x="1438" y="1180"/>
      <point x="1623" y="1180" type="qcurve" smooth="yes"/>
      <point x="1682" y="1180"/>
      <point x="1830" y="1176"/>
      <point x="1966" y="1170"/>
      <point x="2071" y="1164"/>
      <point x="2088" y="1162" type="qcurve"/>
      <point x="1958" y="1406" type="line"/>
      <point x="1938" y="1408"/>
      <point x="1857" y="1413"/>
      <point x="1755" y="1416"/>
      <point x="1645" y="1418"/>
      <point x="1596" y="1418" type="qcurve" smooth="yes"/>
      <point x="1390" y="1418"/>
      <point x="1038" y="1372"/>
      <point x="746" y="1277"/>
      <point x="515" y="1131"/>
      <point x="343" y="931"/>
      <point x="229" y="675"/>
      <point x="202" y="518" type="qcurve" smooth="yes"/>
      <point x="182" y="400"/>
      <point x="177" y="229"/>
      <point x="230" y="113"/>
      <point x="354" y="42"/>
      <point x="569" y="4"/>
      <point x="887" y="-8"/>
      <point x="1108" y="-8" type="qcurve"/>
    </contour>
  </outline>
</glyph>
<glyph name="seven" format="2">
  <advance width="2105"/>
  <unicode hex="0037"/>
  <outline>
    <contour>
      <point x="144" y="920" type="line"/>
      <point x="391" y="872" type="line"/>
      <point x="441" y="1156" type="line"/>
      <point x="1802" y="1156" type="line"/>
      <point x="504" y="0" type="line"/>
      <point x="889" y="0" type="line"/>
      <point x="2180" y="1162" type="line"/>
      <point x="2221" y="1400" type="line"/>
      <point x="227" y="1400" type="line"/>
    </contour>
  </outline>
  <guideline x="1053" name="halfwidth" color="0.4,0.4,0.4,1"/>
</glyph>
<glyph name="eight" format="2">
  <advance width="2685"/>
  <unicode hex="0038"/>
  <outline>
    <contour>
      <point x="481" y="346" type="line" smooth="yes"/>
      <point x="477" y="321"/>
      <point x="487" y="279"/>
      <point x="512" y="248"/>
      <point x="550" y="230"/>
      <point x="575" y="230" type="qcurve" smooth="yes"/>
      <point x="1951" y="230" type="line" smooth="yes"/>
      <point x="1976" y="230"/>
      <point x="2021" y="248"/>
      <point x="2057" y="279"/>
      <point x="2081" y="321"/>
      <point x="2085" y="346" type="qcurve" smooth="yes"/>
      <point x="2109" y="480" type="line" smooth="yes"/>
      <point x="2113" y="503"/>
      <point x="2104" y="540"/>
      <point x="2082" y="567"/>
      <point x="2048" y="582"/>
      <point x="2025" y="582" type="qcurve" smooth="yes"/>
      <point x="623" y="582" type="line" smooth="yes"/>
      <point x="601" y="582"/>
      <point x="562" y="567"/>
      <point x="530" y="540"/>
      <point x="509" y="503"/>
      <point x="505" y="480" type="qcurve" smooth="yes"/>
    </contour>
    <contour>
      <point x="2180" y="1062" type="line"/>
      <point x="2185" y="1086"/>
      <point x="2175" y="1126"/>
      <point x="2151" y="1154"/>
      <point x="2114" y="1170"/>
      <point x="2091" y="1170" type="qcurve" smooth="yes"/>
      <point x="765" y="1170" type="line" smooth="yes"/>
      <point x="741" y="1170"/>
      <point x="698" y="1154"/>
      <point x="664" y="1126"/>
      <point x="641" y="1086"/>
      <point x="636" y="1062" type="qcurve"/>
      <point x="613" y="926" type="line" smooth="yes"/>
      <point x="609" y="904"/>
      <point x="617" y="868"/>
      <point x="640" y="841"/>
      <point x="675" y="826"/>
      <point x="697" y="826" type="qcurve" smooth="yes"/>
      <point x="2037" y="826" type="line" smooth="yes"/>
      <point x="2060" y="826"/>
      <point x="2100" y="841"/>
      <point x="2131" y="868"/>
      <point x="2153" y="904"/>
      <point x="2157" y="926" type="qcurve" smooth="yes"/>
    </contour>
    <contour>
      <point x="203" y="266" type="line"/>
      <point x="237" y="458" type="line" smooth="yes"/>
      <point x="249" y="526"/>
      <point x="299" y="617"/>
      <point x="376" y="675"/>
      <point x="478" y="705"/>
      <point x="541" y="712" type="qcurve"/>
      <point x="483" y="720"/>
      <point x="403" y="762"/>
      <point x="358" y="827"/>
      <point x="346" y="912"/>
      <point x="355" y="964" type="qcurve" smooth="yes"/>
      <point x="387" y="1146" type="line" smooth="yes"/>
      <point x="398" y="1208"/>
      <point x="455" y="1307"/>
      <point x="547" y="1376"/>
      <point x="673" y="1414"/>
      <point x="752" y="1414" type="qcurve" smooth="yes"/>
      <point x="2188" y="1414" type="line" smooth="yes"/>
      <point x="2268" y="1414"/>
      <point x="2380" y="1376"/>
      <point x="2448" y="1307"/>
      <point x="2470" y="1208"/>
      <point x="2459" y="1146" type="qcurve" smooth="yes"/>
      <point x="2427" y="964" type="line" smooth="yes"/>
      <point x="2418" y="912"/>
      <point x="2376" y="827"/>
      <point x="2308" y="762"/>
      <point x="2214" y="720"/>
      <point x="2153" y="712" type="qcurve"/>
      <point x="2214" y="705"/>
      <point x="2306" y="675"/>
      <point x="2362" y="618"/>
      <point x="2381" y="526"/>
      <point x="2369" y="458" type="qcurve" smooth="yes"/>
      <point x="2335" y="266" type="line" smooth="yes"/>
      <point x="2321" y="186"/>
      <point x="2252" y="78"/>
      <point x="2150" y="13"/>
      <point x="2022" y="-14"/>
      <point x="1949" y="-14" type="qcurve" smooth="yes"/>
      <point x="493" y="-14" type="line" smooth="yes"/>
      <point x="421" y="-14"/>
      <point x="302" y="13"/>
      <point x="222" y="78"/>
      <point x="189" y="186"/>
      <point x="203" y="266" type="qcurve"/>
    </contour>
  </outline>
</glyph>
<glyph name="nine" format="2">
  <advance width="2537"/>
  <unicode hex="0039"/>
  <outline>
    <contour>
      <point x="1341" y="1414" type="line"/>
      <point x="1123" y="1414"/>
      <point x="813" y="1407"/>
      <point x="600" y="1381"/>
      <point x="469" y="1330"/>
      <point x="392" y="1243"/>
      <point x="352" y="1113"/>
      <point x="336" y="1020" type="qcurve" smooth="yes"/>
      <point x="319" y="917"/>
      <point x="323" y="767"/>
      <point x="382" y="663"/>
      <point x="504" y="600"/>
      <point x="705" y="566"/>
      <point x="992" y="554"/>
      <point x="1187" y="554" type="qcurve" smooth="yes"/>
      <point x="1379" y="554"/>
      <point x="1678" y="571"/>
      <point x="1899" y="597"/>
      <point x="2043" y="630"/>
      <point x="2079" y="646" type="qcurve"/>
      <point x="2117" y="866" type="line"/>
      <point x="2057" y="848"/>
      <point x="1887" y="821"/>
      <point x="1669" y="803"/>
      <point x="1406" y="794"/>
      <point x="1253" y="794" type="qcurve" smooth="yes"/>
      <point x="1100" y="794"/>
      <point x="879" y="797"/>
      <point x="727" y="810"/>
      <point x="638" y="835"/>
      <point x="594" y="878"/>
      <point x="587" y="941"/>
      <point x="595" y="986" type="qcurve" smooth="yes"/>
      <point x="603" y="1029"/>
      <point x="630" y="1091"/>
      <point x="691" y="1134"/>
      <point x="795" y="1161"/>
      <point x="963" y="1175"/>
      <point x="1205" y="1180"/>
      <point x="1374" y="1180" type="qcurve" smooth="yes"/>
      <point x="1530" y="1180"/>
      <point x="1752" y="1172"/>
      <point x="1901" y="1151"/>
      <point x="1987" y="1115"/>
      <point x="2026" y="1059"/>
      <point x="2028" y="982"/>
      <point x="2019" y="930" type="qcurve" smooth="yes"/>
      <point x="1996" y="800"/>
      <point x="1909" y="593"/>
      <point x="1773" y="437"/>
      <point x="1587" y="326"/>
      <point x="1343" y="256"/>
      <point x="1040" y="224"/>
      <point x="855" y="224" type="qcurve" smooth="yes"/>
      <point x="796" y="224"/>
      <point x="649" y="228"/>
      <point x="513" y="234"/>
      <point x="408" y="240"/>
      <point x="391" y="242" type="qcurve"/>
      <point x="521" y="-2" type="line"/>
      <point x="541" y="-4"/>
      <point x="622" y="-9"/>
      <point x="724" y="-12"/>
      <point x="834" y="-14"/>
      <point x="882" y="-14" type="qcurve" smooth="yes"/>
      <point x="1088" y="-14"/>
      <point x="1440" y="28"/>
      <point x="1731" y="118"/>
      <point x="1962" y="258"/>
      <point x="2133" y="452"/>
      <point x="2247" y="705"/>
      <point x="2274" y="862" type="qcurve" smooth="yes"/>
      <point x="2295" y="981"/>
      <point x="2290" y="1154"/>
      <point x="2224" y="1277"/>
      <point x="2088" y="1354"/>
      <point x="1867" y="1398"/>
      <point x="1553" y="1414"/>
      <point x="1341" y="1414" type="qcurve"/>
    </contour>
  </outline>
</glyph>
<glyph name="colon" format="2">
  <advance width="871"/>
  <unicode hex="003A"/>
  <outline>
    <contour>
      <point x="177" y="111" type="line"/>
      <point x="191" y="190" type="line" smooth="yes"/>
      <point x="199" y="233"/>
      <point x="211" y="280"/>
      <point x="238" y="303"/>
      <point x="287" y="307"/>
      <point x="331" y="307" type="qcurve" smooth="yes"/>
      <point x="407" y="307" type="line" smooth="yes"/>
      <point x="451" y="307"/>
      <point x="498" y="303"/>
      <point x="517" y="280"/>
      <point x="514" y="233"/>
      <point x="506" y="190" type="qcurve" smooth="yes"/>
      <point x="492" y="111" type="line" smooth="yes"/>
      <point x="485" y="67"/>
      <point x="472" y="19"/>
      <point x="445" y="-4"/>
      <point x="396" y="-8"/>
      <point x="352" y="-8" type="qcurve" smooth="yes"/>
      <point x="276" y="-8" type="line" smooth="yes"/>
      <point x="232" y="-8"/>
      <point x="185" y="-4"/>
      <point x="166" y="19"/>
      <point x="170" y="67"/>
      <point x="177" y="111" type="qcurve"/>
    </contour>
    <contour>
      <point x="300" y="814" type="line"/>
      <point x="314" y="893" type="line" smooth="yes"/>
      <point x="322" y="936"/>
      <point x="334" y="983"/>
      <point x="360" y="1006"/>
      <point x="409" y="1010"/>
      <point x="453" y="1010" type="qcurve" smooth="yes"/>
      <point x="529" y="1010" type="line" smooth="yes"/>
      <point x="573" y="1010"/>
      <point x="621" y="1006"/>
      <point x="640" y="983"/>
      <point x="637" y="936"/>
      <point x="629" y="893" type="qcurve" smooth="yes"/>
      <point x="615" y="814" type="line" smooth="yes"/>
      <point x="608" y="770"/>
      <point x="594" y="722"/>
      <point x="567" y="699"/>
      <point x="518" y="695"/>
      <point x="474" y="695" type="qcurve" smooth="yes"/>
      <point x="398" y="695" type="line" smooth="yes"/>
      <point x="354" y="695"/>
      <point x="307" y="699"/>
      <point x="288" y="722"/>
      <point x="293" y="770"/>
      <point x="300" y="814" type="qcurve"/>
    </contour>
  </outline>
</glyph>
<glyph name="less" format="2">
  <advance width="1881"/>
  <unicode hex="003C"/>
  <outline>
    <contour>
      <point x="1559.07" y="0" type="line"/>
      <point x="1597.07" y="218" type="line"/>
      <point x="480.074" y="597" type="line"/>
      <point x="476.074" y="572" type="line"/>
      <point x="1725.07" y="952" type="line"/>
      <point x="1763.07" y="1168" type="line"/>
      <point x="200.074" y="683" type="line"/>
      <point x="166.074" y="485" type="line"/>
    </contour>
  </outline>
</glyph>
<glyph name="equal" format="2">
  <advance width="1884.46"/>
  <unicode hex="003D"/>
  <outline>
    <contour>
      <point x="208" y="723" type="line"/>
      <point x="244" y="931" type="line"/>
      <point x="1722" y="931" type="line"/>
      <point x="1686" y="723" type="line"/>
    </contour>
    <contour>
      <point x="128" y="243" type="line"/>
      <point x="164" y="451" type="line"/>
      <point x="1642" y="451" type="line"/>
      <point x="1606" y="243" type="line"/>
    </contour>
  </outline>
</glyph>
<glyph name="question" format="2">
  <advance width="1952"/>
  <unicode hex="003F"/>
  <outline>
    <contour>
      <point x="754.541" y="462" type="line"/>
      <point x="778.541" y="601" type="line" smooth="yes"/>
      <point x="786.541" y="644"/>
      <point x="820.541" y="713"/>
      <point x="876.541" y="765"/>
      <point x="957.541" y="802"/>
      <point x="1011.54" y="812" type="qcurve" smooth="yes"/>
      <point x="1416.54" y="890" type="line" smooth="yes"/>
      <point x="1448.54" y="896"/>
      <point x="1490.54" y="914"/>
      <point x="1518.54" y="945"/>
      <point x="1534.54" y="994"/>
      <point x="1541.54" y="1032" type="qcurve" smooth="yes"/>
      <point x="1569.54" y="1190" type="line"/>
      <point x="1569.54" y="1190"/>
      <point x="1569.54" y="1190"/>
      <point x="1569.54" y="1190"/>
      <point x="1569.54" y="1190"/>
      <point x="1569.54" y="1190" type="qcurve"/>
      <point x="469.541" y="1190" type="line"/>
      <point x="469.541" y="1190"/>
      <point x="469.541" y="1190"/>
      <point x="469.541" y="1190"/>
      <point x="469.541" y="1190"/>
      <point x="469.541" y="1190" type="qcurve"/>
      <point x="433.541" y="986" type="line"/>
      <point x="215.541" y="1032" type="line"/>
      <point x="239.541" y="1166" type="line" smooth="yes"/>
      <point x="250.541" y="1232"/>
      <point x="302.541" y="1326"/>
      <point x="390.541" y="1386"/>
      <point x="515.541" y="1414"/>
      <point x="600.541" y="1414" type="qcurve" smooth="yes"/>
      <point x="1514.54" y="1414" type="line" smooth="yes"/>
      <point x="1600.54" y="1414"/>
      <point x="1716.54" y="1387"/>
      <point x="1782.54" y="1327"/>
      <point x="1801.54" y="1233"/>
      <point x="1789.54" y="1166" type="qcurve" smooth="yes"/>
      <point x="1749.54" y="939" type="line" smooth="yes"/>
      <point x="1740.54" y="887"/>
      <point x="1697.54" y="807"/>
      <point x="1624.54" y="748"/>
      <point x="1517.54" y="706"/>
      <point x="1443.54" y="692" type="qcurve" smooth="yes"/>
      <point x="1080.54" y="622" type="line" smooth="yes"/>
      <point x="1055.54" y="617"/>
      <point x="1023.54" y="601"/>
      <point x="1003.54" y="578"/>
      <point x="993.541" y="549"/>
      <point x="990.541" y="532" type="qcurve" smooth="yes"/>
      <point x="978.541" y="462" type="line"/>
    </contour>
    <contour>
      <point x="645.541" y="111" type="line"/>
      <point x="659.541" y="190" type="line" smooth="yes"/>
      <point x="667.541" y="233"/>
      <point x="679.541" y="280"/>
      <point x="706.541" y="303"/>
      <point x="755.541" y="307"/>
      <point x="799.541" y="307" type="qcurve" smooth="yes"/>
      <point x="875.541" y="307" type="line" smooth="yes"/>
      <point x="919.541" y="307"/>
      <point x="966.541" y="303"/>
      <point x="985.541" y="280"/>
      <point x="982.541" y="233"/>
      <point x="974.541" y="190" type="qcurve" smooth="yes"/>
      <point x="960.541" y="111" type="line" smooth="yes"/>
      <point x="953.541" y="67"/>
      <point x="940.541" y="19"/>
      <point x="913.541" y="-4"/>
      <point x="864.541" y="-8"/>
      <point x="820.541" y="-8" type="qcurve" smooth="yes"/>
      <point x="744.541" y="-8" type="line" smooth="yes"/>
      <point x="700.541" y="-8"/>
      <point x="653.541" y="-4"/>
      <point x="634.541" y="19"/>
      <point x="638.541" y="67"/>
      <point x="645.541" y="111" type="qcurve"/>
    </contour>
  </outline>
</glyph>
<glyph name="at" format="2">
  <advance width="2770.59" height="1020.84"/>
  <unicode hex="0040"/>
  <outline>
    <contour>
      <point x="188.891" y="94" type="line"/>
      <point x="339.891" y="957" type="line" smooth="yes"/>
      <point x="354.891" y="1042"/>
      <point x="422.891" y="1148"/>
      <point x="522.891" y="1208"/>
      <point x="651.891" y="1229"/>
      <point x="726.891" y="1229" type="qcurve" smooth="yes"/>
      <point x="2230.89" y="1229" type="line" smooth="yes"/>
      <point x="2305.89" y="1229"/>
      <point x="2426.89" y="1208"/>
      <point x="2506.89" y="1148"/>
      <point x="2538.89" y="1042"/>
      <point x="2523.89" y="957" type="qcurve" smooth="yes"/>
      <point x="2422.89" y="376" type="line" smooth="yes"/>
      <point x="2407.89" y="288"/>
      <point x="2343.89" y="184"/>
      <point x="2257.89" y="129"/>
      <point x="2153.89" y="113"/>
      <point x="2096.89" y="113" type="qcurve" smooth="yes"/>
      <point x="1949.89" y="113" type="line" smooth="yes"/>
      <point x="1896.89" y="113"/>
      <point x="1802.89" y="139"/>
      <point x="1734.89" y="182"/>
      <point x="1698.89" y="240"/>
      <point x="1703.89" y="272" type="qcurve"/>
      <point x="1689.89" y="240"/>
      <point x="1646.89" y="197"/>
      <point x="1592.89" y="171"/>
      <point x="1530.89" y="160"/>
      <point x="1497.89" y="160" type="qcurve" smooth="yes"/>
      <point x="855.891" y="160" type="line" smooth="yes"/>
      <point x="804.891" y="160"/>
      <point x="736.891" y="178"/>
      <point x="697.891" y="217"/>
      <point x="687.891" y="277"/>
      <point x="694.891" y="320" type="qcurve" smooth="yes"/>
      <point x="765.891" y="726" type="line" smooth="yes"/>
      <point x="772.891" y="766"/>
      <point x="803.891" y="824"/>
      <point x="856.891" y="861"/>
      <point x="930.891" y="879"/>
      <point x="980.891" y="879" type="qcurve" smooth="yes"/>
      <point x="1635.89" y="879" type="line" smooth="yes"/>
      <point x="1707.89" y="879"/>
      <point x="1786.89" y="841"/>
      <point x="1796.89" y="801" type="qcurve"/>
      <point x="1808.89" y="872" type="line"/>
      <point x="2031.89" y="872" type="line"/>
      <point x="1941.89" y="355" type="line" smooth="yes"/>
      <point x="1937.89" y="334"/>
      <point x="1942.89" y="306"/>
      <point x="1959.89" y="288"/>
      <point x="1987.89" y="280"/>
      <point x="2006.89" y="280" type="qcurve" smooth="yes"/>
      <point x="2134.89" y="280" type="line" smooth="yes"/>
      <point x="2153.89" y="280"/>
      <point x="2184.89" y="288"/>
      <point x="2207.89" y="306"/>
      <point x="2222.89" y="334"/>
      <point x="2226.89" y="355" type="qcurve" smooth="yes"/>
      <point x="2331.89" y="957" type="line" smooth="yes"/>
      <point x="2335.89" y="980"/>
      <point x="2330.89" y="1018"/>
      <point x="2302.89" y="1045"/>
      <point x="2246.89" y="1060"/>
      <point x="2200.89" y="1060" type="qcurve" smooth="yes"/>
      <point x="696.891" y="1060" type="line" smooth="yes"/>
      <point x="663.891" y="1060"/>
      <point x="608.891" y="1052"/>
      <point x="565.891" y="1029"/>
      <point x="537.891" y="989"/>
      <point x="531.891" y="957" type="qcurve" smooth="yes"/>
      <point x="380.891" y="94" type="line" smooth="yes"/>
      <point x="376.891" y="69"/>
      <point x="381.891" y="27"/>
      <point x="408.891" y="-4"/>
      <point x="462.891" y="-20"/>
      <point x="508.891" y="-20" type="qcurve" smooth="yes"/>
      <point x="2171.89" y="-20" type="line"/>
      <point x="2141.89" y="-189" type="line"/>
      <point x="478.891" y="-189" type="line" smooth="yes"/>
      <point x="399.891" y="-189"/>
      <point x="277.891" y="-166"/>
      <point x="200.891" y="-103"/>
      <point x="173.891" y="7"/>
      <point x="188.891" y="94" type="qcurve"/>
    </contour>
    <contour>
      <point x="925.891" y="347" type="line"/>
      <point x="925.891" y="347"/>
      <point x="925.891" y="347"/>
      <point x="925.891" y="347" type="qcurve"/>
      <point x="1717.89" y="347" type="line"/>
      <point x="1717.89" y="347"/>
      <point x="1717.89" y="347"/>
      <point x="1717.89" y="347" type="qcurve"/>
      <point x="1777.89" y="691" type="line"/>
      <point x="985.891" y="691" type="line"/>
      <point x="985.891" y="691"/>
      <point x="985.891" y="691"/>
      <point x="985.891" y="691" type="qcurve"/>
    </contour>
  </outline>
  <guideline angle="0" x="0" y="517"/>
</glyph>
<glyph name="A" format="2">
  <advance width="2696" height="1448"/>
  <unicode hex="0041"/>
  <anchor x="1495" y="1550" name="top"/>
  <anchor x="1202" y="-150" name="bottom"/>
  <anchor x="2245" y="0" name="ogonek_in"/>
  <outline>
    <contour>
      <point x="-120" y="0" type="line"/>
      <point x="1371" y="1400" type="line"/>
      <point x="1565" y="1400" type="line"/>
      <point x="2576" y="0" type="line"/>
      <point x="2245" y="0" type="line"/>
      <point x="2011" y="326" type="line"/>
      <point x="574" y="326" type="line"/>
      <point x="227" y="0" type="line"/>
    </contour>
    <contour>
      <point x="830" y="566" type="line"/>
      <point x="1838" y="566" type="line"/>
      <point x="1431" y="1131" type="line"/>
    </contour>
  </outline>
</glyph>
<glyph name="B" format="2">
  <advance width="2835.63"/>
  <unicode hex="0042"/>
  <anchor x="1418" y="1550" name="top"/>
  <anchor x="1418" y="-150" name="bottom"/>
  <outline>
    <contour>
      <point x="190" y="0" type="line"/>
      <point x="2128" y="0" type="line" smooth="yes"/>
      <point x="2204" y="0"/>
      <point x="2334" y="24"/>
      <point x="2438" y="92"/>
      <point x="2510" y="215"/>
      <point x="2527" y="314" type="qcurve" smooth="yes"/>
      <point x="2545" y="420" type="line" smooth="yes"/>
      <point x="2556" y="483"/>
      <point x="2549" y="584"/>
      <point x="2512" y="661"/>
      <point x="2443" y="712"/>
      <point x="2391" y="724" type="qcurve"/>
      <point x="2442" y="738"/>
      <point x="2522" y="787"/>
      <point x="2582" y="855"/>
      <point x="2621" y="943"/>
      <point x="2630" y="997" type="qcurve" smooth="yes"/>
      <point x="2647" y="1094" type="line" smooth="yes"/>
      <point x="2664" y="1190"/>
      <point x="2634" y="1310"/>
      <point x="2554" y="1377"/>
      <point x="2432" y="1400"/>
      <point x="2356" y="1400" type="qcurve" smooth="yes"/>
      <point x="434" y="1400" type="line"/>
    </contour>
    <contour>
      <point x="497" y="244" type="line"/>
      <point x="558" y="598" type="line"/>
      <point x="2206" y="598" type="line" smooth="yes"/>
      <point x="2259" y="598"/>
      <point x="2306" y="557"/>
      <point x="2295" y="498" type="qcurve" smooth="yes"/>
      <point x="2268" y="343" type="line" smooth="yes"/>
      <point x="2264" y="318"/>
      <point x="2244" y="280"/>
      <point x="2213" y="256"/>
      <point x="2171" y="244"/>
      <point x="2145" y="244" type="qcurve" smooth="yes"/>
    </contour>
    <contour>
      <point x="600" y="835" type="line"/>
      <point x="656" y="1156" type="line"/>
      <point x="2288" y="1156" type="line" smooth="yes"/>
      <point x="2314" y="1156"/>
      <point x="2352" y="1144"/>
      <point x="2374" y="1120"/>
      <point x="2381" y="1083"/>
      <point x="2376" y="1057" type="qcurve"/>
      <point x="2355" y="935" type="line" smooth="yes"/>
      <point x="2350" y="906"/>
      <point x="2330" y="867"/>
      <point x="2300" y="844"/>
      <point x="2258" y="835"/>
      <point x="2232" y="835" type="qcurve" smooth="yes"/>
    </contour>
  </outline>
</glyph>
<glyph name="C" format="2">
  <advance width="2720" height="1448"/>
  <unicode hex="0043"/>
  <anchor x="1511" y="1550" name="top"/>
  <anchor x="1214" y="-150" name="bottom"/>
  <outline>
    <contour>
      <point x="372" y="1140" type="line"/>
      <point x="220" y="272" type="line" smooth="yes"/>
      <point x="207" y="195"/>
      <point x="225" y="86"/>
      <point x="294" y="17"/>
      <point x="419" y="-14"/>
      <point x="512" y="-14" type="qcurve" smooth="yes"/>
      <point x="2004" y="-14" type="line" smooth="yes"/>
      <point x="2097" y="-14"/>
      <point x="2233" y="17"/>
      <point x="2328" y="86"/>
      <point x="2385" y="195"/>
      <point x="2398" y="272" type="qcurve" smooth="yes"/>
      <point x="2434" y="478" type="line"/>
      <point x="2179" y="530" type="line"/>
      <point x="2127" y="230" type="line"/>
      <point x="2127" y="230"/>
      <point x="2127" y="230"/>
      <point x="2127" y="230"/>
      <point x="2127" y="230"/>
      <point x="2127" y="230" type="qcurve"/>
      <point x="477" y="230" type="line"/>
      <point x="477" y="230"/>
      <point x="477" y="230"/>
      <point x="477" y="230"/>
      <point x="477" y="230"/>
      <point x="477" y="230" type="qcurve"/>
      <point x="641" y="1170" type="line"/>
      <point x="641" y="1170"/>
      <point x="641" y="1170"/>
      <point x="641" y="1170"/>
      <point x="641" y="1170"/>
      <point x="641" y="1170" type="qcurve"/>
      <point x="2283" y="1170" type="line"/>
      <point x="2283" y="1170"/>
      <point x="2283" y="1170"/>
      <point x="2283" y="1170"/>
      <point x="2283" y="1170"/>
      <point x="2283" y="1170" type="qcurve"/>
      <point x="2235" y="896" type="line"/>
      <point x="2508" y="944" type="line"/>
      <point x="2542" y="1140" type="line" smooth="yes"/>
      <point x="2555" y="1214"/>
      <point x="2535" y="1318"/>
      <point x="2463" y="1384"/>
      <point x="2338" y="1414"/>
      <point x="2246" y="1414" type="qcurve" smooth="yes"/>
      <point x="762" y="1414" type="line" smooth="yes"/>
      <point x="671" y="1414"/>
      <point x="535" y="1384"/>
      <point x="441" y="1318"/>
      <point x="385" y="1214"/>
      <point x="372" y="1140" type="qcurve"/>
    </contour>
  </outline>
</glyph>
<glyph name="D" format="2">
  <advance width="2924"/>
  <unicode hex="0044"/>
  <anchor x="1476" y="1550" name="top"/>
  <anchor x="1177" y="-150" name="bottom"/>
  <outline>
    <contour>
      <point x="496.278" y="244" type="line"/>
      <point x="1756.28" y="244" type="line" smooth="yes"/>
      <point x="1854.28" y="244"/>
      <point x="2020.59" y="263"/>
      <point x="2160.27" y="307"/>
      <point x="2272.84" y="379"/>
      <point x="2357.98" y="483"/>
      <point x="2416.24" y="622"/>
      <point x="2431.94" y="712" type="qcurve" smooth="yes"/>
      <point x="2446.43" y="795"/>
      <point x="2433.94" y="924"/>
      <point x="2382.21" y="1023"/>
      <point x="2293.25" y="1092"/>
      <point x="2168.93" y="1136"/>
      <point x="2010.42" y="1156"/>
      <point x="1915.42" y="1156" type="qcurve" smooth="yes"/>
      <point x="655.422" y="1156" type="line"/>
    </contour>
    <contour>
      <point x="189.7" y="0" type="line"/>
      <point x="434" y="1400" type="line"/>
      <point x="1966" y="1400" type="line" smooth="yes"/>
      <point x="2097" y="1400"/>
      <point x="2320.54" y="1363"/>
      <point x="2499.28" y="1287"/>
      <point x="2630.21" y="1172"/>
      <point x="2707.99" y="1016"/>
      <point x="2728.62" y="819"/>
      <point x="2707.85" y="700" type="qcurve" smooth="yes"/>
      <point x="2685.34" y="571"/>
      <point x="2590.74" y="367"/>
      <point x="2453.52" y="211"/>
      <point x="2279.5" y="102"/>
      <point x="2075.28" y="32"/>
      <point x="1845.7" y="0"/>
      <point x="1721.7" y="0" type="qcurve" smooth="yes"/>
    </contour>
  </outline>
  <guideline y="1549"/>
  <guideline y="1325"/>
  <guideline y="73"/>
</glyph>
<glyph name="E" format="2">
  <advance width="2487.99"/>
  <unicode hex="0045"/>
  <anchor x="1470" y="1550" name="top"/>
  <anchor x="1173" y="-150" name="bottom"/>
  <anchor x="2099" y="0" name="ogonek"/>
  <outline>
    <contour>
      <point x="190" y="0" type="line"/>
      <point x="434" y="1400" type="line"/>
      <point x="2418" y="1400" type="line"/>
      <point x="2376" y="1156" type="line"/>
      <point x="656" y="1156" type="line"/>
      <point x="601" y="840" type="line"/>
      <point x="1639" y="840" type="line"/>
      <point x="1596" y="596" type="line"/>
      <point x="558" y="596" type="line"/>
      <point x="497" y="244" type="line"/>
      <point x="2251" y="244" type="line"/>
      <point x="2208" y="0" type="line"/>
    </contour>
  </outline>
  <guideline angle="90" x="-280" y="0"/>
</glyph>
<glyph name="F" format="2">
  <advance width="2314"/>
  <unicode hex="0046"/>
  <outline>
    <contour>
      <point x="80" y="0" type="line"/>
      <point x="324" y="1400" type="line"/>
      <point x="2280" y="1400" type="line"/>
      <point x="2238" y="1156" type="line"/>
      <point x="546" y="1156" type="line"/>
      <point x="490" y="834" type="line"/>
      <point x="1528" y="834" type="line"/>
      <point x="1485" y="590" type="line"/>
      <point x="447" y="590" type="line"/>
      <point x="344" y="0" type="line"/>
    </contour>
  </outline>
</glyph>
<glyph name="G" format="2">
  <advance width="2854.2" height="1448"/>
  <unicode hex="0047"/>
  <anchor x="1583" y="1564" name="top"/>
  <anchor x="1281" y="-164" name="bottom"/>
  <outline>
    <contour>
      <point x="372.157" y="1140" type="line"/>
      <point x="220.157" y="272" type="line" smooth="yes"/>
      <point x="207.157" y="195"/>
      <point x="225.157" y="86"/>
      <point x="294.157" y="17"/>
      <point x="419.157" y="-14"/>
      <point x="512.157" y="-14" type="qcurve" smooth="yes"/>
      <point x="2104.16" y="-14" type="line" smooth="yes"/>
      <point x="2197.16" y="-14"/>
      <point x="2333.16" y="17"/>
      <point x="2428.16" y="86"/>
      <point x="2485.16" y="195"/>
      <point x="2498.16" y="272" type="qcurve" smooth="yes"/>
      <point x="2591.16" y="806" type="line"/>
      <point x="1451.16" y="806" type="line"/>
      <point x="1409.16" y="562" type="line"/>
      <point x="2285.16" y="562" type="line"/>
      <point x="2227.16" y="230" type="line"/>
      <point x="2227.16" y="230"/>
      <point x="2227.16" y="230"/>
      <point x="2227.16" y="230"/>
      <point x="2227.16" y="230"/>
      <point x="2227.16" y="230" type="qcurve"/>
      <point x="477.157" y="230" type="line"/>
      <point x="477.157" y="230"/>
      <point x="477.157" y="230"/>
      <point x="477.157" y="230"/>
      <point x="477.157" y="230"/>
      <point x="477.157" y="230" type="qcurve"/>
      <point x="641.157" y="1170" type="line"/>
      <point x="641.157" y="1170"/>
      <point x="641.157" y="1170"/>
      <point x="641.157" y="1170"/>
      <point x="641.157" y="1170"/>
      <point x="641.157" y="1170" type="qcurve"/>
      <point x="2383.16" y="1170" type="line"/>
      <point x="2383.16" y="1170"/>
      <point x="2383.16" y="1170"/>
      <point x="2383.16" y="1170"/>
      <point x="2383.16" y="1170"/>
      <point x="2383.16" y="1170" type="qcurve"/>
      <point x="2350.16" y="980" type="line"/>
      <point x="2624.16" y="1036" type="line"/>
      <point x="2642.16" y="1140" type="line" smooth="yes"/>
      <point x="2655.16" y="1214"/>
      <point x="2635.16" y="1318"/>
      <point x="2563.16" y="1384"/>
      <point x="2438.16" y="1414"/>
      <point x="2346.16" y="1414" type="qcurve" smooth="yes"/>
      <point x="762.157" y="1414" type="line" smooth="yes"/>
      <point x="671.157" y="1414"/>
      <point x="535.157" y="1384"/>
      <point x="441.157" y="1318"/>
      <point x="385.157" y="1214"/>
      <point x="372.157" y="1140" type="qcurve"/>
    </contour>
  </outline>
  <guideline angle="0" x="0" y="562"/>
  <guideline angle="0" x="0" y="1036"/>
  <guideline angle="0" x="0" y="980"/>
  <guideline angle="0" x="0" y="806"/>
  <guideline angle="0" x="0" y="700"/>
  <guideline angle="0" x="0" y="906"/>
  <guideline angle="0" x="0" y="494"/>
</glyph>
<glyph name="I" format="2">
  <advance width="884" height="1448"/>
  <unicode hex="0049"/>
  <anchor x="593" y="1550" name="top"/>
  <anchor x="296" y="-150" name="bottom"/>
  <anchor x="455" y="0" name="ogonek"/>
  <outline>
    <contour>
      <point x="190" y="0" type="line"/>
      <point x="434" y="1400" type="line"/>
      <point x="698" y="1400" type="line"/>
      <point x="454" y="0" type="line"/>
    </contour>
  </outline>
</glyph>
<glyph name="J" format="2">
  <advance width="2381.16" height="1448"/>
  <unicode hex="004A"/>
  <anchor x="2098" y="1550" name="top"/>
  <anchor x="907" y="-150" name="bottom"/>
  <outline>
    <contour>
      <point x="2204" y="1400" type="line"/>
      <point x="1940" y="1400" type="line"/>
      <point x="1736" y="230" type="line"/>
      <point x="1736" y="230"/>
      <point x="1736" y="230"/>
      <point x="1736" y="230"/>
      <point x="1736" y="230"/>
      <point x="1736" y="230" type="qcurve"/>
      <point x="326" y="230" type="line"/>
      <point x="326" y="230"/>
      <point x="326" y="230"/>
      <point x="326" y="230"/>
      <point x="326" y="230"/>
      <point x="326" y="230" type="qcurve"/>
      <point x="398" y="644" type="line"/>
      <point x="125" y="596" type="line"/>
      <point x="67" y="260" type="line" smooth="yes"/>
      <point x="54" y="187"/>
      <point x="74" y="83"/>
      <point x="146" y="17"/>
      <point x="271" y="-14"/>
      <point x="363" y="-14" type="qcurve" smooth="yes"/>
      <point x="1615" y="-14" type="line" smooth="yes"/>
      <point x="1707" y="-14"/>
      <point x="1842" y="17"/>
      <point x="1936" y="83"/>
      <point x="1992" y="187"/>
      <point x="2005" y="260" type="qcurve" smooth="yes"/>
    </contour>
  </outline>
</glyph>
<glyph name="K" format="2">
  <advance width="2637" height="1448"/>
  <unicode hex="004B"/>
  <anchor x="1474" y="1550" name="top"/>
  <anchor x="1327" y="-150" name="bottom"/>
  <outline>
    <contour>
      <point x="190" y="0" type="line"/>
      <point x="454" y="0" type="line"/>
      <point x="573" y="685" type="line"/>
      <point x="503" y="685" type="line"/>
      <point x="1987" y="0" type="line"/>
      <point x="2517" y="0" type="line"/>
      <point x="904" y="744" type="line"/>
      <point x="904" y="717" type="line"/>
      <point x="2513" y="1400" type="line"/>
      <point x="2044" y="1400" type="line"/>
      <point x="440" y="717" type="line"/>
      <point x="586" y="760" type="line"/>
      <point x="698" y="1400" type="line"/>
      <point x="434" y="1400" type="line"/>
    </contour>
  </outline>
</glyph>
<glyph name="L" format="2">
  <advance width="2230"/>
  <unicode hex="004C"/>
  <anchor x="593" y="1550" name="top"/>
  <anchor x="1069" y="-150" name="bottom"/>
  <anchor x="212" y="700" name="left"/>
  <anchor x="1798" y="1400" name="right"/>
  <anchor x="1559" y="700" name="eldot"/>
  <outline>
    <contour>
      <point x="190" y="0" type="line"/>
      <point x="434" y="1400" type="line"/>
      <point x="698" y="1400" type="line"/>
      <point x="497" y="244" type="line"/>
      <point x="2143" y="244" type="line"/>
      <point x="2100" y="0" type="line"/>
    </contour>
  </outline>
</glyph>
<glyph name="M" format="2">
  <advance width="3192"/>
  <unicode hex="004D"/>
  <anchor x="1747" y="1550" name="top"/>
  <anchor x="1450" y="-150" name="bottom"/>
  <outline>
    <contour>
      <point x="190" y="0" type="line"/>
      <point x="426" y="0" type="line"/>
      <point x="609" y="1048" type="line"/>
      <point x="1506" y="150" type="line"/>
      <point x="2686" y="1080" type="line"/>
      <point x="2498" y="0" type="line"/>
      <point x="2762" y="0" type="line"/>
      <point x="3006" y="1400" type="line"/>
      <point x="2758" y="1400" type="line"/>
      <point x="1583" y="473" type="line"/>
      <point x="654" y="1400" type="line"/>
      <point x="434" y="1400" type="line"/>
    </contour>
  </outline>
</glyph>
<glyph name="O" format="2">
  <advance width="2962.2" height="1448"/>
  <unicode hex="004F"/>
  <anchor x="1662" y="1564" name="top"/>
  <anchor x="1363" y="-164" name="bottom"/>
  <anchor x="2748" y="1140" name="horn"/>
  <anchor x="1497" y="0" name="ogonek"/>
  <outline>
    <contour>
      <point x="372.155" y="1140" type="line"/>
      <point x="220.155" y="272" type="line" smooth="yes"/>
      <point x="205.155" y="184"/>
      <point x="232.155" y="73"/>
      <point x="309.155" y="10"/>
      <point x="432.155" y="-14"/>
      <point x="512.155" y="-14" type="qcurve" smooth="yes"/>
      <point x="2202.16" y="-14" type="line" smooth="yes"/>
      <point x="2282.16" y="-14"/>
      <point x="2414.16" y="9"/>
      <point x="2514.16" y="72"/>
      <point x="2581.16" y="184"/>
      <point x="2596.16" y="272" type="qcurve" smooth="yes"/>
      <point x="2748.16" y="1140" type="line" smooth="yes"/>
      <point x="2763.16" y="1226"/>
      <point x="2731.16" y="1333"/>
      <point x="2650.16" y="1393"/>
      <point x="2528.16" y="1414"/>
      <point x="2452.16" y="1414" type="qcurve" smooth="yes"/>
      <point x="762.155" y="1414" type="line" smooth="yes"/>
      <point x="686.155" y="1414"/>
      <point x="557.155" y="1393"/>
      <point x="456.155" y="1333"/>
      <point x="387.155" y="1226"/>
      <point x="372.155" y="1140" type="qcurve"/>
    </contour>
    <contour>
      <point x="641.155" y="1170" type="line"/>
      <point x="641.155" y="1170"/>
      <point x="641.155" y="1170"/>
      <point x="641.155" y="1170"/>
      <point x="641.155" y="1170"/>
      <point x="641.155" y="1170" type="qcurve"/>
      <point x="2489.16" y="1170" type="line"/>
      <point x="2489.16" y="1170"/>
      <point x="2489.16" y="1170"/>
      <point x="2489.16" y="1170"/>
      <point x="2489.16" y="1170"/>
      <point x="2489.16" y="1170" type="qcurve"/>
      <point x="2325.16" y="230" type="line"/>
      <point x="2325.16" y="230"/>
      <point x="2325.16" y="230"/>
      <point x="2325.16" y="230"/>
      <point x="2325.16" y="230"/>
      <point x="2325.16" y="230" type="qcurve"/>
      <point x="477.155" y="230" type="line"/>
      <point x="477.155" y="230"/>
      <point x="477.155" y="230"/>
      <point x="477.155" y="230"/>
      <point x="477.155" y="230"/>
      <point x="477.155" y="230" type="qcurve"/>
    </contour>
  </outline>
</glyph>
<glyph name="P" format="2">
  <advance width="2765.05"/>
  <unicode hex="0050"/>
  <outline>
    <contour>
      <point x="190" y="0" type="line"/>
      <point x="454" y="0" type="line"/>
      <point x="546" y="528" type="line"/>
      <point x="2220" y="528" type="line" smooth="yes"/>
      <point x="2306" y="528"/>
      <point x="2441" y="560"/>
      <point x="2538" y="625"/>
      <point x="2598" y="723"/>
      <point x="2610" y="788" type="qcurve" smooth="yes"/>
      <point x="2669" y="1126" type="line" smooth="yes"/>
      <point x="2684" y="1212"/>
      <point x="2651" y="1319"/>
      <point x="2570" y="1379"/>
      <point x="2448" y="1400"/>
      <point x="2372" y="1400" type="qcurve" smooth="yes"/>
      <point x="434" y="1400" type="line"/>
    </contour>
    <contour>
      <point x="589" y="772" type="line"/>
      <point x="656" y="1156" type="line"/>
      <point x="2304" y="1156" type="line" smooth="yes"/>
      <point x="2330" y="1156"/>
      <point x="2368" y="1144"/>
      <point x="2390" y="1120"/>
      <point x="2397" y="1082"/>
      <point x="2392" y="1056" type="qcurve" smooth="yes"/>
      <point x="2360" y="872" type="line" smooth="yes"/>
      <point x="2355" y="842"/>
      <point x="2335" y="803"/>
      <point x="2304" y="781"/>
      <point x="2263" y="772"/>
      <point x="2237" y="772" type="qcurve" smooth="yes"/>
    </contour>
  </outline>
  <guideline angle="90" color="0.4,0.4,0.4,1" name="halfwidth" x="1382.53" y="0"/>
</glyph>
<glyph name="Q" format="2">
  <advance width="2962"/>
  <unicode hex="0051"/>
  <anchor x="1481" y="1550" name="top"/>
  <anchor x="1481" y="-442" name="bottom"/>
  <outline>
    <contour>
      <point x="372.155" y="1140" type="line"/>
      <point x="220.155" y="272" type="line" smooth="yes"/>
      <point x="205.155" y="184"/>
      <point x="232.155" y="73"/>
      <point x="309.155" y="10"/>
      <point x="432.155" y="-14"/>
      <point x="512.155" y="-14" type="qcurve" smooth="yes"/>
      <point x="2202.16" y="-14" type="line" smooth="yes"/>
      <point x="2282.16" y="-14"/>
      <point x="2414.16" y="9"/>
      <point x="2514.16" y="72"/>
      <point x="2581.16" y="184"/>
      <point x="2596.16" y="272" type="qcurve" smooth="yes"/>
      <point x="2748.16" y="1140" type="line" smooth="yes"/>
      <point x="2763.16" y="1226"/>
      <point x="2731.16" y="1333"/>
      <point x="2650.16" y="1393"/>
      <point x="2528.16" y="1414"/>
      <point x="2452.16" y="1414" type="qcurve" smooth="yes"/>
      <point x="762.155" y="1414" type="line" smooth="yes"/>
      <point x="686.155" y="1414"/>
      <point x="557.155" y="1393"/>
      <point x="456.155" y="1333"/>
      <point x="387.155" y="1226"/>
      <point x="372.155" y="1140" type="qcurve"/>
    </contour>
    <contour>
      <point x="641.155" y="1170" type="line"/>
      <point x="641.155" y="1170"/>
      <point x="641.155" y="1170"/>
      <point x="641.155" y="1170"/>
      <point x="641.155" y="1170"/>
      <point x="641.155" y="1170" type="qcurve"/>
      <point x="2489.16" y="1170" type="line"/>
      <point x="2489.16" y="1170"/>
      <point x="2489.16" y="1170"/>
      <point x="2489.16" y="1170"/>
      <point x="2489.16" y="1170"/>
      <point x="2489.16" y="1170" type="qcurve"/>
      <point x="2325.16" y="230" type="line"/>
      <point x="2325.16" y="230"/>
      <point x="2325.16" y="230"/>
      <point x="2325.16" y="230"/>
      <point x="2325.16" y="230"/>
      <point x="2325.16" y="230" type="qcurve"/>
      <point x="477.155" y="230" type="line"/>
      <point x="477.155" y="230"/>
      <point x="477.155" y="230"/>
      <point x="477.155" y="230"/>
      <point x="477.155" y="230"/>
      <point x="477.155" y="230" type="qcurve"/>
    </contour>
    <contour>
      <point x="1909.93" y="-282" type="line"/>
      <point x="2235.93" y="-282" type="line"/>
      <point x="1591.93" y="583" type="line"/>
      <point x="1404.93" y="442" type="line"/>
    </contour>
  </outline>
</glyph>
<glyph name="S" format="2">
  <advance width="2683"/>
  <unicode hex="0053"/>
  <anchor x="1488" y="1564" name="top"/>
  <anchor x="1186" y="-164" name="bottom"/>
  <outline>
    <contour>
      <point x="185.325" y="364" type="line"/>
      <point x="446.325" y="416" type="line"/>
      <point x="414.325" y="230" type="line"/>
      <point x="414.325" y="230"/>
      <point x="414.325" y="230"/>
      <point x="414.325" y="230"/>
      <point x="414.325" y="230"/>
      <point x="414.325" y="230" type="qcurve"/>
      <point x="2098.33" y="230" type="line"/>
      <point x="2098.33" y="230"/>
      <point x="2098.33" y="230"/>
      <point x="2098.33" y="230"/>
      <point x="2098.33" y="230"/>
      <point x="2098.33" y="230" type="qcurve"/>
      <point x="2160.33" y="586" type="line"/>
      <point x="2160.33" y="586"/>
      <point x="2160.33" y="586"/>
      <point x="2160.33" y="586"/>
      <point x="2160.33" y="586"/>
      <point x="2160.33" y="586" type="qcurve"/>
      <point x="596.325" y="586" type="line" smooth="yes"/>
      <point x="517.325" y="586"/>
      <point x="394.325" y="610"/>
      <point x="316.325" y="673"/>
      <point x="289.325" y="786"/>
      <point x="304.325" y="874" type="qcurve" smooth="yes"/>
      <point x="350.325" y="1140" type="line" smooth="yes"/>
      <point x="365.325" y="1226"/>
      <point x="434.325" y="1333"/>
      <point x="535.325" y="1393"/>
      <point x="664.325" y="1414"/>
      <point x="740.325" y="1414" type="qcurve" smooth="yes"/>
      <point x="2192.33" y="1414" type="line" smooth="yes"/>
      <point x="2269.33" y="1414"/>
      <point x="2391.33" y="1393"/>
      <point x="2472.33" y="1333"/>
      <point x="2503.33" y="1226"/>
      <point x="2488.33" y="1140" type="qcurve" smooth="yes"/>
      <point x="2471.33" y="1040" type="line"/>
      <point x="2210.33" y="990" type="line"/>
      <point x="2242.33" y="1170" type="line"/>
      <point x="2242.33" y="1170"/>
      <point x="2242.33" y="1170"/>
      <point x="2242.33" y="1170"/>
      <point x="2242.33" y="1170"/>
      <point x="2242.33" y="1170" type="qcurve"/>
      <point x="608.325" y="1170" type="line"/>
      <point x="608.325" y="1170"/>
      <point x="608.325" y="1170"/>
      <point x="608.325" y="1170"/>
      <point x="608.325" y="1170"/>
      <point x="608.325" y="1170" type="qcurve"/>
      <point x="548.325" y="830" type="line"/>
      <point x="548.325" y="830"/>
      <point x="548.325" y="830"/>
      <point x="548.325" y="830"/>
      <point x="548.325" y="830"/>
      <point x="548.325" y="830" type="qcurve"/>
      <point x="2110.33" y="830" type="line" smooth="yes"/>
      <point x="2187.33" y="830"/>
      <point x="2310.33" y="809"/>
      <point x="2390.33" y="749"/>
      <point x="2422.33" y="642"/>
      <point x="2407.33" y="556" type="qcurve" smooth="yes"/>
      <point x="2357.33" y="272" type="line" smooth="yes"/>
      <point x="2342.33" y="184"/>
      <point x="2275.33" y="72"/>
      <point x="2175.33" y="9"/>
      <point x="2043.33" y="-14"/>
      <point x="1963.33" y="-14" type="qcurve" smooth="yes"/>
      <point x="461.325" y="-14" type="line" smooth="yes"/>
      <point x="382.325" y="-14"/>
      <point x="259.325" y="9"/>
      <point x="181.325" y="72"/>
      <point x="154.325" y="184"/>
      <point x="169.325" y="272" type="qcurve" smooth="yes"/>
    </contour>
  </outline>
</glyph>
<glyph name="T" format="2">
  <advance width="2373"/>
  <unicode hex="0054"/>
  <anchor x="1340" y="1550" name="top"/>
  <anchor x="1043" y="-150" name="bottom"/>
  <outline>
    <contour>
      <point x="936.858" y="0" type="line"/>
      <point x="1200.86" y="0" type="line"/>
      <point x="1402.86" y="1156" type="line"/>
      <point x="2446.86" y="1156" type="line"/>
      <point x="2488.86" y="1400" type="line"/>
      <point x="136.858" y="1400" type="line"/>
      <point x="94.8578" y="1156" type="line"/>
      <point x="1138.86" y="1156" type="line"/>
    </contour>
  </outline>
</glyph>
<glyph name="U" format="2">
  <advance width="2763.04"/>
  <unicode hex="0055"/>
  <anchor x="1532" y="1550" name="top"/>
  <anchor x="1235" y="-150" name="bottom"/>
  <anchor x="1394" y="0" name="ogonek"/>
  <anchor x="2585" y="1400" name="horn"/>
  <outline>
    <contour>
      <point x="426" y="1400" type="line"/>
      <point x="690" y="1400" type="line"/>
      <point x="487" y="240" type="line"/>
      <point x="487" y="240"/>
      <point x="487" y="240"/>
      <point x="487" y="240"/>
      <point x="487" y="240"/>
      <point x="487" y="240" type="qcurve"/>
      <point x="2119" y="240" type="line"/>
      <point x="2119" y="240"/>
      <point x="2119" y="240"/>
      <point x="2119" y="240"/>
      <point x="2119" y="240"/>
      <point x="2119" y="240" type="qcurve"/>
      <point x="2322" y="1400" type="line"/>
      <point x="2586" y="1400" type="line"/>
      <point x="2389" y="272" type="line" smooth="yes"/>
      <point x="2374" y="184"/>
      <point x="2307" y="72"/>
      <point x="2207" y="9"/>
      <point x="2075" y="-14"/>
      <point x="1995" y="-14" type="qcurve" smooth="yes"/>
      <point x="521" y="-14" type="line" smooth="yes"/>
      <point x="442" y="-14"/>
      <point x="319" y="9"/>
      <point x="241" y="72"/>
      <point x="214" y="184"/>
      <point x="229" y="272" type="qcurve" smooth="yes"/>
    </contour>
  </outline>
</glyph>
<glyph name="V" format="2">
  <advance width="2576"/>
  <unicode hex="0056"/>
  <anchor x="1453.86" y="1550" name="top"/>
  <anchor x="1156.86" y="-150" name="bottom"/>
  <outline>
    <contour>
      <point x="1083" y="0" type="line"/>
      <point x="1283" y="0" type="line"/>
      <point x="2703" y="1400" type="line"/>
      <point x="2373" y="1400" type="line"/>
      <point x="1225" y="262" type="line"/>
      <point x="450" y="1400" type="line"/>
      <point x="127" y="1400" type="line"/>
    </contour>
  </outline>
</glyph>
<glyph name="W" format="2">
  <advance width="3192"/>
  <unicode hex="0057"/>
  <anchor x="1596" y="-150" name="bottom"/>
  <anchor x="1596" y="1550" name="top"/>
  <outline>
    <contour>
      <point x="698.858" y="0" type="line"/>
      <point x="914.858" y="0" type="line"/>
      <point x="1656.86" y="1078" type="line"/>
      <point x="2042.86" y="0" type="line"/>
      <point x="2258.86" y="0" type="line"/>
      <point x="3318.86" y="1400" type="line"/>
      <point x="3015.86" y="1400" type="line"/>
      <point x="2204.86" y="314" type="line"/>
      <point x="1824.86" y="1400" type="line"/>
      <point x="1607.86" y="1400" type="line"/>
      <point x="850.858" y="315" type="line"/>
      <point x="430.858" y="1400" type="line"/>
      <point x="126.858" y="1400" type="line"/>
    </contour>
  </outline>
</glyph>
<glyph name="X" format="2">
  <advance width="2449"/>
  <unicode hex="0058"/>
  <anchor x="1377" y="1550" name="top"/>
  <anchor x="1080" y="-150" name="bottom"/>
  <outline>
    <contour>
      <point x="-109.142" y="0" type="line"/>
      <point x="294.858" y="0" type="line"/>
      <point x="1188.86" y="570" type="line"/>
      <point x="1859.86" y="0" type="line"/>
      <point x="2328.86" y="0" type="line"/>
      <point x="1435.86" y="742" type="line"/>
      <point x="2486.86" y="1400" type="line"/>
      <point x="2079.86" y="1400" type="line"/>
      <point x="1254.86" y="884" type="line"/>
      <point x="611.858" y="1400" type="line"/>
      <point x="126.858" y="1400" type="line"/>
      <point x="1007.86" y="712" type="line"/>
    </contour>
  </outline>
</glyph>
<glyph name="Y" format="2">
  <advance width="2536"/>
  <unicode hex="0059"/>
  <anchor x="1484" y="1550" name="top"/>
  <anchor x="1187" y="-150" name="bottom"/>
  <outline>
    <contour>
      <point x="1022.86" y="0" type="line"/>
      <point x="1286.86" y="0" type="line"/>
      <point x="1392.86" y="610" type="line"/>
      <point x="2662.86" y="1400" type="line"/>
      <point x="2255.86" y="1400" type="line"/>
      <point x="1286.86" y="789" type="line"/>
      <point x="533.858" y="1400" type="line"/>
      <point x="126.858" y="1400" type="line"/>
      <point x="1129.86" y="612" type="line"/>
    </contour>
  </outline>
  <guideline x="1213" y="0" angle="260.113" color="1,0,0,1"/>
</glyph>
<glyph name="Z" format="2">
  <advance width="2162.49"/>
  <unicode hex="005A"/>
  <anchor x="1265" y="1550" name="top"/>
  <anchor x="954" y="-150" name="bottom"/>
  <outline>
    <contour>
      <point x="-59.4881" y="0" type="line"/>
      <point x="1967.51" y="0" type="line"/>
      <point x="2007.51" y="229" type="line"/>
      <point x="534.512" y="229" type="line"/>
      <point x="461.512" y="168" type="line"/>
      <point x="2188.51" y="1278" type="line"/>
      <point x="2209.51" y="1400" type="line"/>
      <point x="268.512" y="1400" type="line"/>
      <point x="228.512" y="1171" type="line"/>
      <point x="1626.51" y="1171" type="line"/>
      <point x="1664.51" y="1214" type="line"/>
      <point x="-38.4881" y="122" type="line"/>
    </contour>
  </outline>
</glyph>
<glyph name="bracketleft" format="2">
  <advance width="1148.6"/>
  <unicode hex="005B"/>
  <outline>
    <contour>
      <point x="144.464" y="-256" type="line"/>
      <point x="442.464" y="1448" type="line"/>
      <point x="1126.46" y="1448" type="line"/>
      <point x="1087.46" y="1224" type="line"/>
      <point x="651.464" y="1224" type="line"/>
      <point x="431.464" y="-32" type="line"/>
      <point x="867.464" y="-32" type="line"/>
      <point x="828.464" y="-256" type="line"/>
    </contour>
  </outline>
</glyph>
<glyph name="backslash" format="2">
  <advance width="1474"/>
  <unicode hex="005C"/>
  <outline>
    <contour>
      <point x="507.362" y="1430" type="line"/>
      <point x="270.362" y="1430" type="line"/>
      <point x="960.362" y="-100" type="line"/>
      <point x="1197.36" y="-100" type="line"/>
    </contour>
  </outline>
</glyph>
<glyph name="asciicircum" format="2">
  <advance width="1380"/>
  <unicode hex="005E"/>
  <outline>
    <contour>
      <point x="40" y="850" type="line"/>
      <point x="726" y="1400" type="line"/>
      <point x="906" y="1400" type="line"/>
      <point x="1400" y="850" type="line"/>
      <point x="1110" y="850" type="line"/>
      <point x="789" y="1257" type="line"/>
      <point x="326" y="850" type="line"/>
    </contour>
  </outline>
  <guideline y="850"/>
</glyph>
<glyph name="a" format="2">
  <advance width="2088" height="1448"/>
  <unicode hex="0061"/>
  <anchor x="1123" y="1150" name="top"/>
  <anchor x="890" y="-150" name="bottom"/>
  <anchor x="1673" y="0" name="ogonek"/>
  <outline>
    <contour>
      <point x="370" y="-10" type="line" smooth="yes"/>
      <point x="312" y="-10"/>
      <point x="224" y="7"/>
      <point x="168" y="52"/>
      <point x="148" y="131"/>
      <point x="159" y="194" type="qcurve" smooth="yes"/>
      <point x="196" y="404" type="line" smooth="yes"/>
      <point x="207" y="466"/>
      <point x="269" y="542"/>
      <point x="356" y="584"/>
      <point x="461" y="598"/>
      <point x="516" y="598" type="qcurve" smooth="yes"/>
      <point x="1562" y="598" type="line"/>
      <point x="1598" y="806" type="line"/>
      <point x="1598" y="806"/>
      <point x="1598" y="806"/>
      <point x="1598" y="806" type="qcurve"/>
      <point x="528" y="806" type="line"/>
      <point x="528" y="806"/>
      <point x="528" y="806"/>
      <point x="528" y="806" type="qcurve"/>
      <point x="511" y="708" type="line"/>
      <point x="271" y="754" type="line"/>
      <point x="282" y="814" type="line" smooth="yes"/>
      <point x="293" y="876"/>
      <point x="342" y="952"/>
      <point x="414" y="995"/>
      <point x="507" y="1010"/>
      <point x="562" y="1010" type="qcurve" smooth="yes"/>
      <point x="1636" y="1010" type="line" smooth="yes"/>
      <point x="1691" y="1010"/>
      <point x="1779" y="995"/>
      <point x="1836" y="952"/>
      <point x="1859" y="876"/>
      <point x="1848" y="814" type="qcurve" smooth="yes"/>
      <point x="1706" y="0" type="line"/>
      <point x="1458" y="0" type="line"/>
      <point x="1484" y="150" type="line"/>
      <point x="1463" y="104"/>
      <point x="1401" y="43"/>
      <point x="1325" y="6"/>
      <point x="1239" y="-10"/>
      <point x="1194" y="-10" type="qcurve" smooth="yes"/>
    </contour>
    <contour>
      <point x="407" y="194" type="line"/>
      <point x="407" y="194"/>
      <point x="407" y="194"/>
      <point x="407" y="194" type="qcurve"/>
      <point x="1491" y="194" type="line"/>
      <point x="1526" y="394" type="line"/>
      <point x="442" y="394" type="line"/>
      <point x="442" y="394"/>
      <point x="442" y="394"/>
      <point x="442" y="394" type="qcurve"/>
    </contour>
  </outline>
  <guideline angle="260.088" color="1,0,0,1" x="1458" y="-0"/>
</glyph>
<glyph name="b" format="2">
  <advance width="2215.49" height="-1448"/>
  <unicode hex="0062"/>
  <anchor x="1274.46" y="1598" name="top"/>
  <anchor x="1059.46" y="-150" name="bottom"/>
  <outline>
    <contour>
      <point x="149" y="0" type="line"/>
      <point x="397" y="0" type="line"/>
      <point x="414" y="100" type="line"/>
      <point x="426" y="44"/>
      <point x="535" y="-10"/>
      <point x="635" y="-10" type="qcurve" smooth="yes"/>
      <point x="1579" y="-10" type="line" smooth="yes"/>
      <point x="1648" y="-10"/>
      <point x="1749" y="14"/>
      <point x="1820" y="65"/>
      <point x="1862" y="146"/>
      <point x="1873" y="204" type="qcurve" smooth="yes"/>
      <point x="1978" y="806" type="line" smooth="yes"/>
      <point x="1987" y="860"/>
      <point x="1972" y="937"/>
      <point x="1918" y="987"/>
      <point x="1825" y="1010"/>
      <point x="1757" y="1010" type="qcurve" smooth="yes"/>
      <point x="813" y="1010" type="line" smooth="yes"/>
      <point x="713" y="1010"/>
      <point x="585" y="956"/>
      <point x="554" y="900" type="qcurve"/>
      <point x="650" y="1448" type="line"/>
      <point x="402" y="1448" type="line"/>
    </contour>
    <contour>
      <point x="434" y="214" type="line"/>
      <point x="534" y="786" type="line"/>
      <point x="1726" y="786" type="line"/>
      <point x="1726" y="786"/>
      <point x="1726" y="786"/>
      <point x="1726" y="786" type="qcurve"/>
      <point x="1626" y="214" type="line"/>
      <point x="1626" y="214"/>
      <point x="1626" y="214"/>
      <point x="1626" y="214" type="qcurve"/>
    </contour>
  </outline>
</glyph>
<glyph name="c" format="2">
  <advance width="2107"/>
  <unicode hex="0063"/>
  <anchor x="1164" y="1150" name="top"/>
  <anchor x="937" y="-150" name="bottom"/>
  <outline>
    <contour>
      <point x="172.262" y="204" type="line"/>
      <point x="277.262" y="806" type="line" smooth="yes"/>
      <point x="287.262" y="861"/>
      <point x="329.262" y="938"/>
      <point x="400.262" y="987"/>
      <point x="501.262" y="1010"/>
      <point x="569.262" y="1010" type="qcurve" smooth="yes"/>
      <point x="1703.26" y="1010" type="line" smooth="yes"/>
      <point x="1772.26" y="1010"/>
      <point x="1865.26" y="987"/>
      <point x="1918.26" y="938"/>
      <point x="1933.26" y="861"/>
      <point x="1923.26" y="806" type="qcurve" smooth="yes"/>
      <point x="1903.26" y="690" type="line"/>
      <point x="1647.26" y="644" type="line"/>
      <point x="1672.26" y="786" type="line"/>
      <point x="1672.26" y="786"/>
      <point x="1672.26" y="786"/>
      <point x="1672.26" y="786" type="qcurve"/>
      <point x="522.262" y="786" type="line"/>
      <point x="522.262" y="786"/>
      <point x="522.262" y="786"/>
      <point x="522.262" y="786" type="qcurve"/>
      <point x="422.262" y="214" type="line"/>
      <point x="422.262" y="214"/>
      <point x="422.262" y="214"/>
      <point x="422.262" y="214" type="qcurve"/>
      <point x="1576.26" y="214" type="line"/>
      <point x="1576.26" y="214"/>
      <point x="1576.26" y="214"/>
      <point x="1576.26" y="214" type="qcurve"/>
      <point x="1602.26" y="366" type="line"/>
      <point x="1842.26" y="316" type="line"/>
      <point x="1822.26" y="204" type="line" smooth="yes"/>
      <point x="1812.26" y="146"/>
      <point x="1770.26" y="65"/>
      <point x="1700.26" y="14"/>
      <point x="1599.26" y="-10"/>
      <point x="1529.26" y="-10" type="qcurve" smooth="yes"/>
      <point x="391.262" y="-10" type="line" smooth="yes"/>
      <point x="321.262" y="-10"/>
      <point x="228.262" y="14"/>
      <point x="175.262" y="65"/>
      <point x="162.262" y="146"/>
      <point x="172.262" y="204" type="qcurve"/>
    </contour>
  </outline>
</glyph>
<glyph name="d" format="2">
  <advance width="2215" height="1448"/>
  <unicode hex="0064"/>
  <anchor x="1257" y="1598" name="top"/>
  <anchor x="852" y="-150" name="bottom"/>
  <anchor x="2079" y="1448" name="right"/>
  <outline>
    <contour>
      <point x="172.28" y="204" type="line"/>
      <point x="277.28" y="806" type="line" smooth="yes"/>
      <point x="286.28" y="860"/>
      <point x="329.28" y="937"/>
      <point x="399.28" y="987"/>
      <point x="501.28" y="1010"/>
      <point x="569.28" y="1010" type="qcurve" smooth="yes"/>
      <point x="1513.28" y="1010" type="line" smooth="yes"/>
      <point x="1613.28" y="1010"/>
      <point x="1723.28" y="956"/>
      <point x="1734.28" y="900" type="qcurve"/>
      <point x="1829.28" y="1448" type="line"/>
      <point x="2077.28" y="1448" type="line"/>
      <point x="1825.28" y="0" type="line"/>
      <point x="1577.28" y="0" type="line"/>
      <point x="1594.28" y="100" type="line"/>
      <point x="1563.28" y="44"/>
      <point x="1435.28" y="-10"/>
      <point x="1335.28" y="-10" type="qcurve" smooth="yes"/>
      <point x="391.28" y="-10" type="line" smooth="yes"/>
      <point x="322.28" y="-10"/>
      <point x="229.28" y="14"/>
      <point x="176.28" y="65"/>
      <point x="162.28" y="146"/>
      <point x="172.28" y="204" type="qcurve"/>
    </contour>
    <contour>
      <point x="1714.28" y="786" type="line"/>
      <point x="522.28" y="786" type="line"/>
      <point x="522.28" y="786"/>
      <point x="522.28" y="786"/>
      <point x="522.28" y="786" type="qcurve"/>
      <point x="422.28" y="214" type="line"/>
      <point x="422.28" y="214"/>
      <point x="422.28" y="214"/>
      <point x="422.28" y="214" type="qcurve"/>
      <point x="1614.28" y="214" type="line"/>
    </contour>
  </outline>
</glyph>
<glyph name="e" format="2">
  <advance width="2163" height="1448"/>
  <unicode hex="0065"/>
  <anchor x="1161" y="1150" name="top"/>
  <anchor x="934" y="-150" name="bottom"/>
  <anchor x="1464" y="-10" name="ogonek"/>
  <outline>
    <contour>
      <point x="180.151" y="250" type="line"/>
      <point x="269.151" y="760" type="line" smooth="yes"/>
      <point x="281.151" y="827"/>
      <point x="333.151" y="922"/>
      <point x="421.151" y="982"/>
      <point x="546.151" y="1010"/>
      <point x="631.151" y="1010" type="qcurve" smooth="yes"/>
      <point x="1643.15" y="1010" type="line" smooth="yes"/>
      <point x="1729.15" y="1010"/>
      <point x="1845.15" y="983"/>
      <point x="1911.15" y="923"/>
      <point x="1929.15" y="828"/>
      <point x="1917.15" y="760" type="qcurve" smooth="yes"/>
      <point x="1855.15" y="402" type="line"/>
      <point x="455.151" y="402" type="line"/>
      <point x="418.151" y="194" type="line"/>
      <point x="418.151" y="194"/>
      <point x="418.151" y="194"/>
      <point x="418.151" y="194" type="qcurve"/>
      <point x="1570.15" y="194" type="line"/>
      <point x="1570.15" y="194"/>
      <point x="1570.15" y="194"/>
      <point x="1570.15" y="194" type="qcurve"/>
      <point x="1591.15" y="314" type="line"/>
      <point x="1832.15" y="270" type="line"/>
      <point x="1828.15" y="250" type="line" smooth="yes"/>
      <point x="1816.15" y="180"/>
      <point x="1764.15" y="82"/>
      <point x="1676.15" y="19"/>
      <point x="1551.15" y="-10"/>
      <point x="1465.15" y="-10" type="qcurve" smooth="yes"/>
      <point x="453.151" y="-10" type="line" smooth="yes"/>
      <point x="368.151" y="-10"/>
      <point x="252.151" y="19"/>
      <point x="186.151" y="82"/>
      <point x="168.151" y="180"/>
      <point x="180.151" y="250" type="qcurve"/>
    </contour>
    <contour>
      <point x="490.151" y="606" type="line"/>
      <point x="1642.15" y="606" type="line"/>
      <point x="1677.15" y="806" type="line"/>
      <point x="1677.15" y="806"/>
      <point x="1677.15" y="806"/>
      <point x="1677.15" y="806" type="qcurve"/>
      <point x="525.151" y="806" type="line"/>
      <point x="525.151" y="806"/>
      <point x="525.151" y="806"/>
      <point x="525.151" y="806" type="qcurve"/>
    </contour>
  </outline>
  <guideline y="-1010" color="1,0,0,1"/>
</glyph>
<glyph name="g" format="2">
  <advance width="2207" height="1448"/>
  <unicode hex="0067"/>
  <anchor x="1189" y="1174" name="top"/>
  <anchor x="1104" y="-578" name="bottom"/>
  <outline>
    <contour>
      <point x="424" y="224" type="line"/>
      <point x="520" y="776" type="line"/>
      <point x="520" y="776"/>
      <point x="520" y="776"/>
      <point x="520" y="776" type="qcurve"/>
      <point x="1712" y="776" type="line"/>
      <point x="1616" y="224" type="line"/>
      <point x="424" y="224" type="line"/>
      <point x="424" y="224"/>
      <point x="424" y="224"/>
      <point x="424" y="224" type="qcurve"/>
    </contour>
    <contour>
      <point x="174" y="-428" type="line"/>
      <point x="1436" y="-428" type="line" smooth="yes"/>
      <point x="1521" y="-428"/>
      <point x="1641" y="-420"/>
      <point x="1725" y="-372"/>
      <point x="1778" y="-269"/>
      <point x="1794" y="-174" type="qcurve" smooth="yes"/>
      <point x="1999" y="1000" type="line"/>
      <point x="1751" y="1000" type="line"/>
      <point x="1732" y="890" type="line"/>
      <point x="1721" y="946"/>
      <point x="1611" y="1000"/>
      <point x="1511" y="1000" type="qcurve" smooth="yes"/>
      <point x="567" y="1000" type="line" smooth="yes"/>
      <point x="499" y="1000"/>
      <point x="398" y="977"/>
      <point x="327" y="927"/>
      <point x="285" y="850"/>
      <point x="275" y="796" type="qcurve" smooth="yes"/>
      <point x="174" y="214" type="line" smooth="yes"/>
      <point x="164" y="156"/>
      <point x="178" y="75"/>
      <point x="231" y="24"/>
      <point x="324" y="0"/>
      <point x="393" y="0" type="qcurve" smooth="yes"/>
      <point x="1337" y="0" type="line" smooth="yes"/>
      <point x="1437" y="0"/>
      <point x="1565" y="54"/>
      <point x="1596" y="110" type="qcurve"/>
      <point x="1541" y="-204" type="line"/>
      <point x="1541" y="-204"/>
      <point x="1541" y="-204"/>
      <point x="1541" y="-204" type="qcurve"/>
      <point x="167" y="-204" type="line"/>
    </contour>
  </outline>
  <guideline angle="0" x="0" y="988"/>
  <guideline angle="0" x="0" y="42"/>
</glyph>
<glyph name="h" format="2">
  <advance width="2099.46" height="1448"/>
  <unicode hex="0068"/>
  <anchor x="553" y="1598" name="top"/>
  <anchor x="908" y="-150" name="bottom"/>
  <anchor x="137" y="500" name="left"/>
  <outline>
    <contour>
      <point x="149.464" y="0" type="line"/>
      <point x="402.464" y="1448" type="line"/>
      <point x="650.464" y="1448" type="line"/>
      <point x="553.464" y="896" type="line"/>
      <point x="592.464" y="947"/>
      <point x="736.464" y="1000"/>
      <point x="854.464" y="1000" type="qcurve" smooth="yes"/>
      <point x="1574.46" y="1000" type="line" smooth="yes"/>
      <point x="1659.46" y="1000"/>
      <point x="1774.46" y="972"/>
      <point x="1840.46" y="912"/>
      <point x="1860.46" y="817"/>
      <point x="1848.46" y="750" type="qcurve" smooth="yes"/>
      <point x="1717.46" y="0" type="line"/>
      <point x="1469.46" y="0" type="line"/>
      <point x="1604.46" y="776" type="line"/>
      <point x="1604.46" y="776"/>
      <point x="1604.46" y="776"/>
      <point x="1604.46" y="776" type="qcurve"/>
      <point x="532.464" y="776" type="line"/>
      <point x="397.464" y="0" type="line"/>
    </contour>
  </outline>
  <guideline angle="0" x="0" y="988"/>
  <guideline angle="0" x="0" y="870"/>
</glyph>
<glyph name="k" format="2">
  <advance width="2298" height="1448"/>
  <unicode hex="006B"/>
  <anchor x="733" y="1598" name="top"/>
  <anchor x="888" y="-150" name="bottom"/>
  <anchor x="175" y="724" name="left"/>
  <outline>
    <contour>
      <point x="149.464" y="0" type="line"/>
      <point x="397.464" y="0" type="line"/>
      <point x="484.464" y="498" type="line"/>
      <point x="471.464" y="491" type="line"/>
      <point x="1589.46" y="0" type="line"/>
      <point x="2151.46" y="0" type="line"/>
      <point x="906.464" y="542" type="line"/>
      <point x="906.464" y="533" type="line"/>
      <point x="2088.46" y="1000" type="line"/>
      <point x="1625.46" y="1000" type="line"/>
      <point x="482.464" y="544" type="line"/>
      <point x="491.464" y="536" type="line"/>
      <point x="650.464" y="1448" type="line"/>
      <point x="402.464" y="1448" type="line"/>
    </contour>
  </outline>
</glyph>
<glyph name="l" format="2">
  <advance width="787.464" height="1448"/>
  <unicode hex="006C"/>
  <anchor x="553" y="1598" name="top"/>
  <anchor x="248" y="-150" name="bottom"/>
  <anchor x="651" y="1448" name="right"/>
  <anchor x="753" y="700" name="eldot"/>
  <outline>
    <contour>
      <point x="149.464" y="0" type="line"/>
      <point x="397.464" y="0" type="line"/>
      <point x="650.464" y="1448" type="line"/>
      <point x="402.464" y="1448" type="line"/>
    </contour>
  </outline>
</glyph>
<glyph name="m" format="2">
  <advance width="2818.47" height="1448"/>
  <unicode hex="006D"/>
  <anchor x="1409" y="1150" name="top"/>
  <anchor x="1409" y="-150" name="bottom"/>
  <anchor x="135.469" y="500" name="left"/>
  <outline>
    <contour>
      <point x="148" y="0" type="line"/>
      <point x="396" y="0" type="line"/>
      <point x="533" y="786" type="line"/>
      <point x="1305" y="786" type="line"/>
      <point x="1168" y="0" type="line"/>
      <point x="1416" y="0" type="line"/>
      <point x="1553" y="786" type="line"/>
      <point x="2325" y="786" type="line"/>
      <point x="2325" y="786"/>
      <point x="2325" y="786"/>
      <point x="2325" y="786" type="qcurve"/>
      <point x="2188" y="0" type="line"/>
      <point x="2436" y="0" type="line"/>
      <point x="2569" y="760" type="line" smooth="yes"/>
      <point x="2581" y="827"/>
      <point x="2562" y="922"/>
      <point x="2495" y="982"/>
      <point x="2379" y="1010"/>
      <point x="2294" y="1010" type="qcurve" smooth="yes"/>
      <point x="1874" y="1010" type="line" smooth="yes"/>
      <point x="1806" y="1010"/>
      <point x="1701" y="992"/>
      <point x="1623" y="956"/>
      <point x="1569" y="904"/>
      <point x="1552" y="869" type="qcurve"/>
      <point x="1543" y="916"/>
      <point x="1487" y="972"/>
      <point x="1409" y="1001"/>
      <point x="1318" y="1010"/>
      <point x="1274" y="1010" type="qcurve" smooth="yes"/>
      <point x="854" y="1010" type="line" smooth="yes"/>
      <point x="737" y="1010"/>
      <point x="594" y="957"/>
      <point x="554" y="906" type="qcurve"/>
      <point x="571" y="1000" type="line"/>
      <point x="323" y="1000" type="line"/>
    </contour>
  </outline>
</glyph>
<glyph name="n" format="2">
  <advance width="2098" height="1448"/>
  <unicode hex="006E"/>
  <anchor x="1134" y="1150" name="top"/>
  <anchor x="907" y="-150" name="bottom"/>
  <anchor x="136" y="500" name="left"/>
  <outline>
    <contour>
      <point x="148.469" y="0" type="line"/>
      <point x="323.469" y="1000" type="line"/>
      <point x="571.469" y="1000" type="line"/>
      <point x="554.469" y="906" type="line"/>
      <point x="593.469" y="957"/>
      <point x="736.469" y="1010"/>
      <point x="854.469" y="1010" type="qcurve" smooth="yes"/>
      <point x="1574.47" y="1010" type="line" smooth="yes"/>
      <point x="1659.47" y="1010"/>
      <point x="1775.47" y="982"/>
      <point x="1841.47" y="922"/>
      <point x="1861.47" y="827"/>
      <point x="1849.47" y="760" type="qcurve" smooth="yes"/>
      <point x="1716.47" y="0" type="line"/>
      <point x="1468.47" y="0" type="line"/>
      <point x="1605.47" y="786" type="line"/>
      <point x="1605.47" y="786"/>
      <point x="1605.47" y="786"/>
      <point x="1605.47" y="786" type="qcurve"/>
      <point x="533.469" y="786" type="line"/>
      <point x="396.469" y="0" type="line"/>
    </contour>
  </outline>
  <guideline y="988"/>
  <guideline y="870"/>
</glyph>
<glyph name="o" format="2">
  <advance width="2202.29" height="1448"/>
  <unicode hex="006F"/>
  <anchor x="1182" y="1150" name="top"/>
  <anchor x="955" y="-150" name="bottom"/>
  <anchor x="1966" y="800" name="horn"/>
  <anchor x="1090" y="0" name="ogonek"/>
  <outline>
    <contour>
      <point x="172.263" y="204" type="line"/>
      <point x="277.263" y="806" type="line" smooth="yes"/>
      <point x="286.263" y="860"/>
      <point x="329.263" y="937"/>
      <point x="399.263" y="987"/>
      <point x="501.263" y="1010"/>
      <point x="569.263" y="1010" type="qcurve" smooth="yes"/>
      <point x="1745.26" y="1010" type="line" smooth="yes"/>
      <point x="1882.26" y="1010"/>
      <point x="1984.26" y="914"/>
      <point x="1965.26" y="806" type="qcurve" smooth="yes"/>
      <point x="1860.26" y="204" type="line" smooth="yes"/>
      <point x="1850.26" y="146"/>
      <point x="1808.26" y="65"/>
      <point x="1738.26" y="14"/>
      <point x="1637.26" y="-10"/>
      <point x="1567.26" y="-10" type="qcurve" smooth="yes"/>
      <point x="391.263" y="-10" type="line" smooth="yes"/>
      <point x="322.263" y="-10"/>
      <point x="229.263" y="14"/>
      <point x="176.263" y="65"/>
      <point x="162.263" y="146"/>
      <point x="172.263" y="204" type="qcurve"/>
    </contour>
    <contour>
      <point x="422.263" y="214" type="line"/>
      <point x="422.263" y="214"/>
      <point x="422.263" y="214"/>
      <point x="422.263" y="214" type="qcurve"/>
      <point x="1614.26" y="214" type="line"/>
      <point x="1614.26" y="214"/>
      <point x="1614.26" y="214"/>
      <point x="1614.26" y="214" type="qcurve"/>
      <point x="1714.26" y="786" type="line"/>
      <point x="1714.26" y="786"/>
      <point x="1714.26" y="786"/>
      <point x="1714.26" y="786" type="qcurve"/>
      <point x="522.263" y="786" type="line"/>
      <point x="522.263" y="786"/>
      <point x="522.263" y="786"/>
      <point x="522.263" y="786" type="qcurve"/>
    </contour>
  </outline>
</glyph>
<glyph name="p" format="2">
  <advance width="2214" height="1448"/>
  <unicode hex="0070"/>
  <anchor x="1238" y="1598" name="top"/>
  <anchor x="894" y="-578" name="bottom"/>
  <outline>
    <contour>
      <point x="73" y="-428" type="line"/>
      <point x="323" y="1000" type="line"/>
      <point x="571" y="1000" type="line"/>
      <point x="553" y="900" type="line"/>
      <point x="584" y="956"/>
      <point x="712" y="1010"/>
      <point x="812" y="1010" type="qcurve" smooth="yes"/>
      <point x="1756" y="1010" type="line" smooth="yes"/>
      <point x="1825" y="1010"/>
      <point x="1918" y="986"/>
      <point x="1971" y="935"/>
      <point x="1985" y="854"/>
      <point x="1975" y="796" type="qcurve" smooth="yes"/>
      <point x="1870" y="194" type="line" smooth="yes"/>
      <point x="1861" y="140"/>
      <point x="1818" y="63"/>
      <point x="1748" y="13"/>
      <point x="1646" y="-10"/>
      <point x="1578" y="-10" type="qcurve" smooth="yes"/>
      <point x="634" y="-10" type="line" smooth="yes"/>
      <point x="534" y="-10"/>
      <point x="425" y="44"/>
      <point x="413" y="100" type="qcurve"/>
      <point x="321" y="-428" type="line"/>
    </contour>
    <contour>
      <point x="433" y="214" type="line"/>
      <point x="1625" y="214" type="line"/>
      <point x="1625" y="214"/>
      <point x="1625" y="214"/>
      <point x="1625" y="214" type="qcurve"/>
      <point x="1725" y="786" type="line"/>
      <point x="1725" y="786"/>
      <point x="1725" y="786"/>
      <point x="1725" y="786" type="qcurve"/>
      <point x="533" y="786" type="line"/>
    </contour>
  </outline>
</glyph>
<glyph name="q" format="2">
  <advance width="2216" height="1448"/>
  <unicode hex="0071"/>
  <anchor x="1257" y="1598" name="top"/>
  <anchor x="952" y="-150" name="bottom"/>
  <outline>
    <contour>
      <point x="172.263" y="204" type="line"/>
      <point x="277.263" y="806" type="line" smooth="yes"/>
      <point x="286.263" y="860"/>
      <point x="329.263" y="937"/>
      <point x="399.263" y="987"/>
      <point x="501.263" y="1010"/>
      <point x="569.263" y="1010" type="qcurve" smooth="yes"/>
      <point x="1513.26" y="1010" type="line" smooth="yes"/>
      <point x="1613.26" y="1010"/>
      <point x="1723.26" y="956"/>
      <point x="1734.26" y="900" type="qcurve"/>
      <point x="1751.26" y="1000" type="line"/>
      <point x="1999.26" y="1000" type="line"/>
      <point x="1750.26" y="-428" type="line"/>
      <point x="1502.26" y="-428" type="line"/>
      <point x="1594.26" y="100" type="line"/>
      <point x="1563.26" y="44"/>
      <point x="1435.26" y="-10"/>
      <point x="1335.26" y="-10" type="qcurve" smooth="yes"/>
      <point x="391.263" y="-10" type="line" smooth="yes"/>
      <point x="322.263" y="-10"/>
      <point x="229.263" y="14"/>
      <point x="176.263" y="65"/>
      <point x="162.263" y="146"/>
      <point x="172.263" y="204" type="qcurve"/>
    </contour>
    <contour>
      <point x="422.263" y="214" type="line"/>
      <point x="422.263" y="214"/>
      <point x="422.263" y="214"/>
      <point x="422.263" y="214" type="qcurve"/>
      <point x="1614.26" y="214" type="line"/>
      <point x="1714.26" y="786" type="line"/>
      <point x="522.263" y="786" type="line"/>
      <point x="522.263" y="786"/>
      <point x="522.263" y="786"/>
      <point x="522.263" y="786" type="qcurve"/>
    </contour>
  </outline>
</glyph>
<glyph name="r" format="2">
  <advance width="1798.84" height="1448"/>
  <unicode hex="0072"/>
  <anchor x="1059" y="1150" name="top"/>
  <anchor x="247" y="-150" name="bottom"/>
  <anchor x="136" y="500" name="left"/>
  <outline>
    <contour>
      <point x="148.469" y="0" type="line"/>
      <point x="323.469" y="1000" type="line"/>
      <point x="571.469" y="1000" type="line"/>
      <point x="552.469" y="896" type="line"/>
      <point x="591.469" y="947"/>
      <point x="735.469" y="1000"/>
      <point x="853.469" y="1000" type="qcurve" smooth="yes"/>
      <point x="1423.47" y="1000" type="line" smooth="yes"/>
      <point x="1508.47" y="1000"/>
      <point x="1623.47" y="972"/>
      <point x="1689.47" y="912"/>
      <point x="1709.47" y="817"/>
      <point x="1697.47" y="750" type="qcurve" smooth="yes"/>
      <point x="1685.47" y="681" type="line"/>
      <point x="1429.47" y="634" type="line"/>
      <point x="1453.47" y="776" type="line"/>
      <point x="1453.47" y="776"/>
      <point x="1453.47" y="776"/>
      <point x="1453.47" y="776" type="qcurve"/>
      <point x="531.469" y="776" type="line"/>
      <point x="396.469" y="0" type="line"/>
    </contour>
  </outline>
  <guideline angle="0" x="0" y="988"/>
  <guideline angle="0" x="0" y="870"/>
</glyph>
<glyph name="s" format="2">
  <advance width="1993"/>
  <unicode hex="0073"/>
  <anchor x="1077" y="1150" name="top"/>
  <anchor x="850" y="-150" name="bottom"/>
  <outline>
    <contour>
      <point x="171" y="262" type="line"/>
      <point x="399" y="308" type="line"/>
      <point x="379" y="194" type="line"/>
      <point x="379" y="194"/>
      <point x="379" y="194"/>
      <point x="379" y="194" type="qcurve"/>
      <point x="1439" y="194" type="line"/>
      <point x="1439" y="194"/>
      <point x="1439" y="194"/>
      <point x="1439" y="194" type="qcurve"/>
      <point x="1475" y="400" type="line"/>
      <point x="1475" y="400"/>
      <point x="1475" y="400"/>
      <point x="1475" y="400" type="qcurve"/>
      <point x="461" y="400" type="line" smooth="yes"/>
      <point x="404" y="400"/>
      <point x="316" y="417"/>
      <point x="261" y="463"/>
      <point x="242" y="543"/>
      <point x="253" y="606" type="qcurve" smooth="yes"/>
      <point x="289" y="814" type="line" smooth="yes"/>
      <point x="300" y="875"/>
      <point x="349" y="951"/>
      <point x="421" y="994"/>
      <point x="513" y="1010"/>
      <point x="567" y="1010" type="qcurve" smooth="yes"/>
      <point x="1541" y="1010" type="line" smooth="yes"/>
      <point x="1596" y="1010"/>
      <point x="1684" y="994"/>
      <point x="1741" y="951"/>
      <point x="1764" y="875"/>
      <point x="1753" y="814" type="qcurve" smooth="yes"/>
      <point x="1742" y="750" type="line"/>
      <point x="1514" y="706" type="line"/>
      <point x="1532" y="806" type="line"/>
      <point x="1532" y="806"/>
      <point x="1532" y="806"/>
      <point x="1532" y="806" type="qcurve"/>
      <point x="508" y="806" type="line"/>
      <point x="508" y="806"/>
      <point x="508" y="806"/>
      <point x="508" y="806" type="qcurve"/>
      <point x="474" y="610" type="line"/>
      <point x="474" y="610"/>
      <point x="474" y="610"/>
      <point x="474" y="610" type="qcurve"/>
      <point x="1486" y="610" type="line" smooth="yes"/>
      <point x="1541" y="610"/>
      <point x="1629" y="595"/>
      <point x="1686" y="553"/>
      <point x="1708" y="476"/>
      <point x="1697" y="414" type="qcurve" smooth="yes"/>
      <point x="1659" y="194" type="line" smooth="yes"/>
      <point x="1648" y="131"/>
      <point x="1601" y="52"/>
      <point x="1529" y="7"/>
      <point x="1435" y="-10"/>
      <point x="1377" y="-10" type="qcurve" smooth="yes"/>
      <point x="367" y="-10" type="line" smooth="yes"/>
      <point x="310" y="-10"/>
      <point x="223" y="7"/>
      <point x="168" y="52"/>
      <point x="148" y="131"/>
      <point x="159" y="194" type="qcurve" smooth="yes"/>
    </contour>
  </outline>
</glyph>
<glyph name="t" format="2">
  <advance width="1332"/>
  <unicode hex="0074"/>
  <anchor x="758" y="1394" name="top"/>
  <anchor x="487" y="-160" name="bottom"/>
  <anchor x="763" y="1400" name="right"/>
  <outline>
    <contour>
      <point x="524.499" y="-10" type="line" smooth="yes"/>
      <point x="455.499" y="-10"/>
      <point x="362.499" y="14"/>
      <point x="310.499" y="65"/>
      <point x="296.499" y="146"/>
      <point x="306.499" y="204" type="qcurve" smooth="yes"/>
      <point x="409.499" y="796" type="line"/>
      <point x="97.4985" y="796" type="line"/>
      <point x="133.499" y="1000" type="line"/>
      <point x="445.499" y="1000" type="line"/>
      <point x="487.499" y="1244" type="line"/>
      <point x="735.499" y="1244" type="line"/>
      <point x="693.499" y="1000" type="line"/>
      <point x="1245.5" y="1000" type="line"/>
      <point x="1209.5" y="796" type="line"/>
      <point x="657.499" y="796" type="line"/>
      <point x="552.499" y="194" type="line"/>
      <point x="552.499" y="194"/>
      <point x="552.499" y="194"/>
      <point x="552.499" y="194" type="qcurve"/>
      <point x="1096.5" y="194" type="line"/>
      <point x="1018.5" y="-10" type="line"/>
    </contour>
  </outline>
</glyph>
<glyph name="u" format="2">
  <advance width="2108"/>
  <unicode hex="0075"/>
  <anchor x="1137" y="1150" name="top"/>
  <anchor x="908" y="-160" name="bottom"/>
  <anchor x="1043" y="0" name="ogonek"/>
  <anchor x="1902" y="1000" name="horn"/>
  <outline>
    <contour>
      <point x="176" y="194" type="line"/>
      <point x="317" y="1000" type="line"/>
      <point x="565" y="1000" type="line"/>
      <point x="427" y="214" type="line"/>
      <point x="427" y="214"/>
      <point x="427" y="214"/>
      <point x="427" y="214" type="qcurve"/>
      <point x="1513" y="214" type="line"/>
      <point x="1513" y="214"/>
      <point x="1513" y="214"/>
      <point x="1513" y="214" type="qcurve"/>
      <point x="1651" y="1000" type="line"/>
      <point x="1899" y="1000" type="line"/>
      <point x="1758" y="194" type="line" smooth="yes"/>
      <point x="1747" y="131"/>
      <point x="1699" y="52"/>
      <point x="1627" y="7"/>
      <point x="1533" y="-10"/>
      <point x="1476" y="-10" type="qcurve" smooth="yes"/>
      <point x="384" y="-10" type="line" smooth="yes"/>
      <point x="327" y="-10"/>
      <point x="240" y="7"/>
      <point x="185" y="52"/>
      <point x="165" y="131"/>
      <point x="176" y="194" type="qcurve"/>
    </contour>
  </outline>
</glyph>
<glyph name="v" format="2">
  <advance width="1846"/>
  <unicode hex="0076"/>
  <anchor x="1006" y="1150" name="top"/>
  <anchor x="779" y="-150" name="bottom"/>
  <outline>
    <contour>
      <point x="714" y="0" type="line"/>
      <point x="912" y="0" type="line"/>
      <point x="1876" y="1000" type="line"/>
      <point x="1596" y="999" type="line"/>
      <point x="870" y="244" type="line"/>
      <point x="406" y="1000" type="line"/>
      <point x="83" y="1000" type="line"/>
    </contour>
  </outline>
</glyph>
<glyph name="w" format="2">
  <advance width="2716"/>
  <unicode hex="0077"/>
  <anchor x="1467" y="1150" name="top"/>
  <anchor x="1213" y="-150" name="bottom"/>
  <outline>
    <contour>
      <point x="553" y="0" type="line"/>
      <point x="777" y="0" type="line"/>
      <point x="1390" y="766" type="line"/>
      <point x="1735" y="0" type="line"/>
      <point x="1935" y="0" type="line"/>
      <point x="2746" y="1000" type="line"/>
      <point x="2475" y="1000" type="line"/>
      <point x="1881" y="257" type="line"/>
      <point x="1547" y="1000" type="line"/>
      <point x="1306" y="1000" type="line"/>
      <point x="710" y="252" type="line"/>
      <point x="375" y="1000" type="line"/>
      <point x="83" y="1000" type="line"/>
    </contour>
  </outline>
</glyph>
<glyph name="x" format="2">
  <advance width="1833"/>
  <unicode hex="0078"/>
  <anchor x="998" y="1150" name="top"/>
  <anchor x="771" y="-150" name="bottom"/>
  <outline>
    <contour>
      <point x="-93" y="0" type="line"/>
      <point x="315" y="0" type="line"/>
      <point x="867" y="374" type="line"/>
      <point x="1296" y="0" type="line"/>
      <point x="1687" y="0" type="line"/>
      <point x="1080" y="519" type="line"/>
      <point x="1850" y="1000" type="line"/>
      <point x="1450" y="1000" type="line"/>
      <point x="903" y="650" type="line"/>
      <point x="486" y="1000" type="line"/>
      <point x="88" y="1000" type="line"/>
      <point x="689" y="508" type="line"/>
    </contour>
  </outline>
</glyph>
<glyph name="y" format="2">
  <advance width="1850"/>
  <unicode hex="0079"/>
  <anchor x="1008" y="1150" name="top"/>
  <anchor x="1275" y="-180" name="bottom"/>
  <outline>
    <contour>
      <point x="-103" y="-428" type="line"/>
      <point x="340" y="-428" type="line" smooth="yes"/>
      <point x="396" y="-428"/>
      <point x="473" y="-414"/>
      <point x="539" y="-378"/>
      <point x="606" y="-317"/>
      <point x="651" y="-270" type="qcurve" smooth="yes"/>
      <point x="1880" y="1000" type="line"/>
      <point x="1575" y="1000" type="line"/>
      <point x="857" y="244" type="line"/>
      <point x="392" y="1000" type="line"/>
      <point x="83" y="1000" type="line"/>
      <point x="680" y="58" type="line"/>
      <point x="430" y="-204" type="line"/>
      <point x="430" y="-204"/>
      <point x="430" y="-204"/>
      <point x="430" y="-204"/>
      <point x="430" y="-204"/>
      <point x="430" y="-204" type="qcurve"/>
      <point x="-110" y="-204" type="line"/>
    </contour>
  </outline>
</glyph>
<glyph name="z" format="2">
  <advance width="1786.29"/>
  <unicode hex="007A"/>
  <anchor x="972.928" y="1150" name="top"/>
  <anchor x="745.928" y="-150" name="bottom"/>
  <outline>
    <contour>
      <point x="20.9282" y="0" type="line"/>
      <point x="1523.93" y="0" type="line"/>
      <point x="1558.93" y="199" type="line"/>
      <point x="556.928" y="199" type="line"/>
      <point x="552.928" y="176" type="line"/>
      <point x="1676.93" y="912" type="line"/>
      <point x="1692.93" y="1000" type="line"/>
      <point x="255.928" y="1000" type="line"/>
      <point x="220.928" y="801" type="line"/>
      <point x="1144.93" y="801" type="line"/>
      <point x="1139.93" y="810" type="line"/>
      <point x="36.9282" y="88" type="line"/>
    </contour>
  </outline>
</glyph>
<glyph name="braceleft" format="2">
  <advance width="1002"/>
  <unicode hex="007B"/>
  <outline>
    <contour>
      <point x="225.444" y="18" type="line"/>
      <point x="276.444" y="307" type="line" smooth="yes"/>
      <point x="283.444" y="348"/>
      <point x="272.444" y="414"/>
      <point x="230.444" y="460"/>
      <point x="154.444" y="485"/>
      <point x="97.444" y="485" type="qcurve"/>
      <point x="136.444" y="709" type="line"/>
      <point x="193.444" y="709"/>
      <point x="277.444" y="734"/>
      <point x="336.444" y="781"/>
      <point x="370.444" y="847"/>
      <point x="377.444" y="887" type="qcurve" smooth="yes"/>
      <point x="425.444" y="1164" type="line" smooth="yes"/>
      <point x="437.444" y="1232"/>
      <point x="498.444" y="1337"/>
      <point x="589.444" y="1410"/>
      <point x="706.444" y="1448"/>
      <point x="773.444" y="1448" type="qcurve" smooth="yes"/>
      <point x="1124.44" y="1448" type="line"/>
      <point x="1085.44" y="1224" type="line"/>
      <point x="806.444" y="1224" type="line" smooth="yes"/>
      <point x="773.444" y="1224"/>
      <point x="725.444" y="1211"/>
      <point x="690.444" y="1183"/>
      <point x="669.444" y="1141"/>
      <point x="664.444" y="1112" type="qcurve" smooth="yes"/>
      <point x="623.444" y="877" type="line" smooth="yes"/>
      <point x="604.444" y="766"/>
      <point x="475.444" y="624"/>
      <point x="374.444" y="597" type="qcurve"/>
      <point x="420.444" y="584"/>
      <point x="486.444" y="534"/>
      <point x="524.444" y="464"/>
      <point x="535.444" y="373"/>
      <point x="525.444" y="317" type="qcurve" smooth="yes"/>
      <point x="484.444" y="80" type="line" smooth="yes"/>
      <point x="479.444" y="51"/>
      <point x="485.444" y="9"/>
      <point x="510.444" y="-19"/>
      <point x="553.444" y="-32"/>
      <point x="586.444" y="-32" type="qcurve" smooth="yes"/>
      <point x="865.444" y="-32" type="line"/>
      <point x="826.444" y="-256" type="line"/>
      <point x="475.444" y="-256" type="line" smooth="yes"/>
      <point x="408.444" y="-256"/>
      <point x="304.444" y="-218"/>
      <point x="238.444" y="-147"/>
      <point x="214.444" y="-46"/>
      <point x="225.444" y="18" type="qcurve"/>
    </contour>
  </outline>
</glyph>
<glyph name="bar" format="2">
  <advance width="850.796"/>
  <unicode hex="007C"/>
  <outline>
    <contour>
      <point x="455" y="1520" type="line"/>
      <point x="685" y="1520" type="line"/>
      <point x="336" y="-480" type="line"/>
      <point x="106" y="-480" type="line"/>
    </contour>
  </outline>
</glyph>
<glyph name="asciitilde" format="2">
  <advance width="1498.08"/>
  <unicode hex="007E"/>
  <outline>
    <contour>
      <point x="-36" y="420" type="line"/>
      <point x="-19" y="468"/>
      <point x="30" y="562"/>
      <point x="92" y="647"/>
      <point x="170" y="719"/>
      <point x="264" y="772"/>
      <point x="375" y="802"/>
      <point x="439" y="802" type="qcurve" smooth="yes"/>
      <point x="504" y="802"/>
      <point x="614" y="769"/>
      <point x="712" y="720"/>
      <point x="802" y="662"/>
      <point x="890" y="613"/>
      <point x="979" y="580"/>
      <point x="1028" y="580" type="qcurve" smooth="yes"/>
      <point x="1088" y="580"/>
      <point x="1181" y="627"/>
      <point x="1249" y="693"/>
      <point x="1292" y="766"/>
      <point x="1302" y="792" type="qcurve"/>
      <point x="1501" y="754" type="line"/>
      <point x="1484" y="706"/>
      <point x="1434" y="611"/>
      <point x="1369" y="526"/>
      <point x="1288" y="454"/>
      <point x="1192" y="402"/>
      <point x="1080" y="372"/>
      <point x="1016" y="372" type="qcurve" smooth="yes"/>
      <point x="951" y="372"/>
      <point x="841" y="405"/>
      <point x="743" y="454"/>
      <point x="653" y="512"/>
      <point x="565" y="561"/>
      <point x="476" y="594"/>
      <point x="427" y="594" type="qcurve" smooth="yes"/>
      <point x="367" y="594"/>
      <point x="277" y="547"/>
      <point x="213" y="481"/>
      <point x="173" y="408"/>
      <point x="163" y="382" type="qcurve"/>
    </contour>
  </outline>
</glyph>
<glyph name="sterling" format="2">
  <advance width="2724.6"/>
  <unicode hex="00A3"/>
  <outline>
    <contour>
      <point x="-95" y="0" type="line"/>
      <point x="2021" y="0" type="line" smooth="yes"/>
      <point x="2114" y="0"/>
      <point x="2250" y="31"/>
      <point x="2345" y="100"/>
      <point x="2402" y="209"/>
      <point x="2415" y="286" type="qcurve" smooth="yes"/>
      <point x="2451" y="492" type="line"/>
      <point x="2195" y="544" type="line"/>
      <point x="2161" y="344" type="line" smooth="yes"/>
      <point x="2157" y="318"/>
      <point x="2139" y="280"/>
      <point x="2110" y="256"/>
      <point x="2070" y="244"/>
      <point x="2044" y="244" type="qcurve" smooth="yes"/>
      <point x="613" y="244" type="line"/>
      <point x="615" y="252"/>
      <point x="618" y="267"/>
      <point x="619" y="274" type="qcurve"/>
      <point x="671" y="575" type="line"/>
      <point x="1507" y="575" type="line"/>
      <point x="1567" y="735" type="line"/>
      <point x="699" y="735" type="line"/>
      <point x="757" y="1070" type="line" smooth="yes"/>
      <point x="761" y="1096"/>
      <point x="779" y="1134"/>
      <point x="807" y="1158"/>
      <point x="847" y="1170"/>
      <point x="873" y="1170" type="qcurve" smooth="yes"/>
      <point x="2195" y="1170" type="line" smooth="yes"/>
      <point x="2221" y="1170"/>
      <point x="2257" y="1158"/>
      <point x="2278" y="1134"/>
      <point x="2283" y="1096"/>
      <point x="2279" y="1070" type="qcurve"/>
      <point x="2248" y="896" type="line"/>
      <point x="2521" y="944" type="line"/>
      <point x="2554" y="1140" type="line" smooth="yes"/>
      <point x="2566" y="1214"/>
      <point x="2546" y="1318"/>
      <point x="2475" y="1384"/>
      <point x="2350" y="1414"/>
      <point x="2258" y="1414" type="qcurve" smooth="yes"/>
      <point x="894" y="1414" type="line" smooth="yes"/>
      <point x="803" y="1414"/>
      <point x="667" y="1384"/>
      <point x="573" y="1318"/>
      <point x="517" y="1214"/>
      <point x="504" y="1140" type="qcurve" smooth="yes"/>
      <point x="434" y="735" type="line"/>
      <point x="216" y="735" type="line"/>
      <point x="188" y="575" type="line"/>
      <point x="407" y="575" type="line"/>
      <point x="367" y="344" type="line" smooth="yes"/>
      <point x="363" y="318"/>
      <point x="345" y="280"/>
      <point x="316" y="256"/>
      <point x="276" y="244"/>
      <point x="250" y="244" type="qcurve" smooth="yes"/>
      <point x="-52" y="244" type="line"/>
    </contour>
  </outline>
  <guideline angle="0" x="0" y="1000"/>
  <guideline angle="90" x="658.024" y="0"/>
</glyph>
<glyph name="currency" format="2">
  <advance width="2560" height="1448"/>
  <unicode hex="00A4"/>
  <outline>
    <contour>
      <point x="136" y="-31" type="line"/>
      <point x="451" y="199" type="line"/>
      <point x="473" y="194"/>
      <point x="524" y="190"/>
      <point x="555" y="190" type="qcurve" smooth="yes"/>
      <point x="1831" y="190" type="line" smooth="yes"/>
      <point x="1862" y="190"/>
      <point x="1916" y="194"/>
      <point x="1940" y="199" type="qcurve"/>
      <point x="2174" y="-31" type="line"/>
      <point x="2298" y="92" type="line"/>
      <point x="2089" y="297" type="line"/>
      <point x="2102" y="319"/>
      <point x="2119" y="372"/>
      <point x="2125" y="404" type="qcurve" smooth="yes"/>
      <point x="2230" y="1006" type="line" smooth="yes"/>
      <point x="2235" y="1035"/>
      <point x="2235" y="1084"/>
      <point x="2230" y="1104" type="qcurve"/>
      <point x="2510" y="1308" type="line"/>
      <point x="2429" y="1431" type="line"/>
      <point x="2114" y="1201" type="line"/>
      <point x="2092" y="1206"/>
      <point x="2040" y="1210"/>
      <point x="2009" y="1210" type="qcurve" smooth="yes"/>
      <point x="733" y="1210" type="line" smooth="yes"/>
      <point x="702" y="1210"/>
      <point x="649" y="1206"/>
      <point x="626" y="1201" type="qcurve"/>
      <point x="391" y="1431" type="line"/>
      <point x="266" y="1308" type="line"/>
      <point x="475" y="1103" type="line"/>
      <point x="463" y="1083"/>
      <point x="447" y="1035"/>
      <point x="442" y="1006" type="qcurve" smooth="yes"/>
      <point x="337" y="404" type="line" smooth="yes"/>
      <point x="331" y="372"/>
      <point x="330" y="320"/>
      <point x="335" y="298" type="qcurve"/>
      <point x="54" y="92" type="line"/>
    </contour>
    <contour>
      <point x="586" y="414" type="line"/>
      <point x="586" y="414"/>
      <point x="586" y="414"/>
      <point x="586" y="414" type="qcurve"/>
      <point x="686" y="986" type="line"/>
      <point x="686" y="986"/>
      <point x="686" y="986"/>
      <point x="686" y="986" type="qcurve"/>
      <point x="1978" y="986" type="line"/>
      <point x="1978" y="986"/>
      <point x="1978" y="986"/>
      <point x="1978" y="986" type="qcurve"/>
      <point x="1878" y="414" type="line"/>
      <point x="1878" y="414"/>
      <point x="1878" y="414"/>
      <point x="1878" y="414" type="qcurve"/>
    </contour>
  </outline>
</glyph>
<glyph name="yen" format="2">
  <advance width="2536"/>
  <unicode hex="00A5"/>
  <outline>
    <component base="Y" yxScale="-0.0018" xOffset="3.1447"/>
    <contour>
      <point x="486" y="645" type="line"/>
      <point x="2037" y="645" type="line"/>
      <point x="2064" y="805" type="line"/>
      <point x="513" y="805" type="line"/>
    </contour>
    <contour>
      <point x="438" y="375" type="line"/>
      <point x="1989" y="375" type="line"/>
      <point x="2017" y="535" type="line"/>
      <point x="466" y="535" type="line"/>
    </contour>
  </outline>
</glyph>
<glyph name="brokenbar" format="2">
  <advance width="850.796"/>
  <unicode hex="00A6"/>
  <outline>
    <contour>
      <point x="455" y="1520" type="line"/>
      <point x="685" y="1520" type="line"/>
      <point x="546" y="720" type="line"/>
      <point x="316" y="720" type="line"/>
    </contour>
    <contour>
      <point x="246" y="320" type="line"/>
      <point x="476" y="320" type="line"/>
      <point x="336" y="-480" type="line"/>
      <point x="106" y="-480" type="line"/>
    </contour>
  </outline>
</glyph>
<glyph name="section" format="2">
  <advance width="2163"/>
  <unicode hex="00A7"/>
  <outline>
    <contour>
      <point x="222" y="127" type="line"/>
      <point x="450" y="173" type="line"/>
      <point x="432" y="69" type="line"/>
      <point x="432" y="69"/>
      <point x="432" y="69"/>
      <point x="432" y="69" type="qcurve"/>
      <point x="1521" y="69" type="line"/>
      <point x="1521" y="69"/>
      <point x="1521" y="69"/>
      <point x="1521" y="69" type="qcurve"/>
      <point x="1558" y="281" type="line"/>
      <point x="1558" y="281"/>
      <point x="1558" y="281"/>
      <point x="1558" y="281" type="qcurve"/>
      <point x="425" y="281" type="line" smooth="yes"/>
      <point x="368" y="281"/>
      <point x="281" y="298"/>
      <point x="226" y="344"/>
      <point x="206" y="424"/>
      <point x="217" y="487" type="qcurve" smooth="yes"/>
      <point x="269" y="784" type="line" smooth="yes"/>
      <point x="280" y="845"/>
      <point x="329" y="921"/>
      <point x="401" y="964"/>
      <point x="493" y="980"/>
      <point x="547" y="980" type="qcurve" smooth="yes"/>
      <point x="975" y="980" type="line"/>
      <point x="916" y="790" type="line"/>
      <point x="490" y="790" type="line"/>
      <point x="490" y="790"/>
      <point x="490" y="790"/>
      <point x="490" y="790" type="qcurve"/>
      <point x="437" y="485" type="line"/>
      <point x="437" y="485"/>
      <point x="437" y="485"/>
      <point x="437" y="485" type="qcurve"/>
      <point x="1568" y="485" type="line" smooth="yes"/>
      <point x="1612" y="485"/>
      <point x="1696" y="470"/>
      <point x="1759" y="428"/>
      <point x="1790" y="351"/>
      <point x="1779" y="289" type="qcurve" smooth="yes"/>
      <point x="1741" y="69" type="line" smooth="yes"/>
      <point x="1730" y="6"/>
      <point x="1683" y="-74"/>
      <point x="1611" y="-119"/>
      <point x="1517" y="-135"/>
      <point x="1459" y="-135" type="qcurve" smooth="yes"/>
      <point x="420" y="-135" type="line" smooth="yes"/>
      <point x="363" y="-135"/>
      <point x="276" y="-119"/>
      <point x="221" y="-74"/>
      <point x="201" y="6"/>
      <point x="212" y="69" type="qcurve" smooth="yes"/>
    </contour>
    <contour>
      <point x="1662" y="485" type="line"/>
      <point x="1662" y="485"/>
      <point x="1662" y="485"/>
      <point x="1662" y="485" type="qcurve"/>
      <point x="1715" y="790" type="line"/>
      <point x="1715" y="790"/>
      <point x="1715" y="790"/>
      <point x="1715" y="790"/>
      <point x="1715" y="790"/>
      <point x="1715" y="790" type="qcurve"/>
      <point x="897" y="790" type="line"/>
      <point x="634" y="790" type="line" smooth="yes"/>
      <point x="577" y="790"/>
      <point x="490" y="807"/>
      <point x="435" y="853"/>
      <point x="415" y="933"/>
      <point x="426" y="996" type="qcurve" smooth="yes"/>
      <point x="462" y="1204" type="line" smooth="yes"/>
      <point x="473" y="1265"/>
      <point x="522" y="1341"/>
      <point x="594" y="1384"/>
      <point x="686" y="1400"/>
      <point x="740" y="1400" type="qcurve" smooth="yes"/>
      <point x="1713" y="1400" type="line" smooth="yes"/>
      <point x="1768" y="1400"/>
      <point x="1856" y="1384"/>
      <point x="1913" y="1341"/>
      <point x="1936" y="1265"/>
      <point x="1925" y="1204" type="qcurve" smooth="yes"/>
      <point x="1916" y="1150" type="line"/>
      <point x="1688" y="1106" type="line"/>
      <point x="1704" y="1196" type="line"/>
      <point x="1704" y="1196"/>
      <point x="1704" y="1196"/>
      <point x="1704" y="1196" type="qcurve"/>
      <point x="681" y="1196" type="line"/>
      <point x="681" y="1196"/>
      <point x="681" y="1196"/>
      <point x="681" y="1196" type="qcurve"/>
      <point x="645" y="994" type="line"/>
      <point x="645" y="994"/>
      <point x="645" y="994"/>
      <point x="645" y="994" type="qcurve"/>
      <point x="1724" y="994" type="line" smooth="yes"/>
      <point x="1779" y="994"/>
      <point x="1866" y="972"/>
      <point x="1922" y="921"/>
      <point x="1943" y="836"/>
      <point x="1932" y="774" type="qcurve" smooth="yes"/>
      <point x="1888" y="519" type="line" smooth="yes"/>
      <point x="1877" y="456"/>
      <point x="1828" y="370"/>
      <point x="1755" y="318"/>
      <point x="1660" y="295"/>
      <point x="1602" y="295" type="qcurve" smooth="yes"/>
      <point x="1506" y="295" type="line"/>
      <point x="1540" y="485" type="line"/>
    </contour>
  </outline>
</glyph>
<glyph name="copyright" format="2">
  <advance width="2878"/>
  <unicode hex="00A9"/>
  <outline>
    <contour>
      <point x="628" y="554" type="line"/>
      <point x="680" y="856" type="line" smooth="yes"/>
      <point x="690" y="911"/>
      <point x="732" y="988"/>
      <point x="803" y="1037"/>
      <point x="904" y="1060"/>
      <point x="972" y="1060" type="qcurve" smooth="yes"/>
      <point x="1990" y="1060" type="line" smooth="yes"/>
      <point x="2059" y="1060"/>
      <point x="2152" y="1037"/>
      <point x="2205" y="988"/>
      <point x="2220" y="911"/>
      <point x="2210" y="856" type="qcurve" smooth="yes"/>
      <point x="2202" y="810" type="line"/>
      <point x="1966" y="764" type="line"/>
      <point x="1982" y="856" type="line"/>
      <point x="1982" y="856"/>
      <point x="1982" y="856"/>
      <point x="1982" y="856" type="qcurve"/>
      <point x="908" y="856" type="line"/>
      <point x="908" y="856"/>
      <point x="908" y="856"/>
      <point x="908" y="856" type="qcurve"/>
      <point x="854" y="544" type="line"/>
      <point x="854" y="544"/>
      <point x="854" y="544"/>
      <point x="854" y="544" type="qcurve"/>
      <point x="1932" y="544" type="line"/>
      <point x="1932" y="544"/>
      <point x="1932" y="544"/>
      <point x="1932" y="544" type="qcurve"/>
      <point x="1950" y="646" type="line"/>
      <point x="2169" y="596" type="line"/>
      <point x="2162" y="554" type="line" smooth="yes"/>
      <point x="2152" y="496"/>
      <point x="2110" y="415"/>
      <point x="2039" y="364"/>
      <point x="1938" y="340"/>
      <point x="1868" y="340" type="qcurve" smooth="yes"/>
      <point x="846" y="340" type="line" smooth="yes"/>
      <point x="776" y="340"/>
      <point x="683" y="364"/>
      <point x="631" y="415"/>
      <point x="618" y="496"/>
      <point x="628" y="554" type="qcurve"/>
    </contour>
    <contour>
      <point x="366" y="1104" type="line" smooth="yes"/>
      <point x="381" y="1190"/>
      <point x="449" y="1297"/>
      <point x="550" y="1357"/>
      <point x="680" y="1378"/>
      <point x="756" y="1378" type="qcurve" smooth="yes"/>
      <point x="2332" y="1378" type="line" smooth="yes"/>
      <point x="2408" y="1378"/>
      <point x="2530" y="1357"/>
      <point x="2611" y="1297"/>
      <point x="2643" y="1190"/>
      <point x="2628" y="1104" type="qcurve" smooth="yes"/>
      <point x="2489" y="308" type="line" smooth="yes"/>
      <point x="2474" y="220"/>
      <point x="2407" y="108"/>
      <point x="2307" y="45"/>
      <point x="2175" y="22"/>
      <point x="2095" y="22" type="qcurve" smooth="yes"/>
      <point x="519" y="22" type="line" smooth="yes"/>
      <point x="439" y="22"/>
      <point x="316" y="46"/>
      <point x="239" y="109"/>
      <point x="212" y="220"/>
      <point x="227" y="308" type="qcurve" smooth="yes"/>
    </contour>
    <contour>
      <point x="560" y="1104" type="line"/>
      <point x="421" y="308" type="line" smooth="yes"/>
      <point x="417" y="282"/>
      <point x="421" y="239"/>
      <point x="448" y="209"/>
      <point x="503" y="192"/>
      <point x="549" y="192" type="qcurve" smooth="yes"/>
      <point x="2125" y="192" type="line" smooth="yes"/>
      <point x="2171" y="192"/>
      <point x="2232" y="209"/>
      <point x="2271" y="239"/>
      <point x="2291" y="282"/>
      <point x="2295" y="308" type="qcurve" smooth="yes"/>
      <point x="2434" y="1104" type="line" smooth="yes"/>
      <point x="2438" y="1127"/>
      <point x="2432" y="1165"/>
      <point x="2404" y="1193"/>
      <point x="2349" y="1208"/>
      <point x="2302" y="1208" type="qcurve" smooth="yes"/>
      <point x="726" y="1208" type="line" smooth="yes"/>
      <point x="693" y="1208"/>
      <point x="637" y="1200"/>
      <point x="594" y="1177"/>
      <point x="566" y="1136"/>
      <point x="560" y="1104" type="qcurve"/>
    </contour>
  </outline>
</glyph>
<glyph name="ordfeminine" format="2">
  <advance width="1459"/>
  <unicode hex="00AA"/>
  <outline>
    <contour>
      <point x="338" y="599" type="line" smooth="yes"/>
      <point x="300" y="599"/>
      <point x="240" y="611"/>
      <point x="201" y="643"/>
      <point x="187" y="697"/>
      <point x="194" y="740" type="qcurve" smooth="yes"/>
      <point x="216" y="865" type="line" smooth="yes"/>
      <point x="224" y="907"/>
      <point x="264" y="959"/>
      <point x="321" y="989"/>
      <point x="391" y="999"/>
      <point x="428" y="999" type="qcurve" smooth="yes"/>
      <point x="1117" y="999" type="line"/>
      <point x="1139" y="1121" type="line"/>
      <point x="1139" y="1121"/>
      <point x="1139" y="1121"/>
      <point x="1139" y="1121" type="qcurve"/>
      <point x="471" y="1121" type="line"/>
      <point x="471" y="1121"/>
      <point x="471" y="1121"/>
      <point x="471" y="1121" type="qcurve"/>
      <point x="461" y="1063" type="line"/>
      <point x="268" y="1101" type="line"/>
      <point x="274" y="1134" type="line" smooth="yes"/>
      <point x="281" y="1176"/>
      <point x="315" y="1229"/>
      <point x="364" y="1260"/>
      <point x="428" y="1271"/>
      <point x="465" y="1271" type="qcurve" smooth="yes"/>
      <point x="1198" y="1271" type="line" smooth="yes"/>
      <point x="1235" y="1271"/>
      <point x="1295" y="1260"/>
      <point x="1334" y="1229"/>
      <point x="1349" y="1175"/>
      <point x="1341" y="1132" type="qcurve" smooth="yes"/>
      <point x="1249" y="606" type="line"/>
      <point x="1049" y="606" type="line"/>
      <point x="1066" y="704" type="line"/>
      <point x="1053" y="674"/>
      <point x="1012" y="634"/>
      <point x="962" y="609"/>
      <point x="904" y="599"/>
      <point x="874" y="599" type="qcurve" smooth="yes"/>
    </contour>
    <contour>
      <point x="395" y="742" type="line"/>
      <point x="395" y="742"/>
      <point x="395" y="742"/>
      <point x="395" y="742" type="qcurve"/>
      <point x="1073" y="742" type="line"/>
      <point x="1093" y="861" type="line"/>
      <point x="415" y="861" type="line"/>
      <point x="415" y="861"/>
      <point x="415" y="861"/>
      <point x="415" y="861" type="qcurve"/>
    </contour>
  </outline>
  <guideline y="36"/>
</glyph>
<glyph name="logicalnot" format="2">
  <advance width="1880"/>
  <unicode hex="00AC"/>
  <outline>
    <contour>
      <point x="1602" y="243" type="line"/>
      <point x="1378" y="243" type="line"/>
      <point x="1462" y="723" type="line"/>
      <point x="208" y="723" type="line"/>
      <point x="244" y="931" type="line"/>
      <point x="1722" y="931" type="line"/>
    </contour>
  </outline>
</glyph>
<glyph name="registered" format="2">
  <advance width="1431"/>
  <unicode hex="00AE"/>
  <outline>
    <contour>
      <point x="551" y="1167" type="line"/>
      <point x="849" y="1167" type="line"/>
      <point x="849" y="1170" type="line"/>
      <point x="1016" y="1170" type="line" smooth="yes"/>
      <point x="1038" y="1170"/>
      <point x="1074" y="1177"/>
      <point x="1101" y="1194"/>
      <point x="1118" y="1222"/>
      <point x="1122" y="1243" type="qcurve" smooth="yes"/>
      <point x="1136" y="1326" type="line" smooth="yes"/>
      <point x="1144" y="1371"/>
      <point x="1097" y="1400"/>
      <point x="1056" y="1400" type="qcurve" smooth="yes"/>
      <point x="591" y="1400" type="line"/>
      <point x="577" y="1315" type="line"/>
      <point x="1010" y="1315" type="line" smooth="yes"/>
      <point x="1020" y="1315"/>
      <point x="1027" y="1306"/>
      <point x="1025" y="1296" type="qcurve" smooth="yes"/>
      <point x="1021" y="1271" type="line" smooth="yes"/>
      <point x="1019" y="1260"/>
      <point x="1009" y="1252"/>
      <point x="999" y="1252" type="qcurve" smooth="yes"/>
      <point x="566" y="1252" type="line"/>
    </contour>
    <contour>
      <point x="479" y="1060" type="line"/>
      <point x="584" y="1060" type="line"/>
      <point x="643" y="1400" type="line"/>
      <point x="591" y="1400" type="line"/>
      <point x="538" y="1400" type="line"/>
    </contour>
    <contour>
      <point x="946" y="1060" type="line"/>
      <point x="1113" y="1060" type="line"/>
      <point x="885" y="1199" type="line"/>
      <point x="734" y="1199" type="line"/>
    </contour>
    <contour>
      <point x="317" y="1053" type="line"/>
      <point x="380" y="1413" type="line"/>
      <point x="391" y="1482"/>
      <point x="479" y="1555"/>
      <point x="548" y="1555" type="qcurve" smooth="yes"/>
      <point x="1184" y="1555" type="line" smooth="yes"/>
      <point x="1253" y="1555"/>
      <point x="1316" y="1482"/>
      <point x="1305" y="1413" type="qcurve"/>
      <point x="1242" y="1053" type="line" smooth="yes"/>
      <point x="1230" y="984"/>
      <point x="1141" y="910"/>
      <point x="1072" y="910" type="qcurve" smooth="yes"/>
      <point x="436" y="910" type="line" smooth="yes"/>
      <point x="367" y="910"/>
      <point x="305" y="984"/>
      <point x="317" y="1053" type="qcurve"/>
    </contour>
    <contour>
      <point x="384" y="1053" type="line" smooth="yes"/>
      <point x="377" y="1013"/>
      <point x="407" y="971"/>
      <point x="446" y="971" type="qcurve" smooth="yes"/>
      <point x="1082" y="971" type="line" smooth="yes"/>
      <point x="1122" y="971"/>
      <point x="1168" y="1013"/>
      <point x="1175" y="1053" type="qcurve" smooth="yes"/>
      <point x="1238" y="1413" type="line" smooth="yes"/>
      <point x="1245" y="1453"/>
      <point x="1214" y="1494"/>
      <point x="1174" y="1494" type="qcurve" smooth="yes"/>
      <point x="538" y="1494" type="line" smooth="yes"/>
      <point x="499" y="1494"/>
      <point x="454" y="1453"/>
      <point x="447" y="1413" type="qcurve" smooth="yes"/>
    </contour>
  </outline>
</glyph>
<glyph name="degree" format="2">
  <advance width="954"/>
  <unicode hex="00B0"/>
  <outline>
    <contour>
      <point x="229" y="1254" type="line"/>
      <point x="251" y="1378" type="line" smooth="yes"/>
      <point x="264" y="1452"/>
      <point x="356" y="1518"/>
      <point x="450" y="1518" type="qcurve" smooth="yes"/>
      <point x="797" y="1518" type="line" smooth="yes"/>
      <point x="890" y="1518"/>
      <point x="961" y="1452"/>
      <point x="948" y="1378" type="qcurve" smooth="yes"/>
      <point x="926" y="1254" type="line" smooth="yes"/>
      <point x="912" y="1175"/>
      <point x="820" y="1106"/>
      <point x="725" y="1106" type="qcurve" smooth="yes"/>
      <point x="378" y="1106" type="line" smooth="yes"/>
      <point x="284" y="1106"/>
      <point x="215" y="1174"/>
      <point x="229" y="1254" type="qcurve"/>
    </contour>
    <contour>
      <point x="397" y="1245" type="line"/>
      <point x="397" y="1245"/>
      <point x="397" y="1245"/>
      <point x="397" y="1245" type="qcurve"/>
      <point x="754" y="1245" type="line"/>
      <point x="754" y="1245"/>
      <point x="754" y="1245"/>
      <point x="754" y="1245" type="qcurve"/>
      <point x="778" y="1379" type="line"/>
      <point x="778" y="1379"/>
      <point x="778" y="1379"/>
      <point x="778" y="1379" type="qcurve"/>
      <point x="421" y="1379" type="line"/>
      <point x="421" y="1379"/>
      <point x="421" y="1379"/>
      <point x="421" y="1379" type="qcurve"/>
    </contour>
  </outline>
</glyph>
<glyph name="plusminus" format="2">
  <advance width="1910"/>
  <unicode hex="00B1"/>
  <outline>
    <contour>
      <point x="1732" y="989" type="line"/>
      <point x="1695" y="781" type="line"/>
      <point x="1068" y="781" type="line"/>
      <point x="997" y="370" type="line"/>
      <point x="773" y="370" type="line"/>
      <point x="844" y="781" type="line"/>
      <point x="217" y="781" type="line"/>
      <point x="254" y="989" type="line"/>
      <point x="881" y="989" type="line"/>
      <point x="952" y="1400" type="line"/>
      <point x="1176" y="1400" type="line"/>
      <point x="1105" y="989" type="line"/>
    </contour>
    <contour>
      <point x="110.721" y="0" type="line"/>
      <point x="147.017" y="208" type="line"/>
      <point x="1625.02" y="208" type="line"/>
      <point x="1588.72" y="0" type="line"/>
    </contour>
  </outline>
</glyph>
<glyph name="uni00B5" format="2">
  <advance width="2118"/>
  <unicode hex="00B5"/>
  <outline>
    <contour>
      <point x="73" y="-428" type="line"/>
      <point x="291" y="-383" type="line"/>
      <point x="377" y="110" type="line"/>
      <point x="388" y="55"/>
      <point x="498" y="0"/>
      <point x="598" y="0" type="qcurve" smooth="yes"/>
      <point x="1220" y="0" type="line" smooth="yes"/>
      <point x="1265" y="0"/>
      <point x="1351" y="13"/>
      <point x="1426" y="46"/>
      <point x="1487" y="104"/>
      <point x="1508" y="150" type="qcurve"/>
      <point x="1482" y="0" type="line"/>
      <point x="1730" y="-1" type="line"/>
      <point x="1905" y="1000" type="line"/>
      <point x="1657" y="1000" type="line"/>
      <point x="1521" y="224" type="line"/>
      <point x="1521" y="224"/>
      <point x="1521" y="224"/>
      <point x="1521" y="224"/>
      <point x="1521" y="224"/>
      <point x="1521" y="224" type="qcurve"/>
      <point x="435" y="224" type="line"/>
      <point x="435" y="224"/>
      <point x="435" y="224"/>
      <point x="435" y="224"/>
      <point x="435" y="224"/>
      <point x="435" y="224" type="qcurve"/>
      <point x="571" y="1000" type="line"/>
      <point x="323" y="1000" type="line"/>
    </contour>
  </outline>
</glyph>
<glyph name="paragraph" format="2">
  <advance width="1918"/>
  <unicode hex="00B6"/>
  <outline>
    <contour>
      <point x="1488" y="0" type="line"/>
      <point x="1408" y="0" type="line"/>
      <point x="1633" y="1288" type="line"/>
      <point x="1479" y="1288" type="line"/>
      <point x="1254" y="0" type="line"/>
      <point x="1174" y="0" type="line"/>
      <point x="1266" y="528" type="line"/>
      <point x="492" y="528" type="line" smooth="yes"/>
      <point x="406" y="528"/>
      <point x="282" y="560"/>
      <point x="208" y="625"/>
      <point x="182" y="723"/>
      <point x="194" y="788" type="qcurve" smooth="yes"/>
      <point x="253" y="1126" type="line" smooth="yes"/>
      <point x="268" y="1212"/>
      <point x="337" y="1319"/>
      <point x="438" y="1379"/>
      <point x="568" y="1400"/>
      <point x="644" y="1400" type="qcurve" smooth="yes"/>
      <point x="1732" y="1400" type="line"/>
    </contour>
  </outline>
  <guideline x="959" name="halfwidth" color="0.4,0.4,0.4,1"/>
</glyph>
<glyph name="ordmasculine" format="2">
  <advance width="1522"/>
  <unicode hex="00BA"/>
  <outline>
    <contour>
      <point x="204" y="747" type="line"/>
      <point x="271" y="1131" type="line"/>
      <point x="285" y="1205"/>
      <point x="377" y="1271"/>
      <point x="470" y="1271" type="qcurve" smooth="yes"/>
      <point x="1261" y="1271" type="line" smooth="yes"/>
      <point x="1354" y="1271"/>
      <point x="1424" y="1205"/>
      <point x="1410" y="1131" type="qcurve"/>
      <point x="1343" y="747" type="line"/>
      <point x="1330" y="668"/>
      <point x="1238" y="599"/>
      <point x="1144" y="599" type="qcurve" smooth="yes"/>
      <point x="353" y="599" type="line" smooth="yes"/>
      <point x="259" y="599"/>
      <point x="190" y="667"/>
      <point x="204" y="747" type="qcurve"/>
    </contour>
    <contour>
      <point x="408" y="768" type="line"/>
      <point x="408" y="768"/>
      <point x="408" y="768"/>
      <point x="408" y="768" type="qcurve"/>
      <point x="1147" y="768" type="line"/>
      <point x="1147" y="768"/>
      <point x="1147" y="768"/>
      <point x="1147" y="768" type="qcurve"/>
      <point x="1205" y="1102" type="line"/>
      <point x="1205" y="1102"/>
      <point x="1205" y="1102"/>
      <point x="1205" y="1102" type="qcurve"/>
      <point x="466" y="1102" type="line"/>
      <point x="466" y="1102"/>
      <point x="466" y="1102"/>
      <point x="466" y="1102" type="qcurve"/>
    </contour>
  </outline>
</glyph>
<glyph name="AE" format="2">
  <advance width="4156.99"/>
  <unicode hex="00C6"/>
  <anchor x="2456" y="1550" name="top"/>
  <anchor x="1869" y="-150" name="bottom"/>
  <outline>
    <contour>
      <point x="-120" y="0" type="line"/>
      <point x="1517" y="1400" type="line"/>
      <point x="4087" y="1400" type="line"/>
      <point x="4045" y="1156" type="line"/>
      <point x="2325" y="1156" type="line"/>
      <point x="2270" y="840" type="line"/>
      <point x="3308" y="840" type="line"/>
      <point x="3265" y="596" type="line"/>
      <point x="2227" y="596" type="line"/>
      <point x="2166" y="244" type="line"/>
      <point x="3920" y="244" type="line"/>
      <point x="3877" y="0" type="line"/>
      <point x="1859" y="0" type="line"/>
      <point x="1916" y="326" type="line"/>
      <point x="664" y="326" type="line"/>
      <point x="283" y="0" type="line"/>
    </contour>
    <contour>
      <point x="945" y="566" type="line"/>
      <point x="1958" y="566" type="line"/>
      <point x="2061" y="1156" type="line"/>
      <point x="1635" y="1156" type="line"/>
    </contour>
  </outline>
</glyph>
<glyph name="multiply" format="2">
  <advance width="1816"/>
  <unicode hex="00D7"/>
  <outline>
    <contour>
      <point x="207" y="58" type="line"/>
      <point x="122" y="227" type="line"/>
      <point x="709" y="586" type="line"/>
      <point x="246" y="946" type="line"/>
      <point x="392" y="1115" type="line"/>
      <point x="913" y="710" type="line"/>
      <point x="1573" y="1114" type="line"/>
      <point x="1659" y="946" type="line"/>
      <point x="1071" y="587" type="line"/>
      <point x="1534" y="227" type="line"/>
      <point x="1389" y="58" type="line"/>
      <point x="868" y="462" type="line"/>
    </contour>
  </outline>
  <guideline x="207" y="58" angle="31.4487" color="1,0,0,1"/>
  <guideline x="246" y="946" angle="322.156" color="1,0,0,1"/>
</glyph>
<glyph name="Oslash" format="2">
  <advance width="3148"/>
  <unicode hex="00D8"/>
  <anchor x="1731" y="1580" name="top"/>
  <outline>
    <contour>
      <point x="465.065" y="1140" type="line"/>
      <point x="313.065" y="272" type="line" smooth="yes"/>
      <point x="298.065" y="184"/>
      <point x="325.065" y="73"/>
      <point x="402.065" y="10"/>
      <point x="525.065" y="-14"/>
      <point x="605.065" y="-14" type="qcurve" smooth="yes"/>
      <point x="2295.06" y="-14" type="line" smooth="yes"/>
      <point x="2375.06" y="-14"/>
      <point x="2507.06" y="9"/>
      <point x="2607.06" y="72"/>
      <point x="2674.06" y="184"/>
      <point x="2689.06" y="272" type="qcurve" smooth="yes"/>
      <point x="2841.06" y="1140" type="line" smooth="yes"/>
      <point x="2856.06" y="1226"/>
      <point x="2824.06" y="1333"/>
      <point x="2743.06" y="1393"/>
      <point x="2621.06" y="1414"/>
      <point x="2545.06" y="1414" type="qcurve" smooth="yes"/>
      <point x="855.065" y="1414" type="line" smooth="yes"/>
      <point x="779.065" y="1414"/>
      <point x="650.065" y="1393"/>
      <point x="549.065" y="1333"/>
      <point x="480.065" y="1226"/>
      <point x="465.065" y="1140" type="qcurve"/>
    </contour>
    <contour>
      <point x="734.065" y="1170" type="line"/>
      <point x="734.065" y="1170"/>
      <point x="734.065" y="1170"/>
      <point x="734.065" y="1170"/>
      <point x="734.065" y="1170"/>
      <point x="734.065" y="1170" type="qcurve"/>
      <point x="2582.06" y="1170" type="line"/>
      <point x="2582.06" y="1170"/>
      <point x="2582.06" y="1170"/>
      <point x="2582.06" y="1170"/>
      <point x="2582.06" y="1170"/>
      <point x="2582.06" y="1170" type="qcurve"/>
      <point x="2418.06" y="230" type="line"/>
      <point x="2418.06" y="230"/>
      <point x="2418.06" y="230"/>
      <point x="2418.06" y="230"/>
      <point x="2418.06" y="230"/>
      <point x="2418.06" y="230" type="qcurve"/>
      <point x="570.065" y="230" type="line"/>
      <point x="570.065" y="230"/>
      <point x="570.065" y="230"/>
      <point x="570.065" y="230"/>
      <point x="570.065" y="230"/>
      <point x="570.065" y="230" type="qcurve"/>
    </contour>
    <contour>
      <point x="250.065" y="-30" type="line"/>
      <point x="479.065" y="80" type="line"/>
      <point x="482.065" y="82" type="line"/>
      <point x="2744.06" y="1167" type="line"/>
      <point x="2744.06" y="1167" type="line"/>
      <point x="2958.06" y="1270" type="line"/>
      <point x="2903.06" y="1430" type="line"/>
      <point x="2696.06" y="1330" type="line"/>
      <point x="2694.06" y="1328" type="line"/>
      <point x="435.065" y="246" type="line"/>
      <point x="435.065" y="246" type="line"/>
      <point x="194.065" y="130" type="line"/>
    </contour>
  </outline>
  <guideline y="-30"/>
  <guideline y="1430"/>
</glyph>
<glyph name="Thorn" format="2">
  <advance width="2809"/>
  <unicode hex="00DE"/>
  <outline>
    <contour>
      <point x="150" y="0" type="line"/>
      <point x="414" y="0" type="line"/>
      <point x="464" y="285" type="line"/>
      <point x="2138" y="285" type="line" smooth="yes"/>
      <point x="2224" y="285"/>
      <point x="2359" y="317"/>
      <point x="2456" y="382"/>
      <point x="2516" y="480"/>
      <point x="2527" y="545" type="qcurve" smooth="yes"/>
      <point x="2586" y="883" type="line" smooth="yes"/>
      <point x="2601" y="969"/>
      <point x="2569" y="1076"/>
      <point x="2488" y="1136"/>
      <point x="2366" y="1157"/>
      <point x="2290" y="1157" type="qcurve" smooth="yes"/>
      <point x="616" y="1157" type="line"/>
      <point x="658" y="1400" type="line"/>
      <point x="394" y="1400" type="line"/>
    </contour>
    <contour>
      <point x="506" y="529" type="line"/>
      <point x="573" y="913" type="line"/>
      <point x="2221" y="913" type="line" smooth="yes"/>
      <point x="2247" y="913"/>
      <point x="2285" y="901"/>
      <point x="2308" y="877"/>
      <point x="2315" y="839"/>
      <point x="2310" y="813" type="qcurve" smooth="yes"/>
      <point x="2278" y="629" type="line" smooth="yes"/>
      <point x="2273" y="599"/>
      <point x="2252" y="560"/>
      <point x="2222" y="538"/>
      <point x="2180" y="529"/>
      <point x="2154" y="529" type="qcurve" smooth="yes"/>
    </contour>
  </outline>
  <guideline x="1404.5" name="halfwidth" color="0.4,0.4,0.4,1"/>
</glyph>
<glyph name="germandbls" format="2">
  <advance width="2098"/>
  <unicode hex="00DF"/>
  <outline>
    <contour>
      <point x="956" y="920" type="line"/>
      <point x="1604" y="920" type="line" smooth="yes"/>
      <point x="1674" y="920"/>
      <point x="1775" y="944"/>
      <point x="1845" y="995"/>
      <point x="1887" y="1076"/>
      <point x="1897" y="1134" type="qcurve" smooth="yes"/>
      <point x="1918" y="1254" type="line" smooth="yes"/>
      <point x="1937" y="1362"/>
      <point x="1835" y="1458"/>
      <point x="1698" y="1458" type="qcurve" smooth="yes"/>
      <point x="654" y="1458" type="line" smooth="yes"/>
      <point x="586" y="1458"/>
      <point x="484" y="1435"/>
      <point x="414" y="1385"/>
      <point x="371" y="1308"/>
      <point x="362" y="1254" type="qcurve" smooth="yes"/>
      <point x="143" y="0" type="line"/>
      <point x="391" y="0" type="line"/>
      <point x="610" y="1254" type="line"/>
      <point x="610" y="1254"/>
      <point x="610" y="1254"/>
      <point x="610" y="1254" type="qcurve"/>
      <point x="1670" y="1254" type="line"/>
      <point x="1670" y="1254"/>
      <point x="1670" y="1254"/>
      <point x="1670" y="1254" type="qcurve"/>
      <point x="1626" y="1000" type="line"/>
      <point x="1626" y="1000"/>
      <point x="1626" y="1000"/>
      <point x="1626" y="1000" type="qcurve"/>
      <point x="970" y="1000" type="line"/>
    </contour>
    <contour>
      <point x="649" y="-10" type="line"/>
      <point x="1483" y="-10" type="line" smooth="yes"/>
      <point x="1541" y="-10"/>
      <point x="1635" y="7"/>
      <point x="1706" y="52"/>
      <point x="1753" y="131"/>
      <point x="1764" y="194" type="qcurve" smooth="yes"/>
      <point x="1869" y="794" type="line" smooth="yes"/>
      <point x="1880" y="856"/>
      <point x="1857" y="933"/>
      <point x="1800" y="975"/>
      <point x="1712" y="990"/>
      <point x="1657" y="990" type="qcurve" smooth="yes"/>
      <point x="968" y="990" type="line"/>
      <point x="931" y="776" type="line"/>
      <point x="1618" y="776" type="line"/>
      <point x="1618" y="776"/>
      <point x="1618" y="776"/>
      <point x="1618" y="776" type="qcurve"/>
      <point x="1520" y="214" type="line"/>
      <point x="1520" y="214"/>
      <point x="1520" y="214"/>
      <point x="1520" y="214" type="qcurve"/>
      <point x="688" y="214" type="line"/>
    </contour>
  </outline>
</glyph>
<glyph name="ae" format="2">
  <advance width="3324"/>
  <unicode hex="00E6"/>
  <anchor x="1757" y="1150" name="top"/>
  <anchor x="1510" y="-150" name="bottom"/>
  <outline>
    <contour>
      <point x="398" y="-10" type="line"/>
      <point x="1263" y="-10" type="line" smooth="yes"/>
      <point x="1341" y="-10"/>
      <point x="1475" y="35"/>
      <point x="1518" y="83" type="qcurve"/>
      <point x="1538" y="35"/>
      <point x="1643" y="-10"/>
      <point x="1722" y="-10" type="qcurve" smooth="yes"/>
      <point x="2653" y="-10" type="line" smooth="yes"/>
      <point x="2710" y="-10"/>
      <point x="2812" y="7"/>
      <point x="2894" y="52"/>
      <point x="2950" y="131"/>
      <point x="2961" y="194" type="qcurve" smooth="yes"/>
      <point x="2973" y="262" type="line"/>
      <point x="2733" y="308" type="line"/>
      <point x="2713" y="194" type="line"/>
      <point x="2713" y="194"/>
      <point x="2713" y="194"/>
      <point x="2713" y="194" type="qcurve"/>
      <point x="1695" y="194" type="line"/>
      <point x="1695" y="194"/>
      <point x="1695" y="194"/>
      <point x="1695" y="194" type="qcurve"/>
      <point x="1732" y="406" type="line"/>
      <point x="3017" y="406" type="line"/>
      <point x="3088" y="814" type="line" smooth="yes"/>
      <point x="3099" y="875"/>
      <point x="3075" y="951"/>
      <point x="3013" y="994"/>
      <point x="2915" y="1010"/>
      <point x="2850" y="1010" type="qcurve" smooth="yes"/>
      <point x="1994" y="1010" type="line" smooth="yes"/>
      <point x="1911" y="1010"/>
      <point x="1784" y="968"/>
      <point x="1745" y="920" type="qcurve"/>
      <point x="1718" y="967"/>
      <point x="1598" y="1010"/>
      <point x="1520" y="1010" type="qcurve" smooth="yes"/>
      <point x="590" y="1010" type="line" smooth="yes"/>
      <point x="535" y="1010"/>
      <point x="433" y="994"/>
      <point x="350" y="951"/>
      <point x="293" y="875"/>
      <point x="282" y="814" type="qcurve" smooth="yes"/>
      <point x="271" y="750" type="line"/>
      <point x="511" y="706" type="line"/>
      <point x="529" y="806" type="line"/>
      <point x="529" y="806"/>
      <point x="529" y="806"/>
      <point x="529" y="806" type="qcurve"/>
      <point x="1553" y="806" type="line"/>
      <point x="1553" y="806"/>
      <point x="1553" y="806"/>
      <point x="1553" y="806" type="qcurve"/>
      <point x="1518" y="610" type="line"/>
      <point x="506" y="610" type="line" smooth="yes"/>
      <point x="451" y="610"/>
      <point x="349" y="595"/>
      <point x="267" y="553"/>
      <point x="209" y="476"/>
      <point x="198" y="414" type="qcurve" smooth="yes"/>
      <point x="160" y="194" type="line" smooth="yes"/>
      <point x="149" y="131"/>
      <point x="177" y="52"/>
      <point x="243" y="7"/>
      <point x="340" y="-10"/>
      <point x="398" y="-10" type="qcurve"/>
    </contour>
    <contour>
      <point x="408" y="194" type="line"/>
      <point x="408" y="194"/>
      <point x="408" y="194"/>
      <point x="408" y="194" type="qcurve"/>
      <point x="445" y="406" type="line"/>
      <point x="445" y="406"/>
      <point x="445" y="406"/>
      <point x="445" y="406" type="qcurve"/>
      <point x="1484" y="406" type="line"/>
      <point x="1447" y="194" type="line"/>
      <point x="1447" y="194"/>
      <point x="1447" y="194"/>
      <point x="1447" y="194" type="qcurve"/>
    </contour>
    <contour>
      <point x="1767" y="610" type="line"/>
      <point x="1802" y="806" type="line"/>
      <point x="1802" y="806"/>
      <point x="1802" y="806"/>
      <point x="1802" y="806" type="qcurve"/>
      <point x="2839" y="806" type="line"/>
      <point x="2839" y="806"/>
      <point x="2839" y="806"/>
      <point x="2839" y="806" type="qcurve"/>
      <point x="2804" y="610" type="line"/>
    </contour>
  </outline>
</glyph>
<glyph name="eth" format="2">
  <advance width="2223"/>
  <unicode hex="00F0"/>
  <outline>
    <contour>
      <point x="773" y="1354" type="line"/>
      <point x="938" y="1332"/>
      <point x="1212" y="1264"/>
      <point x="1426" y="1166"/>
      <point x="1579" y="1037"/>
      <point x="1668" y="869"/>
      <point x="1692" y="659"/>
      <point x="1669" y="530" type="qcurve"/>
      <point x="1916" y="526" type="line"/>
      <point x="1944" y="684"/>
      <point x="1927" y="929"/>
      <point x="1844" y="1119"/>
      <point x="1699" y="1259"/>
      <point x="1496" y="1361"/>
      <point x="1238" y="1432"/>
      <point x="1085" y="1458" type="qcurve"/>
    </contour>
    <contour>
      <point x="277" y="806" type="line"/>
      <point x="172" y="204" type="line" smooth="yes"/>
      <point x="162" y="146"/>
      <point x="176" y="65"/>
      <point x="228" y="14"/>
      <point x="321" y="-10"/>
      <point x="390" y="-10" type="qcurve" smooth="yes"/>
      <point x="1566" y="-10" type="line" smooth="yes"/>
      <point x="1636" y="-10"/>
      <point x="1737" y="14"/>
      <point x="1808" y="65"/>
      <point x="1850" y="146"/>
      <point x="1860" y="204" type="qcurve" smooth="yes"/>
      <point x="1916" y="526" type="line"/>
      <point x="1722" y="1010" type="line"/>
      <point x="568" y="1010" type="line" smooth="yes"/>
      <point x="500" y="1010"/>
      <point x="399" y="987"/>
      <point x="328" y="937"/>
      <point x="286" y="860"/>
      <point x="277" y="806" type="qcurve"/>
    </contour>
    <contour>
      <point x="521" y="786" type="line"/>
      <point x="521" y="786"/>
      <point x="521" y="786"/>
      <point x="521" y="786" type="qcurve"/>
      <point x="1713" y="786" type="line"/>
      <point x="1691" y="657" type="line"/>
      <point x="1613" y="214" type="line"/>
      <point x="1613" y="214"/>
      <point x="1613" y="214"/>
      <point x="1613" y="214" type="qcurve"/>
      <point x="421" y="214" type="line"/>
      <point x="421" y="214"/>
      <point x="421" y="214"/>
      <point x="421" y="214" type="qcurve"/>
    </contour>
    <contour>
      <point x="794" y="1201" type="line"/>
      <point x="790" y="1071" type="line"/>
      <point x="2068" y="1266" type="line"/>
      <point x="2071" y="1395" type="line"/>
    </contour>
  </outline>
</glyph>
<glyph name="divide" format="2">
  <advance width="1880"/>
  <unicode hex="00F7"/>
  <outline>
    <contour>
      <point x="827" y="987" type="line"/>
      <point x="840" y="1060" type="line" smooth="yes"/>
      <point x="846" y="1098"/>
      <point x="859" y="1141"/>
      <point x="882" y="1162"/>
      <point x="921" y="1168"/>
      <point x="953" y="1168" type="qcurve" smooth="yes"/>
      <point x="1093" y="1168" type="line" smooth="yes"/>
      <point x="1126" y="1168"/>
      <point x="1163" y="1162"/>
      <point x="1179" y="1141"/>
      <point x="1176" y="1098"/>
      <point x="1170" y="1060" type="qcurve" smooth="yes"/>
      <point x="1157" y="987" type="line" smooth="yes"/>
      <point x="1151" y="949"/>
      <point x="1138" y="906"/>
      <point x="1114" y="884"/>
      <point x="1075" y="878"/>
      <point x="1042" y="878" type="qcurve" smooth="yes"/>
      <point x="902" y="878" type="line" smooth="yes"/>
      <point x="869" y="878"/>
      <point x="833" y="884"/>
      <point x="818" y="906"/>
      <point x="821" y="949"/>
      <point x="827" y="987" type="qcurve"/>
    </contour>
    <contour>
      <point x="165.188" y="483" type="line"/>
      <point x="201.484" y="691" type="line"/>
      <point x="1679.48" y="691" type="line"/>
      <point x="1661.34" y="587" type="line"/>
      <point x="1643.19" y="483" type="line"/>
    </contour>
    <contour>
      <point x="674" y="109" type="line"/>
      <point x="687" y="182" type="line" smooth="yes"/>
      <point x="693" y="220"/>
      <point x="706" y="263"/>
      <point x="729" y="284"/>
      <point x="768" y="290"/>
      <point x="800" y="290" type="qcurve" smooth="yes"/>
      <point x="940" y="290" type="line" smooth="yes"/>
      <point x="973" y="290"/>
      <point x="1010" y="284"/>
      <point x="1026" y="263"/>
      <point x="1023" y="220"/>
      <point x="1017" y="182" type="qcurve" smooth="yes"/>
      <point x="1004" y="109" type="line" smooth="yes"/>
      <point x="997" y="71"/>
      <point x="984" y="28"/>
      <point x="961" y="6"/>
      <point x="922" y="0"/>
      <point x="889" y="0" type="qcurve" smooth="yes"/>
      <point x="749" y="0" type="line" smooth="yes"/>
      <point x="716" y="0"/>
      <point x="680" y="6"/>
      <point x="665" y="28"/>
      <point x="667" y="71"/>
      <point x="674" y="109" type="qcurve"/>
    </contour>
  </outline>
</glyph>
<glyph name="oslash" format="2">
  <advance width="2214" height="1448"/>
  <unicode hex="00F8"/>
  <anchor x="1188" y="1150" name="top"/>
  <outline>
    <contour>
      <point x="178.007" y="204" type="line"/>
      <point x="283.007" y="806" type="line" smooth="yes"/>
      <point x="292.007" y="860"/>
      <point x="335.007" y="937"/>
      <point x="405.007" y="987"/>
      <point x="507.007" y="1010"/>
      <point x="575.007" y="1010" type="qcurve" smooth="yes"/>
      <point x="1751.01" y="1010" type="line" smooth="yes"/>
      <point x="1888.01" y="1010"/>
      <point x="1990.01" y="914"/>
      <point x="1971.01" y="806" type="qcurve" smooth="yes"/>
      <point x="1866.01" y="204" type="line" smooth="yes"/>
      <point x="1856.01" y="146"/>
      <point x="1814.01" y="65"/>
      <point x="1744.01" y="14"/>
      <point x="1643.01" y="-10"/>
      <point x="1573.01" y="-10" type="qcurve" smooth="yes"/>
      <point x="397.007" y="-10" type="line" smooth="yes"/>
      <point x="328.007" y="-10"/>
      <point x="235.007" y="14"/>
      <point x="182.007" y="65"/>
      <point x="168.007" y="146"/>
      <point x="178.007" y="204" type="qcurve"/>
    </contour>
    <contour>
      <point x="428.007" y="214" type="line"/>
      <point x="428.007" y="214"/>
      <point x="428.007" y="214"/>
      <point x="428.007" y="214" type="qcurve"/>
      <point x="1620.01" y="214" type="line"/>
      <point x="1620.01" y="214"/>
      <point x="1620.01" y="214"/>
      <point x="1620.01" y="214" type="qcurve"/>
      <point x="1720.01" y="786" type="line"/>
      <point x="1720.01" y="786"/>
      <point x="1720.01" y="786"/>
      <point x="1720.01" y="786" type="qcurve"/>
      <point x="528.007" y="786" type="line"/>
      <point x="528.007" y="786"/>
      <point x="528.007" y="786"/>
      <point x="528.007" y="786" type="qcurve"/>
    </contour>
    <contour>
      <point x="143.007" y="-30" type="line"/>
      <point x="89.0068" y="124" type="line"/>
      <point x="330.007" y="238" type="line"/>
      <point x="330.007" y="238" type="line"/>
      <point x="1795.01" y="930" type="line"/>
      <point x="1797.01" y="931" type="line"/>
      <point x="2004.01" y="1030" type="line"/>
      <point x="2059.01" y="878" type="line"/>
      <point x="1844.01" y="776" type="line"/>
      <point x="1844.01" y="776" type="line"/>
      <point x="376.007" y="81" type="line"/>
      <point x="372.007" y="79" type="line"/>
    </contour>
  </outline>
  <guideline y="1046"/>
  <guideline y="-26"/>
</glyph>
<glyph name="thorn" format="2">
  <advance width="2215"/>
  <unicode hex="00FE"/>
  <outline>
    <contour>
      <point x="74" y="-428" type="line"/>
      <point x="402" y="1448" type="line"/>
      <point x="650" y="1448" type="line"/>
      <point x="554" y="900" type="line"/>
      <point x="585" y="956"/>
      <point x="714" y="1010"/>
      <point x="813" y="1010" type="qcurve" smooth="yes"/>
      <point x="1757" y="1010" type="line" smooth="yes"/>
      <point x="1826" y="1010"/>
      <point x="1920" y="986"/>
      <point x="1972" y="935"/>
      <point x="1987" y="854"/>
      <point x="1976" y="796" type="qcurve" smooth="yes"/>
      <point x="1871" y="194" type="line" smooth="yes"/>
      <point x="1862" y="140"/>
      <point x="1820" y="63"/>
      <point x="1749" y="13"/>
      <point x="1648" y="-10"/>
      <point x="1579" y="-10" type="qcurve" smooth="yes"/>
      <point x="635" y="-10" type="line" smooth="yes"/>
      <point x="536" y="-10"/>
      <point x="427" y="44"/>
      <point x="414" y="100" type="qcurve"/>
      <point x="322" y="-428" type="line"/>
    </contour>
    <contour>
      <point x="434" y="214" type="line"/>
      <point x="1626" y="214" type="line"/>
      <point x="1626" y="214"/>
      <point x="1626" y="214"/>
      <point x="1626" y="214" type="qcurve"/>
      <point x="1726" y="786" type="line"/>
      <point x="1726" y="786"/>
      <point x="1726" y="786"/>
      <point x="1726" y="786" type="qcurve"/>
      <point x="534" y="786" type="line"/>
    </contour>
  </outline>
</glyph>
<glyph name="Hbar" format="2">
  <advance width="3026"/>
  <unicode hex="0126"/>
  <anchor x="1664" y="1550" name="top"/>
  <anchor x="1367" y="-150" name="bottom"/>
  <anchor x="261" y="700" name="left"/>
  <outline>
    <contour>
      <point x="239" y="0" type="line"/>
      <point x="503" y="0" type="line"/>
      <point x="747" y="1400" type="line"/>
      <point x="483" y="1400" type="line"/>
    </contour>
    <contour>
      <point x="2283" y="0" type="line"/>
      <point x="2547" y="0" type="line"/>
      <point x="2791" y="1400" type="line"/>
      <point x="2527" y="1400" type="line"/>
    </contour>
    <contour>
      <point x="579" y="608" type="line"/>
      <point x="2419" y="608" type="line"/>
      <point x="2462" y="852" type="line"/>
      <point x="622" y="852" type="line"/>
    </contour>
    <contour>
      <point x="303" y="938" type="line"/>
      <point x="2811" y="938" type="line"/>
      <point x="2850" y="1162" type="line"/>
      <point x="342" y="1162" type="line"/>
    </contour>
  </outline>
  <guideline y="1050" color="1,0,0,1"/>
</glyph>
<glyph name="hbar" format="2">
  <advance width="2249.33"/>
  <unicode hex="0127"/>
  <anchor x="702" y="1598" name="top"/>
  <anchor x="1057" y="-150" name="bottom"/>
  <anchor x="286" y="500" name="left"/>
  <outline>
    <contour>
      <point x="299.331" y="0" type="line"/>
      <point x="498.331" y="1141" type="line"/>
      <point x="298.331" y="1141" type="line"/>
      <point x="330.331" y="1321" type="line"/>
      <point x="530.331" y="1321" type="line"/>
      <point x="552.331" y="1448" type="line"/>
      <point x="800.331" y="1448" type="line"/>
      <point x="778.331" y="1321" type="line"/>
      <point x="1314.33" y="1321" type="line"/>
      <point x="1282.33" y="1141" type="line"/>
      <point x="746.331" y="1141" type="line"/>
      <point x="703.331" y="896" type="line"/>
      <point x="742.331" y="947"/>
      <point x="886.331" y="1000"/>
      <point x="1004.33" y="1000" type="qcurve" smooth="yes"/>
      <point x="1724.33" y="1000" type="line" smooth="yes"/>
      <point x="1809.33" y="1000"/>
      <point x="1924.33" y="972"/>
      <point x="1990.33" y="912"/>
      <point x="2010.33" y="817"/>
      <point x="1998.33" y="750" type="qcurve" smooth="yes"/>
      <point x="1867.33" y="0" type="line"/>
      <point x="1619.33" y="0" type="line"/>
      <point x="1754.33" y="776" type="line"/>
      <point x="1754.33" y="776"/>
      <point x="1754.33" y="776"/>
      <point x="1754.33" y="776" type="qcurve"/>
      <point x="682.331" y="776" type="line"/>
      <point x="547.331" y="0" type="line"/>
    </contour>
  </outline>
  <guideline angle="0" color="1,0,0,1" x="0" y="1231"/>
  <guideline angle="260.096" color="1,0,0,1" x="1218" y="776"/>
</glyph>
<glyph name="dotlessi" format="2">
  <advance width="782"/>
  <unicode hex="0131"/>
  <anchor x="244" y="-150" name="bottom"/>
  <anchor x="471" y="1150" name="top"/>
  <anchor x="363" y="0" name="ogonek"/>
  <outline>
    <contour>
      <point x="148.469" y="0" type="line"/>
      <point x="392.469" y="0" type="line"/>
      <point x="567.469" y="1000" type="line"/>
      <point x="323.469" y="1000" type="line"/>
    </contour>
  </outline>
</glyph>
<glyph name="Lslash" format="2">
  <advance width="2240"/>
  <unicode hex="0141"/>
  <outline>
    <contour>
      <point x="200" y="0" type="line"/>
      <point x="280" y="457" type="line"/>
      <point x="37" y="374" type="line"/>
      <point x="65" y="534" type="line"/>
      <point x="308" y="617" type="line"/>
      <point x="444" y="1400" type="line"/>
      <point x="708" y="1400" type="line"/>
      <point x="589" y="713" type="line"/>
      <point x="1468" y="1014" type="line"/>
      <point x="1440" y="854" type="line"/>
      <point x="561" y="553" type="line"/>
      <point x="507" y="244" type="line"/>
      <point x="2153" y="244" type="line"/>
      <point x="2110" y="0" type="line"/>
    </contour>
  </outline>
</glyph>
<glyph name="lslash" format="2">
  <advance width="824"/>
  <unicode hex="0142"/>
  <outline>
    <contour>
      <point x="168" y="0" type="line"/>
      <point x="416" y="0" type="line"/>
      <point x="669" y="1448" type="line"/>
      <point x="421" y="1448" type="line"/>
    </contour>
    <contour>
      <point x="841" y="909" type="line"/>
      <point x="11" y="625" type="line"/>
      <point x="-17" y="465" type="line"/>
      <point x="813" y="749" type="line"/>
    </contour>
  </outline>
  <guideline y="724"/>
</glyph>
<glyph name="Eng" format="2">
  <advance width="2953"/>
  <unicode hex="014A"/>
  <outline>
    <contour>
      <point x="190" y="0" type="line"/>
      <point x="434" y="0" type="line"/>
      <point x="624" y="1090" type="line"/>
      <point x="2318" y="0" type="line"/>
      <point x="2522" y="0" type="line"/>
      <point x="2766" y="1400" type="line"/>
      <point x="2522" y="1400" type="line"/>
      <point x="2332" y="310" type="line"/>
      <point x="638" y="1400" type="line"/>
      <point x="434" y="1400" type="line"/>
    </contour>
    <contour>
      <point x="1395" y="-204" type="line"/>
      <point x="1402" y="-428" type="line"/>
      <point x="2133" y="-428" type="line" smooth="yes"/>
      <point x="2218" y="-428"/>
      <point x="2339" y="-420"/>
      <point x="2423" y="-372"/>
      <point x="2476" y="-269"/>
      <point x="2492" y="-174" type="qcurve" smooth="yes"/>
      <point x="2522" y="0" type="line"/>
      <point x="2306" y="100" type="line"/>
      <point x="2252" y="-204" type="line"/>
      <point x="2252" y="-204"/>
      <point x="2252" y="-204"/>
      <point x="2252" y="-204" type="qcurve"/>
    </contour>
  </outline>
  <guideline x="631"/>
</glyph>
<glyph name="eng" format="2">
  <advance width="2107"/>
  <unicode hex="014B"/>
  <anchor x="1550" y="1150" name="top"/>
  <anchor x="906" y="-150" name="bottom"/>
  <anchor x="135" y="500" name="left"/>
  <outline>
    <contour>
      <point x="148" y="0" type="line"/>
      <point x="396" y="0" type="line"/>
      <point x="533" y="786" type="line"/>
      <point x="1605" y="786" type="line"/>
      <point x="1605" y="786"/>
      <point x="1605" y="786"/>
      <point x="1605" y="786" type="qcurve"/>
      <point x="1432" y="-204" type="line"/>
      <point x="1432" y="-204"/>
      <point x="1432" y="-204"/>
      <point x="1432" y="-204" type="qcurve"/>
      <point x="850" y="-204" type="line"/>
      <point x="857" y="-428" type="line"/>
      <point x="1327" y="-428" type="line" smooth="yes"/>
      <point x="1412" y="-428"/>
      <point x="1532" y="-420"/>
      <point x="1616" y="-372"/>
      <point x="1669" y="-269"/>
      <point x="1686" y="-174" type="qcurve" smooth="yes"/>
      <point x="1849" y="760" type="line" smooth="yes"/>
      <point x="1861" y="827"/>
      <point x="1841" y="922"/>
      <point x="1775" y="982"/>
      <point x="1659" y="1010"/>
      <point x="1574" y="1010" type="qcurve" smooth="yes"/>
      <point x="854" y="1010" type="line" smooth="yes"/>
      <point x="736" y="1010"/>
      <point x="593" y="957"/>
      <point x="554" y="906" type="qcurve"/>
      <point x="571" y="1000" type="line"/>
      <point x="323" y="1000" type="line"/>
    </contour>
  </outline>
  <guideline angle="260.105" color="1,0,0,1" x="932" y="-0"/>
  <guideline angle="260.087" color="1,0,0,1" x="272" y="-0"/>
</glyph>
<glyph name="OE" format="2">
  <advance width="4583"/>
  <unicode hex="0152"/>
  <outline>
    <contour>
      <point x="515" y="0" type="line"/>
      <point x="4303" y="0" type="line"/>
      <point x="4343" y="230" type="line"/>
      <point x="2589" y="230" type="line"/>
      <point x="2653" y="596" type="line"/>
      <point x="3691" y="596" type="line"/>
      <point x="3734" y="840" type="line"/>
      <point x="2696" y="840" type="line"/>
      <point x="2753" y="1170" type="line"/>
      <point x="4473" y="1170" type="line"/>
      <point x="4513" y="1400" type="line"/>
      <point x="759" y="1400" type="line" smooth="yes"/>
      <point x="683" y="1400"/>
      <point x="555" y="1383"/>
      <point x="455" y="1328"/>
      <point x="387" y="1226"/>
      <point x="372" y="1140" type="qcurve" smooth="yes"/>
      <point x="220" y="272" type="line" smooth="yes"/>
      <point x="205" y="184"/>
      <point x="233" y="77"/>
      <point x="311" y="19"/>
      <point x="435" y="0"/>
      <point x="515" y="0" type="qcurve"/>
    </contour>
    <contour>
      <point x="2325" y="230" type="line"/>
      <point x="477" y="230" type="line"/>
      <point x="477" y="230"/>
      <point x="477" y="230"/>
      <point x="477" y="230"/>
      <point x="477" y="230"/>
      <point x="477" y="230" type="qcurve"/>
      <point x="641" y="1170" type="line"/>
      <point x="641" y="1170"/>
      <point x="641" y="1170"/>
      <point x="641" y="1170"/>
      <point x="641" y="1170"/>
      <point x="641" y="1170" type="qcurve"/>
      <point x="2489" y="1170" type="line"/>
    </contour>
  </outline>
  <guideline x="2489" y="1170" angle="260.102" color="1,0,0,1"/>
</glyph>
<glyph name="oe" format="2">
  <advance width="3334.08"/>
  <unicode hex="0153"/>
  <anchor x="3366.67" y="1150" name="top"/>
  <anchor x="3139.67" y="-150" name="bottom"/>
  <outline>
    <contour>
      <point x="409" y="-10" type="line"/>
      <point x="1305" y="-10" type="line" smooth="yes"/>
      <point x="1390" y="-10"/>
      <point x="1521" y="31"/>
      <point x="1562" y="79" type="qcurve"/>
      <point x="1583" y="33"/>
      <point x="1685" y="-10"/>
      <point x="1763" y="-10" type="qcurve" smooth="yes"/>
      <point x="2664" y="-10" type="line" smooth="yes"/>
      <point x="2721" y="-10"/>
      <point x="2823" y="7"/>
      <point x="2905" y="52"/>
      <point x="2961" y="131"/>
      <point x="2972" y="194" type="qcurve" smooth="yes"/>
      <point x="2984" y="262" type="line"/>
      <point x="2744" y="308" type="line"/>
      <point x="2724" y="194" type="line"/>
      <point x="2724" y="194"/>
      <point x="2724" y="194"/>
      <point x="2724" y="194" type="qcurve"/>
      <point x="1706" y="194" type="line"/>
      <point x="1706" y="194"/>
      <point x="1706" y="194"/>
      <point x="1706" y="194" type="qcurve"/>
      <point x="1743" y="406" type="line"/>
      <point x="3028" y="406" type="line"/>
      <point x="3099" y="814" type="line" smooth="yes"/>
      <point x="3109" y="875"/>
      <point x="3086" y="951"/>
      <point x="3024" y="994"/>
      <point x="2925" y="1010"/>
      <point x="2861" y="1010" type="qcurve" smooth="yes"/>
      <point x="1955" y="1010" type="line" smooth="yes"/>
      <point x="1873" y="1010"/>
      <point x="1748" y="970"/>
      <point x="1709" y="924" type="qcurve"/>
      <point x="1685" y="971"/>
      <point x="1568" y="1010"/>
      <point x="1482" y="1010" type="qcurve" smooth="yes"/>
      <point x="587" y="1010" type="line" smooth="yes"/>
      <point x="532" y="1010"/>
      <point x="430" y="994"/>
      <point x="347" y="951"/>
      <point x="289" y="875"/>
      <point x="279" y="814" type="qcurve" smooth="yes"/>
      <point x="171" y="194" type="line" smooth="yes"/>
      <point x="160" y="131"/>
      <point x="188" y="52"/>
      <point x="254" y="7"/>
      <point x="351" y="-10"/>
      <point x="409" y="-10" type="qcurve"/>
    </contour>
    <contour>
      <point x="2815" y="610" type="line"/>
      <point x="1778" y="610" type="line"/>
      <point x="1813" y="806" type="line"/>
      <point x="1813" y="806"/>
      <point x="1813" y="806"/>
      <point x="1813" y="806" type="qcurve"/>
      <point x="2850" y="806" type="line"/>
      <point x="2850" y="806"/>
      <point x="2850" y="806"/>
      <point x="2850" y="806" type="qcurve"/>
    </contour>
    <contour>
      <point x="419" y="194" type="line"/>
      <point x="526" y="806" type="line"/>
      <point x="526" y="806"/>
      <point x="526" y="806"/>
      <point x="526" y="806" type="qcurve"/>
      <point x="1565" y="806" type="line"/>
      <point x="1565" y="806"/>
      <point x="1565" y="806"/>
      <point x="1565" y="806" type="qcurve"/>
      <point x="1458" y="194" type="line"/>
      <point x="1458" y="194"/>
      <point x="1459" y="194"/>
      <point x="1459" y="194" type="qcurve"/>
      <point x="419" y="194" type="line"/>
      <point x="419" y="194"/>
      <point x="419" y="194"/>
      <point x="419" y="194" type="qcurve"/>
    </contour>
  </outline>
  <guideline angle="260.108" color="1,0,0,1" x="1546.67" y="0"/>
</glyph>
<glyph name="uni018F" format="2">
  <advance width="2857"/>
  <unicode hex="018F"/>
  <anchor x="1578" y="1564" name="top"/>
  <anchor x="1276" y="-164" name="bottom"/>
  <outline>
    <contour>
      <point x="213.12" y="272" type="line"/>
      <point x="306.12" y="806" type="line"/>
      <point x="2584.12" y="806" type="line"/>
      <point x="2541.12" y="562" type="line"/>
      <point x="527.12" y="562" type="line"/>
      <point x="469.12" y="230" type="line"/>
      <point x="469.12" y="230"/>
      <point x="469.12" y="230"/>
      <point x="469.12" y="230"/>
      <point x="469.12" y="230"/>
      <point x="469.12" y="230" type="qcurve"/>
      <point x="2219.12" y="230" type="line"/>
      <point x="2219.12" y="230"/>
      <point x="2219.12" y="230"/>
      <point x="2219.12" y="230"/>
      <point x="2219.12" y="230"/>
      <point x="2219.12" y="230" type="qcurve"/>
      <point x="2383.12" y="1170" type="line"/>
      <point x="2383.12" y="1170"/>
      <point x="2383.12" y="1170"/>
      <point x="2383.12" y="1170"/>
      <point x="2383.12" y="1170"/>
      <point x="2383.12" y="1170" type="qcurve"/>
      <point x="641.12" y="1170" type="line"/>
      <point x="641.12" y="1170"/>
      <point x="641.12" y="1170"/>
      <point x="641.12" y="1170"/>
      <point x="641.12" y="1170"/>
      <point x="641.12" y="1170" type="qcurve"/>
      <point x="608.12" y="980" type="line"/>
      <point x="354.12" y="1036" type="line"/>
      <point x="372.12" y="1140" type="line" smooth="yes"/>
      <point x="385.12" y="1214"/>
      <point x="441.12" y="1318"/>
      <point x="536.12" y="1384"/>
      <point x="672.12" y="1414"/>
      <point x="764.12" y="1414" type="qcurve" smooth="yes"/>
      <point x="2348.12" y="1414" type="line" smooth="yes"/>
      <point x="2440.12" y="1414"/>
      <point x="2564.12" y="1384"/>
      <point x="2635.12" y="1318"/>
      <point x="2655.12" y="1214"/>
      <point x="2642.12" y="1140" type="qcurve" smooth="yes"/>
      <point x="2491.12" y="272" type="line" smooth="yes"/>
      <point x="2478.12" y="195"/>
      <point x="2421.12" y="86"/>
      <point x="2328.12" y="17"/>
      <point x="2192.12" y="-14"/>
      <point x="2099.12" y="-14" type="qcurve" smooth="yes"/>
      <point x="507.12" y="-14" type="line" smooth="yes"/>
      <point x="414.12" y="-14"/>
      <point x="289.12" y="17"/>
      <point x="218.12" y="86"/>
      <point x="200.12" y="195"/>
      <point x="213.12" y="272" type="qcurve"/>
    </contour>
  </outline>
</glyph>
<glyph name="florin" format="2">
  <advance width="1834"/>
  <unicode hex="0192"/>
  <outline>
    <contour>
      <point x="-195" y="-428" type="line"/>
      <point x="-63" y="-204" type="line"/>
      <point x="488" y="-204" type="line"/>
      <point x="488" y="-204"/>
      <point x="488" y="-204"/>
      <point x="488" y="-204" type="qcurve"/>
      <point x="829" y="676" type="line"/>
      <point x="487" y="676" type="line"/>
      <point x="567" y="880" type="line"/>
      <point x="909" y="880" type="line"/>
      <point x="1029" y="1194" type="line" smooth="yes"/>
      <point x="1055" y="1261"/>
      <point x="1127" y="1357"/>
      <point x="1220" y="1419"/>
      <point x="1332" y="1448"/>
      <point x="1398" y="1448" type="qcurve" smooth="yes"/>
      <point x="1969" y="1448" type="line"/>
      <point x="1848" y="1244" type="line"/>
      <point x="1297" y="1244" type="line"/>
      <point x="1297" y="1244"/>
      <point x="1297" y="1244"/>
      <point x="1297" y="1244" type="qcurve"/>
      <point x="1157" y="880" type="line"/>
      <point x="1639" y="880" type="line"/>
      <point x="1559" y="676" type="line"/>
      <point x="1077" y="676" type="line"/>
      <point x="749" y="-174" type="line" smooth="yes"/>
      <point x="712" y="-269"/>
      <point x="637" y="-372"/>
      <point x="543" y="-420"/>
      <point x="421" y="-428"/>
      <point x="336" y="-428" type="qcurve" smooth="yes"/>
    </contour>
  </outline>
</glyph>
<glyph name="uni0237" format="2">
  <advance width="787"/>
  <unicode hex="0237"/>
  <anchor x="477" y="1150" name="top"/>
  <outline>
    <contour>
      <point x="-729.616" y="-204" type="line"/>
      <point x="-722.616" y="-428" type="line"/>
      <point x="8.38384" y="-428" type="line" smooth="yes"/>
      <point x="93.3838" y="-428"/>
      <point x="213.384" y="-420"/>
      <point x="297.384" y="-372"/>
      <point x="350.384" y="-269"/>
      <point x="367.384" y="-174" type="qcurve" smooth="yes"/>
      <point x="572.384" y="1000" type="line"/>
      <point x="324.384" y="1000" type="line"/>
      <point x="113.384" y="-204" type="line"/>
      <point x="113.384" y="-204"/>
      <point x="113.384" y="-204"/>
      <point x="113.384" y="-204" type="qcurve"/>
    </contour>
  </outline>
</glyph>
<glyph name="acutecomb" format="2">
  <unicode hex="0301"/>
  <anchor x="75" y="1150" name="_top"/>
  <anchor x="-146" y="1085" name="_topright"/>
  <outline>
    <contour>
      <point x="-226" y="1085" type="line"/>
      <point x="407" y="1448" type="line"/>
      <point x="728" y="1448" type="line"/>
      <point x="63" y="1085" type="line"/>
    </contour>
  </outline>
</glyph>
<glyph name="uni0302" format="2">
  <unicode hex="0302"/>
  <anchor x="81" y="1150" name="_top"/>
  <anchor x="159" y="1598" name="_bottom"/>
  <anchor x="684" y="1267" name="topright"/>
  <anchor x="150" y="1548" name="top"/>
  <outline>
    <contour>
      <point x="-514" y="1085" type="line"/>
      <point x="43" y="1448" type="line"/>
      <point x="223" y="1448" type="line"/>
      <point x="652" y="1085" type="line"/>
      <point x="361" y="1085" type="line"/>
      <point x="108" y="1325" type="line"/>
      <point x="-229" y="1085" type="line"/>
    </contour>
  </outline>
</glyph>
<glyph name="tildecomb" format="2">
  <unicode hex="0303"/>
  <anchor x="79" y="1150" name="_top"/>
  <anchor x="142" y="1505" name="top"/>
  <outline>
    <contour>
      <point x="-384" y="1158" type="line"/>
      <point x="-366" y="1226"/>
      <point x="-298" y="1319"/>
      <point x="-215" y="1376"/>
      <point x="-126" y="1400"/>
      <point x="-88" y="1400" type="qcurve" smooth="yes"/>
      <point x="-55" y="1400"/>
      <point x="16" y="1385"/>
      <point x="87" y="1363"/>
      <point x="156" y="1337"/>
      <point x="219" y="1315"/>
      <point x="273" y="1300"/>
      <point x="293" y="1300" type="qcurve" smooth="yes"/>
      <point x="316" y="1300"/>
      <point x="357" y="1312"/>
      <point x="391" y="1336"/>
      <point x="418" y="1374"/>
      <point x="428" y="1400" type="qcurve"/>
      <point x="583" y="1372" type="line"/>
      <point x="565" y="1303"/>
      <point x="496" y="1210"/>
      <point x="413" y="1154"/>
      <point x="325" y="1130"/>
      <point x="287" y="1130" type="qcurve" smooth="yes"/>
      <point x="254" y="1130"/>
      <point x="183" y="1145"/>
      <point x="112" y="1167"/>
      <point x="43" y="1193"/>
      <point x="-20" y="1215"/>
      <point x="-74" y="1230"/>
      <point x="-94" y="1230" type="qcurve" smooth="yes"/>
      <point x="-117" y="1230"/>
      <point x="-158" y="1218"/>
      <point x="-192" y="1194"/>
      <point x="-219" y="1156"/>
      <point x="-229" y="1130" type="qcurve"/>
    </contour>
  </outline>
</glyph>
<glyph name="uni0304" format="2">
  <unicode hex="0304"/>
  <anchor x="86" y="1150" name="_top"/>
  <anchor x="135" y="1430" name="top"/>
  <outline>
    <contour>
      <point x="-352" y="1170" type="line"/>
      <point x="531" y="1170" type="line"/>
      <point x="559" y="1330" type="line"/>
      <point x="-324" y="1330" type="line"/>
    </contour>
  </outline>
  <guideline y="1336"/>
</glyph>
<glyph name="uni0306" format="2">
  <unicode hex="0306"/>
  <anchor x="78" y="1150" name="_top"/>
  <anchor x="143" y="1517" name="top"/>
  <outline>
    <contour>
      <point x="-253" y="1417" type="line"/>
      <point x="-270" y="1323"/>
      <point x="-247" y="1204"/>
      <point x="-167" y="1136"/>
      <point x="-28" y="1110"/>
      <point x="73" y="1110" type="qcurve" smooth="yes"/>
      <point x="173" y="1110"/>
      <point x="321" y="1136"/>
      <point x="424" y="1204"/>
      <point x="489" y="1323"/>
      <point x="505" y="1417" type="qcurve"/>
      <point x="347" y="1417" type="line"/>
      <point x="339" y="1371"/>
      <point x="304" y="1311"/>
      <point x="245" y="1278"/>
      <point x="159" y="1265"/>
      <point x="100" y="1265" type="qcurve" smooth="yes"/>
      <point x="40" y="1265"/>
      <point x="-43" y="1278"/>
      <point x="-90" y="1311"/>
      <point x="-103" y="1371"/>
      <point x="-95" y="1417" type="qcurve"/>
    </contour>
  </outline>
</glyph>
<glyph name="uni0308" format="2">
  <unicode hex="0308"/>
  <anchor x="81" y="1150" name="_top"/>
  <anchor x="151" y="1550" name="_bottom"/>
  <anchor x="140" y="1490" name="top"/>
  <outline>
    <contour>
      <point x="-254" y="1240" type="line" smooth="yes"/>
      <point x="-260" y="1207"/>
      <point x="-262" y="1171"/>
      <point x="-248" y="1153"/>
      <point x="-212" y="1150"/>
      <point x="-179" y="1150" type="qcurve" smooth="yes"/>
      <point x="-119" y="1150" type="line" smooth="yes"/>
      <point x="-86" y="1150"/>
      <point x="-49" y="1153"/>
      <point x="-29" y="1171"/>
      <point x="-20" y="1207"/>
      <point x="-14" y="1240" type="qcurve" smooth="yes"/>
      <point x="-3" y="1302" type="line" smooth="yes"/>
      <point x="3" y="1334"/>
      <point x="6" y="1370"/>
      <point x="-8" y="1387"/>
      <point x="-44" y="1390"/>
      <point x="-77" y="1390" type="qcurve" smooth="yes"/>
      <point x="-137" y="1390" type="line" smooth="yes"/>
      <point x="-170" y="1390"/>
      <point x="-207" y="1387"/>
      <point x="-228" y="1370"/>
      <point x="-237" y="1334"/>
      <point x="-243" y="1302" type="qcurve" smooth="yes"/>
    </contour>
    <contour>
      <point x="206" y="1240" type="line" smooth="yes"/>
      <point x="200" y="1207"/>
      <point x="198" y="1171"/>
      <point x="212" y="1153"/>
      <point x="248" y="1150"/>
      <point x="281" y="1150" type="qcurve" smooth="yes"/>
      <point x="341" y="1150" type="line" smooth="yes"/>
      <point x="374" y="1150"/>
      <point x="411" y="1153"/>
      <point x="431" y="1171"/>
      <point x="440" y="1207"/>
      <point x="446" y="1240" type="qcurve" smooth="yes"/>
      <point x="457" y="1302" type="line" smooth="yes"/>
      <point x="463" y="1334"/>
      <point x="466" y="1370"/>
      <point x="452" y="1387"/>
      <point x="416" y="1390"/>
      <point x="383" y="1390" type="qcurve" smooth="yes"/>
      <point x="323" y="1390" type="line" smooth="yes"/>
      <point x="290" y="1390"/>
      <point x="253" y="1387"/>
      <point x="232" y="1370"/>
      <point x="223" y="1334"/>
      <point x="217" y="1302" type="qcurve" smooth="yes"/>
    </contour>
  </outline>
</glyph>
<glyph name="uni0309" format="2">
  <unicode hex="0309"/>
  <anchor x="78" y="1150" name="_top"/>
  <anchor x="42" y="1100" name="_topright"/>
  <outline>
    <contour>
      <point x="-18" y="1100" type="line"/>
      <point x="171" y="1100" type="line"/>
      <point x="211" y="1113"/>
      <point x="274" y="1143"/>
      <point x="320" y="1178"/>
      <point x="348" y="1219"/>
      <point x="352" y="1244" type="qcurve" smooth="yes"/>
      <point x="358" y="1279"/>
      <point x="329" y="1341"/>
      <point x="265" y="1387"/>
      <point x="170" y="1413"/>
      <point x="110" y="1413" type="qcurve" smooth="yes"/>
      <point x="72" y="1413"/>
      <point x="-3" y="1404"/>
      <point x="-70" y="1390"/>
      <point x="-124" y="1373"/>
      <point x="-142" y="1364" type="qcurve"/>
      <point x="-123" y="1258" type="line"/>
      <point x="-84" y="1271"/>
      <point x="17" y="1286"/>
      <point x="62" y="1286" type="qcurve" smooth="yes"/>
      <point x="114" y="1286"/>
      <point x="163" y="1262"/>
      <point x="158" y="1234" type="qcurve" smooth="yes"/>
      <point x="152" y="1200"/>
      <point x="61" y="1135"/>
      <point x="-18" y="1100" type="qcurve"/>
    </contour>
  </outline>
</glyph>
<glyph name="uni030A" format="2">
  <unicode hex="030A"/>
  <anchor x="81" y="1150" name="_top"/>
  <anchor x="156" y="1584" name="top"/>
  <outline>
    <contour>
      <point x="-137" y="1267" type="line"/>
      <point x="-148" y="1207"/>
      <point x="-144" y="1134"/>
      <point x="-101" y="1093"/>
      <point x="-9" y="1079"/>
      <point x="68" y="1079" type="qcurve" smooth="yes"/>
      <point x="145" y="1079"/>
      <point x="242" y="1093"/>
      <point x="300" y="1134"/>
      <point x="330" y="1207"/>
      <point x="340" y="1267" type="qcurve" smooth="yes"/>
      <point x="351" y="1327"/>
      <point x="347" y="1400"/>
      <point x="303" y="1440"/>
      <point x="211" y="1454"/>
      <point x="134" y="1454" type="qcurve" smooth="yes"/>
      <point x="57" y="1454"/>
      <point x="-39" y="1440"/>
      <point x="-97" y="1400"/>
      <point x="-127" y="1327"/>
      <point x="-137" y="1267" type="qcurve"/>
    </contour>
    <contour>
      <point x="-10" y="1267" type="line"/>
      <point x="-6" y="1288"/>
      <point x="4" y="1317"/>
      <point x="29" y="1334"/>
      <point x="75" y="1342"/>
      <point x="114" y="1342" type="qcurve" smooth="yes"/>
      <point x="153" y="1342"/>
      <point x="197" y="1334"/>
      <point x="216" y="1317"/>
      <point x="217" y="1288"/>
      <point x="213" y="1267" type="qcurve" smooth="yes"/>
      <point x="209" y="1246"/>
      <point x="199" y="1217"/>
      <point x="173" y="1199"/>
      <point x="127" y="1191"/>
      <point x="88" y="1191" type="qcurve" smooth="yes"/>
      <point x="49" y="1191"/>
      <point x="5" y="1199"/>
      <point x="-14" y="1217"/>
      <point x="-14" y="1246"/>
      <point x="-10" y="1267" type="qcurve"/>
    </contour>
  </outline>
</glyph>
<glyph name="uni031B" format="2">
  <unicode hex="031B"/>
  <anchor x="55" y="1000" name="_horn"/>
  <outline>
    <contour>
      <point x="30" y="856" type="line"/>
      <point x="156" y="860"/>
      <point x="336" y="898"/>
      <point x="457" y="971"/>
      <point x="525" y="1083"/>
      <point x="538" y="1161" type="qcurve" smooth="yes"/>
      <point x="546" y="1207"/>
      <point x="549" y="1314"/>
      <point x="544" y="1377" type="qcurve"/>
      <point x="348" y="1342" type="line"/>
      <point x="355" y="1294"/>
      <point x="354" y="1213"/>
      <point x="348" y="1179" type="qcurve" smooth="yes"/>
      <point x="340" y="1131"/>
      <point x="300" y="1064"/>
      <point x="229" y="1020"/>
      <point x="126" y="1000"/>
      <point x="55" y="1000" type="qcurve"/>
    </contour>
  </outline>
</glyph>
<glyph name="uni0326" format="2">
  <unicode hex="0326"/>
  <anchor x="-146" y="-150" name="_bottom"/>
  <outline>
    <contour>
      <point x="-328" y="-580" type="line"/>
      <point x="-192" y="-367" type="line"/>
      <point x="-214" y="-367" type="line" smooth="yes"/>
      <point x="-247" y="-367"/>
      <point x="-283" y="-364"/>
      <point x="-297" y="-346"/>
      <point x="-294" y="-308"/>
      <point x="-288" y="-273" type="qcurve" smooth="yes"/>
      <point x="-278" y="-219" type="line" smooth="yes"/>
      <point x="-272" y="-185"/>
      <point x="-263" y="-148"/>
      <point x="-242" y="-130"/>
      <point x="-205" y="-127"/>
      <point x="-172" y="-127" type="qcurve" smooth="yes"/>
      <point x="-113" y="-127" type="line" smooth="yes"/>
      <point x="-80" y="-127"/>
      <point x="-44" y="-130"/>
      <point x="-30" y="-148"/>
      <point x="-33" y="-185"/>
      <point x="-39" y="-219" type="qcurve" smooth="yes"/>
      <point x="-49" y="-273" type="line" smooth="yes"/>
      <point x="-54" y="-303"/>
      <point x="-64" y="-343"/>
      <point x="-72" y="-353" type="qcurve" smooth="yes"/>
      <point x="-263" y="-605" type="line"/>
    </contour>
  </outline>
</glyph>
<glyph name="uni0327" format="2">
  <unicode hex="0327"/>
  <anchor x="-146" y="-150" name="_bottom"/>
  <outline>
    <contour>
      <point x="-163" y="0" type="line"/>
      <point x="-332" y="-223" type="line"/>
      <point x="-303" y="-214"/>
      <point x="-244" y="-203"/>
      <point x="-206" y="-203" type="qcurve" smooth="yes"/>
      <point x="-183" y="-203"/>
      <point x="-145" y="-211"/>
      <point x="-118" y="-227"/>
      <point x="-106" y="-251"/>
      <point x="-109" y="-268" type="qcurve" smooth="yes"/>
      <point x="-112" y="-285"/>
      <point x="-133" y="-312"/>
      <point x="-166" y="-330"/>
      <point x="-207" y="-340"/>
      <point x="-229" y="-340" type="qcurve" smooth="yes"/>
      <point x="-273" y="-340"/>
      <point x="-337" y="-327"/>
      <point x="-349" y="-319" type="qcurve"/>
      <point x="-407" y="-388" type="line"/>
      <point x="-392" y="-400"/>
      <point x="-354" y="-419"/>
      <point x="-307" y="-431"/>
      <point x="-250" y="-438"/>
      <point x="-216" y="-438" type="qcurve" smooth="yes"/>
      <point x="-155" y="-438"/>
      <point x="-58" y="-416"/>
      <point x="14" y="-373"/>
      <point x="59" y="-308"/>
      <point x="66" y="-265" type="qcurve" smooth="yes"/>
      <point x="73" y="-226"/>
      <point x="51" y="-167"/>
      <point x="-6" y="-126"/>
      <point x="-97" y="-105"/>
      <point x="-159" y="-105" type="qcurve"/>
      <point x="-77" y="0" type="line"/>
    </contour>
  </outline>
</glyph>
<glyph name="uni0328" format="2">
  <unicode hex="0328"/>
  <anchor x="-26" y="-150" name="_bottom"/>
  <anchor x="123" y="0" name="_ogonek"/>
  <outline>
    <contour>
      <point x="123" y="0" type="line"/>
      <point x="97" y="-1"/>
      <point x="45" y="-25"/>
      <point x="3" y="-63"/>
      <point x="-27" y="-114"/>
      <point x="-32" y="-142" type="qcurve" smooth="yes"/>
      <point x="-36" y="-165"/>
      <point x="-27" y="-201"/>
      <point x="-3" y="-225"/>
      <point x="37" y="-238"/>
      <point x="64" y="-238" type="qcurve" smooth="yes"/>
      <point x="78" y="-238"/>
      <point x="108" y="-235"/>
      <point x="138" y="-228"/>
      <point x="167" y="-219"/>
      <point x="180" y="-213" type="qcurve"/>
      <point x="116" y="-392" type="line"/>
      <point x="68" y="-412"/>
      <point x="-8" y="-428"/>
      <point x="-50" y="-428" type="qcurve" smooth="yes"/>
      <point x="-107" y="-428"/>
      <point x="-193" y="-400"/>
      <point x="-247" y="-346"/>
      <point x="-267" y="-269"/>
      <point x="-258" y="-220" type="qcurve" smooth="yes"/>
      <point x="-252" y="-186"/>
      <point x="-224" y="-123"/>
      <point x="-182" y="-67"/>
      <point x="-126" y="-19"/>
      <point x="-92" y="0" type="qcurve"/>
    </contour>
  </outline>
</glyph>
